# Blender v2.67 (sub 0) OBJ File: ''
# www.blender.org
mtllib essai_000035.mtl
o Cube
v 0.958152 2.441828 -1.000000
v 0.959096 2.184244 1.000000
v -0.961629 2.434108 1.000000
v -0.958197 2.176612 -1.000000
v 0.574000 4.310791 -0.589454
v 0.594880 4.306702 0.589455
v -0.577513 4.310616 0.589454
v -0.597676 4.305143 -0.589454
v 0.963501 2.405772 -0.600000
v 0.972305 2.345162 -0.200000
v 0.972849 2.279928 0.200000
v 0.964339 2.220202 0.600000
v -0.966254 2.399020 0.600000
v -0.973842 2.339966 0.200000
v -0.973098 2.274824 -0.200000
v -0.963868 2.213545 -0.600000
v 0.589455 4.309599 -0.353672
v 0.589455 4.309599 -0.117891
v 0.589454 4.309599 0.117891
v 0.589454 4.309599 0.353673
v -0.589455 4.309599 0.353673
v -0.589455 4.309599 0.117891
v -0.589455 4.309599 -0.117891
v -0.589455 4.309599 -0.353673
v 0.353673 4.309599 -0.117891
v -0.353673 4.309599 -0.117891
v -0.574201 2.367782 0.200000
v -0.186886 2.377694 0.200000
v 0.181150 2.241248 0.200000
v 0.571854 2.251192 0.200000
v -0.359250 4.307339 -0.589454
v -0.120577 4.308859 -0.589454
v 0.114683 4.309111 -0.589454
v 0.344946 4.309296 -0.589454
v 0.353673 4.309599 0.117891
v -0.353673 4.309599 0.117891
v 0.353672 4.309599 0.353673
v 0.117891 4.309599 0.353673
v -0.117891 4.309599 0.353673
v -0.353673 4.309599 0.353673
v -0.348678 4.309464 0.589455
v -0.117891 4.309599 0.589455
v 0.117891 4.309599 0.589455
v 0.355996 4.308675 0.589455
v -0.568062 2.198102 -0.600000
v -0.182970 2.232275 -0.600000
v 0.183781 2.388138 -0.600000
v 0.567993 2.421609 -0.600000
v -0.571661 2.208520 -1.000000
v -0.189194 2.267894 -1.000000
v 0.189380 2.351886 -1.000000
v 0.571660 2.411048 -1.000000
v 0.353673 4.309599 -0.353672
v 0.117891 4.309599 -0.353673
v -0.117891 4.309599 -0.353673
v -0.353673 4.309599 -0.353673
v -0.574760 2.405813 1.000000
v -0.191686 2.349864 1.000000
v 0.188255 2.269783 1.000000
v 0.571877 2.213641 1.000000
v -0.572240 2.246499 -0.200000
v -0.182697 2.239206 -0.200000
v 0.183245 2.379916 -0.200000
v 0.571659 2.372587 -0.200000
v -0.571452 2.415810 0.600000
v -0.187569 2.384870 0.600000
v 0.181746 2.235229 0.600000
v 0.568252 2.203766 0.600000
v -0.974371 0.550187 0.200000
v -0.606678 0.392701 0.200000
v -0.974371 0.550187 0.600000
v -0.606678 0.392701 0.600000
v 0.634098 0.402547 -0.600000
v 0.999271 0.565790 -0.600000
v 0.634098 0.402547 -0.200000
v 0.999271 0.565790 -0.200000
v 0.353673 4.809599 -0.117891
v 0.117891 4.809599 -0.117891
v -0.117891 4.809599 -0.117891
v -0.353673 4.809599 -0.117891
v 0.353673 4.809599 0.117891
v 0.117891 4.809599 0.117891
v -0.117891 4.809599 0.117891
v -0.353673 4.809599 0.117891
v 0.353672 4.809599 0.353673
v 0.117891 4.809599 0.353673
v -0.117891 4.809599 0.353673
v -0.353673 4.809599 0.353673
v 0.353673 4.809599 -0.353672
v 0.117891 4.809599 -0.353673
v -0.117891 4.809599 -0.353673
v -0.353673 4.809599 -0.353673
vn -0.014709 -0.999400 0.031368
vn 0.002480 0.999995 -0.001958
vn 0.984620 0.174400 0.010375
vn 0.010077 0.210697 0.977500
vn -0.984985 0.172486 -0.007278
vn -0.010479 0.192028 -0.981334
vn 0.021029 -0.999228 0.033172
vn -0.054357 -0.989390 0.134729
vn -0.000619 -0.973906 0.226949
vn 0.055571 -0.989723 0.131759
vn -0.004629 0.999890 -0.014104
vn 0.000000 1.000000 0.000000
vn 0.979507 0.200383 -0.020312
vn 0.981454 0.191642 0.004679
vn 0.981923 0.188376 0.018488
vn 0.982587 0.183306 0.030373
vn -0.979828 0.199336 0.014211
vn -0.981376 0.192000 -0.006121
vn -0.981894 0.188324 -0.020445
vn -0.982622 0.182859 -0.031889
vn -0.020032 0.206756 -0.978187
vn 0.017985 0.195941 0.980451
vn -0.293131 -0.956072 0.000337
vn -0.019192 0.195769 -0.980462
vn 0.026143 0.201011 0.979240
vn 0.306340 -0.951922 0.000515
vn -0.027592 0.201051 -0.979192
vn 0.018771 0.206457 0.978276
vn -0.112389 -0.992037 -0.056849
vn 0.004156 0.999959 0.008034
vn -0.016537 -0.999331 -0.032616
vn 0.009638 0.192367 0.981276
vn -0.011075 0.211230 -0.977374
vn 0.119770 -0.991024 0.059379
vn 0.019095 -0.999309 -0.031886
vn 0.120774 -0.990954 -0.058509
vn -0.112845 -0.992004 0.056522
vn 0.001950 0.999996 0.001950
vn -0.000290 1.000000 0.000290
vn -0.053763 -0.989420 -0.134753
vn 0.033730 -0.996873 -0.071464
vn -0.000000 -0.000000 1.000000
vn 0.034597 -0.997008 0.069121
vn 0.001594 -0.973850 -0.227187
vn 0.003191 -0.951010 -0.309145
vn 0.005810 -0.999983 -0.000179
vn 0.003206 -0.951102 0.308862
vn 0.056088 -0.989700 -0.131711
vn -0.027615 -0.997389 -0.066735
vn -0.027193 -0.997254 0.068885
vn -0.003215 0.999993 0.002050
vn -0.000397 0.999999 -0.001666
vn -0.000536 0.999997 -0.002597
vn -0.003204 0.999975 -0.006306
vn 1.000000 0.000000 0.000001
vn -1.000000 0.000000 -0.000000
vn 0.000000 0.000000 -1.000000
vn 0.000001 0.000000 -1.000000
vn -0.000001 0.000000 1.000000
vn -0.393714 -0.919233 -0.000000
vn 0.919647 -0.392730 -0.003641
vn -0.918702 0.394928 -0.004327
vn 0.408108 -0.912933 0.000000
vn 0.912370 0.409338 0.004818
vn -0.913402 -0.407042 0.003838
usemtl Material
s off
f 65//1 57//1 3//1 13//1
f 40//2 21//2 7//2 41//2
f 12//3 20//3 6//3 2//3
f 57//4 41//4 7//4 3//4
f 16//5 24//5 8//5 4//5
f 31//6 49//6 4//6 8//6
f 49//7 45//7 16//7 4//7
f 45//8 61//8 15//8 16//8
f 61//9 27//9 14//9 15//9
f 27//10 65//10 13//10 14//10
f 31//11 8//11 24//11 56//11
f 56//12 24//12 23//12 26//12
f 26//12 23//12 22//12 36//12
f 36//12 22//12 21//12 40//12
f 1//13 5//13 17//13 9//13
f 9//14 17//14 18//14 10//14
f 10//15 18//15 19//15 11//15
f 11//16 19//16 20//16 12//16
f 3//17 7//17 21//17 13//17
f 13//18 21//18 22//18 14//18
f 14//19 22//19 23//19 15//19
f 15//20 23//20 24//20 16//20
f 34//21 52//21 51//21 33//21
f 60//22 44//22 43//22 59//22
f 38//12 39//12 42//12 43//12
f 67//23 59//23 58//23 66//23
f 32//24 50//24 49//24 31//24
f 59//25 43//25 42//25 58//25
f 51//26 47//26 46//26 50//26
f 33//27 51//27 50//27 32//27
f 58//28 42//28 41//28 57//28
f 66//29 58//29 57//29 65//29
f 20//30 37//30 44//30 6//30
f 12//31 2//31 60//31 68//31
f 2//32 6//32 44//32 60//32
f 5//33 1//33 52//33 34//33
f 52//34 48//34 47//34 51//34
f 1//35 9//35 48//35 52//35
f 50//36 46//36 45//36 49//36
f 68//37 60//37 59//37 67//37
f 37//38 38//38 43//38 44//38
f 39//39 40//39 41//39 42//39
f 9//40 10//40 64//40 48//40
f 48//41 64//41 63//41 47//41
f 63//42 62//42 75//42 76//42
f 46//43 62//43 61//43 45//43
f 10//44 11//44 30//44 64//44
f 64//45 30//45 29//45 63//45
f 63//46 29//46 28//46 62//46
f 62//47 28//47 27//47 61//47
f 11//48 12//48 68//48 30//48
f 30//49 68//49 67//49 29//49
f 67//42 66//42 71//42 72//42
f 28//50 66//50 65//50 27//50
f 5//51 34//51 53//51 17//51
f 34//52 33//52 54//52 53//52
f 33//53 32//53 55//53 54//53
f 32//54 31//54 56//54 55//54
f 17//12 53//12 25//12 18//12
f 35//55 25//55 77//55 81//55
f 38//42 37//42 85//42 86//42
f 56//56 26//56 80//56 92//56
f 18//12 25//12 35//12 19//12
f 55//57 56//57 92//57 91//57
f 37//55 35//55 81//55 85//55
f 53//58 54//58 90//58 89//58
f 19//12 35//12 37//12 20//12
f 26//56 36//56 84//56 80//56
f 39//59 38//59 86//59 87//59
f 25//55 53//55 89//55 77//55
f 70//60 72//60 71//60 69//60
f 29//61 67//61 72//61 70//61
f 28//57 29//57 70//57 69//57
f 66//62 28//62 69//62 71//62
f 74//63 76//63 75//63 73//63
f 47//64 63//64 76//64 74//64
f 46//57 47//57 74//57 73//57
f 62//65 46//65 73//65 75//65
f 89//12 90//12 78//12 77//12
f 90//12 91//12 79//12 78//12
f 91//12 92//12 80//12 79//12
f 77//12 78//12 82//12 81//12
f 78//12 79//12 83//12 82//12
f 79//12 80//12 84//12 83//12
f 81//12 82//12 86//12 85//12
f 82//12 83//12 87//12 86//12
f 83//12 84//12 88//12 87//12
f 54//57 55//57 91//57 90//57
f 40//59 39//59 87//59 88//59
f 36//56 40//56 88//56 84//56
