# Blender v2.67 (sub 0) OBJ File: ''
# www.blender.org
mtllib essai_000003.mtl
o Cube
v 0.999765 2.015841 -1.000000
v 0.999856 2.035981 1.000000
v -0.999669 2.015878 1.000000
v -0.999758 2.035983 -1.000000
v 0.590564 4.025527 -0.589454
v 0.588992 4.026003 0.589455
v -0.590348 4.025595 0.589454
v -0.588779 4.026062 -0.589454
v 0.999802 2.018621 -0.600000
v 0.999862 2.023297 -0.200000
v 0.999886 2.028396 0.200000
v 0.999867 2.033130 0.600000
v -0.999718 2.018652 0.600000
v -0.999798 2.023321 0.200000
v -0.999822 2.028408 -0.200000
v -0.999783 2.033135 -0.600000
v 0.589455 4.025874 -0.353672
v 0.589455 4.025874 -0.117891
v 0.589454 4.025874 0.117891
v 0.589454 4.025874 0.353673
v -0.589455 4.025874 0.353673
v -0.589455 4.025874 0.117891
v -0.589455 4.025874 -0.117891
v -0.589455 4.025874 -0.353673
v 0.353673 4.025874 -0.117891
v -0.353673 4.025874 -0.117891
v -0.599749 2.021155 0.200000
v -0.199683 2.020485 0.200000
v 0.200125 2.031383 0.200000
v 0.599930 2.030656 0.200000
v -0.353227 4.025946 -0.589454
v -0.117682 4.025883 -0.589454
v 0.118134 4.025856 -0.589454
v 0.354316 4.025750 -0.589454
v 0.353673 4.025874 0.117891
v -0.353673 4.025874 0.117891
v 0.353672 4.025874 0.353673
v 0.117891 4.025874 0.353673
v -0.117891 4.025874 0.353673
v -0.353673 4.025874 0.353673
v -0.354056 4.025800 0.589455
v -0.117891 4.025874 0.589455
v 0.117891 4.025874 0.589455
v 0.353480 4.025905 0.589455
v -0.599821 2.034375 -0.600000
v -0.199946 2.031812 -0.600000
v 0.199867 2.019861 -0.600000
v 0.599816 2.017353 -0.600000
v -0.599842 2.033585 -1.000000
v -0.199950 2.029068 -1.000000
v 0.199929 2.022652 -1.000000
v 0.599836 2.018152 -1.000000
v 0.353673 4.025874 -0.353672
v 0.117891 4.025874 -0.353673
v -0.117891 4.025874 -0.353673
v -0.353673 4.025874 -0.353673
v -0.599727 2.018186 1.000000
v -0.199806 2.022684 1.000000
v 0.200073 2.029089 1.000000
v 0.599952 2.033594 1.000000
v -0.599820 2.030620 -0.200000
v -0.199928 2.031270 -0.200000
v 0.199881 2.020509 -0.200000
v 0.599858 2.021161 -0.200000
v -0.599693 2.017383 0.600000
v -0.199677 2.019929 0.600000
v 0.200136 2.031849 0.600000
v 0.599944 2.034394 0.600000
v -0.136935 0.020614 0.200000
v 0.262868 0.033159 0.200000
v -0.136935 0.020614 0.600000
v 0.262868 0.033159 0.600000
v -0.262527 0.033088 -0.600000
v 0.137277 0.020571 -0.600000
v -0.262527 0.033088 -0.200000
v 0.137277 0.020571 -0.200000
v 0.353673 4.525874 -0.117891
v 0.117891 4.525874 -0.117891
v -0.117891 4.525874 -0.117891
v -0.353673 4.525874 -0.117891
v 0.353673 4.525874 0.117891
v 0.117891 4.525874 0.117891
v -0.117891 4.525874 0.117891
v -0.353673 4.525874 0.117891
v 0.353672 4.525874 0.353673
v 0.117891 4.525874 0.353673
v -0.117891 4.525874 0.353673
v -0.353673 4.525874 0.353673
v 0.353673 4.525874 -0.353672
v 0.117891 4.525874 -0.353673
v -0.117891 4.525874 -0.353673
v -0.353673 4.525874 -0.353673
vn 0.001299 -0.999996 -0.002464
vn -0.000434 1.000000 0.000747
vn 0.979401 0.201924 -0.000216
vn -0.000792 0.200371 0.979720
vn -0.979389 0.201981 -0.000114
vn 0.000799 0.201804 -0.979426
vn -0.001449 -0.999996 -0.002573
vn 0.004315 -0.999934 -0.010601
vn 0.000058 -0.999835 -0.018188
vn -0.004294 -0.999935 -0.010549
vn 0.000247 1.000000 0.000551
vn 0.000000 1.000000 0.000000
vn 0.979837 0.199799 0.000671
vn 0.979662 0.200651 -0.001568
vn 0.979586 0.201018 -0.001649
vn 0.979512 0.201378 -0.001470
vn -0.979824 0.199860 -0.000341
vn -0.979668 0.200621 0.001597
vn -0.979592 0.200990 0.001644
vn -0.979519 0.201347 0.001437
vn 0.001454 0.200674 -0.979657
vn -0.001438 0.201493 0.979489
vn 0.022909 -0.999738 0.000000
vn 0.001452 0.201489 -0.979490
vn -0.002027 0.201081 0.979573
vn -0.022960 -0.999736 -0.000060
vn 0.002038 0.201079 -0.979573
vn -0.001443 0.200673 0.979657
vn 0.008805 -0.999951 0.004450
vn -0.000208 1.000000 -0.000340
vn 0.001405 -0.999996 0.002564
vn -0.000790 0.201810 0.979424
vn 0.000798 0.200375 -0.979719
vn -0.008762 -0.999952 -0.004488
vn -0.001304 -0.999996 0.002478
vn -0.008852 -0.999951 0.004418
vn 0.008814 -0.999951 -0.004449
vn -0.000066 1.000000 -0.000066
vn -0.000157 1.000000 0.000157
vn 0.004256 -0.999935 0.010602
vn -0.002321 -0.999982 0.005569
vn -0.000000 0.000000 1.000000
vn -0.002393 -0.999983 -0.005371
vn -0.000155 -0.999834 0.018240
vn -0.000094 -0.999676 0.025453
vn 0.000171 -1.000000 0.000111
vn -0.000026 -0.999680 -0.025304
vn -0.004406 -0.999934 0.010589
vn 0.002274 -0.999984 0.005255
vn 0.002345 -0.999983 -0.005410
vn 0.000471 0.999999 -0.000997
vn 0.000225 1.000000 -0.000302
vn 0.000058 1.000000 -0.000019
vn 0.000133 1.000000 0.000171
vn 1.000000 0.000000 0.000001
vn -1.000000 0.000000 -0.000000
vn 0.000000 0.000000 -1.000000
vn 0.000001 0.000000 -1.000000
vn -0.000001 0.000000 1.000000
vn 0.031363 -0.999508 0.000000
vn 0.999508 0.031378 -0.000031
vn -0.999508 -0.031363 -0.000014
vn -0.031292 -0.999510 -0.000000
vn 0.999510 -0.031289 0.000007
vn -0.999510 0.031304 0.000044
usemtl Material
s off
f 65//1 57//1 3//1 13//1
f 40//2 21//2 7//2 41//2
f 12//3 20//3 6//3 2//3
f 57//4 41//4 7//4 3//4
f 16//5 24//5 8//5 4//5
f 31//6 49//6 4//6 8//6
f 49//7 45//7 16//7 4//7
f 45//8 61//8 15//8 16//8
f 61//9 27//9 14//9 15//9
f 27//10 65//10 13//10 14//10
f 31//11 8//11 24//11 56//11
f 56//12 24//12 23//12 26//12
f 26//12 23//12 22//12 36//12
f 36//12 22//12 21//12 40//12
f 1//13 5//13 17//13 9//13
f 9//14 17//14 18//14 10//14
f 10//15 18//15 19//15 11//15
f 11//16 19//16 20//16 12//16
f 3//17 7//17 21//17 13//17
f 13//18 21//18 22//18 14//18
f 14//19 22//19 23//19 15//19
f 15//20 23//20 24//20 16//20
f 34//21 52//21 51//21 33//21
f 60//22 44//22 43//22 59//22
f 38//12 39//12 42//12 43//12
f 67//23 59//23 58//23 66//23
f 32//24 50//24 49//24 31//24
f 59//25 43//25 42//25 58//25
f 51//26 47//26 46//26 50//26
f 33//27 51//27 50//27 32//27
f 58//28 42//28 41//28 57//28
f 66//29 58//29 57//29 65//29
f 20//30 37//30 44//30 6//30
f 12//31 2//31 60//31 68//31
f 2//32 6//32 44//32 60//32
f 5//33 1//33 52//33 34//33
f 52//34 48//34 47//34 51//34
f 1//35 9//35 48//35 52//35
f 50//36 46//36 45//36 49//36
f 68//37 60//37 59//37 67//37
f 37//38 38//38 43//38 44//38
f 39//39 40//39 41//39 42//39
f 9//40 10//40 64//40 48//40
f 48//41 64//41 63//41 47//41
f 63//42 62//42 75//42 76//42
f 46//43 62//43 61//43 45//43
f 10//44 11//44 30//44 64//44
f 64//45 30//45 29//45 63//45
f 63//46 29//46 28//46 62//46
f 62//47 28//47 27//47 61//47
f 11//48 12//48 68//48 30//48
f 30//49 68//49 67//49 29//49
f 67//42 66//42 71//42 72//42
f 28//50 66//50 65//50 27//50
f 5//51 34//51 53//51 17//51
f 34//52 33//52 54//52 53//52
f 33//53 32//53 55//53 54//53
f 32//54 31//54 56//54 55//54
f 17//12 53//12 25//12 18//12
f 35//55 25//55 77//55 81//55
f 38//42 37//42 85//42 86//42
f 56//56 26//56 80//56 92//56
f 18//12 25//12 35//12 19//12
f 55//57 56//57 92//57 91//57
f 37//55 35//55 81//55 85//55
f 53//58 54//58 90//58 89//58
f 19//12 35//12 37//12 20//12
f 26//56 36//56 84//56 80//56
f 39//59 38//59 86//59 87//59
f 25//55 53//55 89//55 77//55
f 70//60 72//60 71//60 69//60
f 29//61 67//61 72//61 70//61
f 28//57 29//57 70//57 69//57
f 66//62 28//62 69//62 71//62
f 74//63 76//63 75//63 73//63
f 47//64 63//64 76//64 74//64
f 46//57 47//57 74//57 73//57
f 62//65 46//65 73//65 75//65
f 89//12 90//12 78//12 77//12
f 90//12 91//12 79//12 78//12
f 91//12 92//12 80//12 79//12
f 77//12 78//12 82//12 81//12
f 78//12 79//12 83//12 82//12
f 79//12 80//12 84//12 83//12
f 81//12 82//12 86//12 85//12
f 82//12 83//12 87//12 86//12
f 83//12 84//12 88//12 87//12
f 54//57 55//57 91//57 90//57
f 40//59 39//59 87//59 88//59
f 36//56 40//56 88//56 84//56
