# Blender v2.67 (sub 0) OBJ File: 'essai.blend'
# www.blender.org
mtllib essai-stand_000005.mtl
o Cube
v 1.001886 2.004941 -0.997747
v 0.997595 2.007967 1.002243
v -1.002361 2.017363 0.997915
v -0.998066 2.014300 -1.002059
v 0.609308 4.004042 -0.592562
v 0.604640 4.007415 0.586299
v -0.574317 4.018023 0.581445
v -0.569399 4.014611 -0.597478
v 1.001151 2.004876 -0.597481
v 1.000225 2.004570 -0.197043
v 0.999092 2.005335 0.202970
v 0.998264 2.006894 0.602520
v -1.001677 2.017417 0.597671
v -1.000838 2.017707 0.197268
v -0.999706 2.016913 -0.202731
v -0.998789 2.015365 -0.602315
v 0.608686 4.004607 -0.356840
v 0.607702 4.005302 -0.121061
v 0.606719 4.005997 0.114718
v 0.605736 4.006692 0.350497
v -0.573114 4.017427 0.345549
v -0.572131 4.016733 0.109771
v -0.571148 4.016038 -0.126008
v -0.570165 4.015343 -0.361787
v 0.371932 4.007449 -0.122050
v -0.335378 4.013891 -0.125019
v -0.600571 2.013897 0.198932
v -0.200022 2.011211 0.199988
v 0.199982 2.011151 0.200014
v 0.599402 2.008926 0.201222
v -0.333555 4.012492 -0.596525
v -0.097709 4.010356 -0.595566
v 0.138050 4.008218 -0.594577
v 0.373690 4.006112 -0.593565
v 0.370949 4.008144 0.113728
v -0.336361 4.014585 0.110760
v 0.369966 4.008839 0.349507
v 0.134196 4.010986 0.348518
v -0.101574 4.013134 0.347528
v -0.337344 4.015281 0.346539
v -0.338421 4.015946 0.582361
v -0.102557 4.013828 0.583307
v 0.133213 4.011681 0.584297
v 0.368936 4.009539 0.585299
v -0.599204 2.012560 -0.600894
v -0.199902 2.011169 -0.600031
v 0.200088 2.011013 -0.599956
v 0.600770 2.008388 -0.598971
v -0.598302 2.012282 -1.001056
v -0.198578 2.010717 -1.000249
v 0.201411 2.009332 -0.999610
v 0.601668 2.007338 -0.998777
v 0.372916 4.006754 -0.357829
v 0.137146 4.008902 -0.358818
v -0.098624 4.011049 -0.359808
v -0.334394 4.013196 -0.360797
v -0.602087 2.014966 0.998928
v -0.201765 2.012972 0.999740
v 0.198224 2.011578 1.000383
v 0.597885 2.009997 1.001218
v -0.599813 2.013350 -0.201061
v -0.199993 2.011189 -0.200011
v 0.200007 2.011120 -0.199980
v 0.600159 2.008406 -0.198783
v -0.601122 2.013923 0.599096
v -0.200141 2.011338 0.599968
v 0.199847 2.011164 0.600052
v 0.598853 2.009725 0.601031
v -0.200000 0.011169 0.200000
v 0.200000 0.011169 0.200000
v -0.200000 0.011169 0.600000
v 0.200000 0.011169 0.600000
v -0.200000 0.011169 -0.600000
v 0.200000 0.011169 -0.600000
v -0.200000 0.011169 -0.200000
v 0.200000 0.011169 -0.200000
v 0.376492 4.507426 -0.123505
v 0.140722 4.509573 -0.124494
v -0.095048 4.511721 -0.125484
v -0.330818 4.513868 -0.126473
v 0.375509 4.508121 0.112274
v 0.139739 4.510268 0.111285
v -0.096031 4.512415 0.110295
v -0.331801 4.514563 0.109306
v 0.374525 4.508816 0.348053
v 0.138756 4.510963 0.347063
v -0.097014 4.513110 0.346074
v -0.332784 4.515258 0.345084
v 0.377475 4.506732 -0.359284
v 0.141705 4.508879 -0.360273
v -0.094065 4.511025 -0.361262
v -0.329835 4.513173 -0.362252
vn -0.007360 -0.999972 0.001221
vn 0.008964 0.999956 -0.002628
vn 0.981181 0.193076 0.002180
vn -0.001534 0.204059 0.978957
vn -0.977699 0.209993 -0.002884
vn 0.004301 0.197520 -0.980290
vn -0.006038 -0.999980 0.001667
vn -0.007976 -0.999964 0.002909
vn -0.009222 -0.999956 0.001654
vn -0.009119 -0.999958 -0.000345
vn 0.009058 0.999954 -0.003017
vn 0.009119 0.999954 -0.002908
vn 0.009118 0.999954 -0.002909
vn 0.981327 0.192338 0.001943
vn 0.981325 0.192336 0.002828
vn 0.981294 0.192495 0.002824
vn 0.981255 0.192704 0.002112
vn -0.977937 0.208877 -0.003079
vn -0.977833 0.209368 -0.002934
vn -0.977772 0.209639 -0.003744
vn -0.977725 0.209860 -0.003665
vn 0.004126 0.198928 -0.980005
vn -0.001638 0.203544 0.979064
vn -0.001963 -0.999995 0.002552
vn 0.003876 0.197952 -0.980204
vn -0.001380 0.203727 0.979027
vn -0.001929 -0.999995 0.002660
vn 0.003610 0.198441 -0.980106
vn -0.001386 0.203907 0.978989
vn -0.005721 -0.999978 0.003329
vn 0.009071 0.999954 -0.002975
vn -0.006089 -0.999980 0.001669
vn -0.001791 0.203391 0.979096
vn 0.004534 0.199340 -0.979920
vn -0.005775 -0.999978 0.003401
vn -0.007383 -0.999972 0.001217
vn -0.003702 -0.999993 0.000902
vn -0.003782 -0.999992 0.000846
vn 0.009110 0.999954 -0.002918
vn 0.009054 0.999955 -0.002844
vn -0.009177 -0.999958 -0.000377
vn -0.006668 -0.999978 0.000151
vn -0.000039 -0.000002 1.000000
vn -0.004448 -0.999990 0.001007
vn -0.009292 -0.999956 0.001583
vn -0.006180 -0.999981 0.000682
vn -0.000160 -1.000000 0.000067
vn -0.006057 -0.999981 0.000706
vn -0.008048 -0.999963 0.002936
vn -0.004592 -0.999989 0.001011
vn -0.000105 -0.000005 1.000000
vn -0.006576 -0.999978 0.000187
vn 0.008958 0.999957 -0.002535
vn 0.009034 0.999955 -0.002779
vn 0.009100 0.999954 -0.002882
vn 0.009092 0.999954 -0.002928
vn 0.999950 -0.009107 0.004196
vn -0.004169 0.002947 0.999987
vn -0.999950 0.009107 -0.004196
vn 0.009120 0.999954 -0.002909
vn 0.004169 -0.002947 -0.999987
vn 0.999950 -0.009107 0.004197
vn 0.004170 -0.002947 -0.999987
vn -0.004170 0.002947 0.999987
vn 0.000000 -1.000000 0.000000
vn 1.000000 0.000043 0.000169
vn 0.000033 0.000001 -1.000000
vn -1.000000 -0.000041 -0.000148
vn 1.000000 -0.000024 0.000100
vn 0.000094 0.000003 -1.000000
vn -1.000000 0.000026 -0.000115
usemtl Material
s off
f 65//1 57//1 3//1 13//1
f 40//2 21//2 7//2 41//2
f 12//3 20//3 6//3 2//3
f 57//4 41//4 7//4 3//4
f 16//5 24//5 8//5 4//5
f 31//6 49//6 4//6 8//6
f 49//7 45//7 16//7 4//7
f 45//8 61//8 15//8 16//8
f 61//9 27//9 14//9 15//9
f 27//10 65//10 13//10 14//10
f 31//11 8//11 24//11 56//11
f 56//12 24//12 23//12 26//12
f 26//12 23//12 22//12 36//12
f 36//13 22//13 21//13 40//13
f 1//14 5//14 17//14 9//14
f 9//15 17//15 18//15 10//15
f 10//16 18//16 19//16 11//16
f 11//17 19//17 20//17 12//17
f 3//18 7//18 21//18 13//18
f 13//19 21//19 22//19 14//19
f 14//20 22//20 23//20 15//20
f 15//21 23//21 24//21 16//21
f 34//22 52//22 51//22 33//22
f 60//23 44//23 43//23 59//23
f 38//12 39//12 42//12 43//12
f 67//24 59//24 58//24 66//24
f 32//25 50//25 49//25 31//25
f 59//26 43//26 42//26 58//26
f 51//27 47//27 46//27 50//27
f 33//28 51//28 50//28 32//28
f 58//29 42//29 41//29 57//29
f 66//30 58//30 57//30 65//30
f 20//31 37//31 44//31 6//31
f 12//32 2//32 60//32 68//32
f 2//33 6//33 44//33 60//33
f 5//34 1//34 52//34 34//34
f 52//35 48//35 47//35 51//35
f 1//36 9//36 48//36 52//36
f 50//37 46//37 45//37 49//37
f 68//38 60//38 59//38 67//38
f 37//39 38//39 43//39 44//39
f 39//40 40//40 41//40 42//40
f 9//41 10//41 64//41 48//41
f 48//42 64//42 63//42 47//42
f 63//43 62//43 75//43 76//43
f 46//44 62//44 61//44 45//44
f 10//45 11//45 30//45 64//45
f 64//46 30//46 29//46 63//46
f 63//47 29//47 28//47 62//47
f 62//48 28//48 27//48 61//48
f 11//49 12//49 68//49 30//49
f 30//50 68//50 67//50 29//50
f 67//51 66//51 71//51 72//51
f 28//52 66//52 65//52 27//52
f 5//53 34//53 53//53 17//53
f 34//54 33//54 54//54 53//54
f 33//55 32//55 55//55 54//55
f 32//56 31//56 56//56 55//56
f 17//12 53//12 25//12 18//12
f 35//57 25//57 77//57 81//57
f 38//58 37//58 85//58 86//58
f 56//59 26//59 80//59 92//59
f 18//60 25//60 35//60 19//60
f 55//61 56//61 92//61 91//61
f 37//62 35//62 81//62 85//62
f 53//63 54//63 90//63 89//63
f 19//60 35//60 37//60 20//60
f 26//59 36//59 84//59 80//59
f 39//64 38//64 86//64 87//64
f 25//62 53//62 89//62 77//62
f 70//65 72//65 71//65 69//65
f 29//66 67//66 72//66 70//66
f 28//67 29//67 70//67 69//67
f 66//68 28//68 69//68 71//68
f 74//65 76//65 75//65 73//65
f 47//69 63//69 76//69 74//69
f 46//70 47//70 74//70 73//70
f 62//71 46//71 73//71 75//71
f 89//12 90//12 78//12 77//12
f 90//13 91//13 79//13 78//13
f 91//60 92//60 80//60 79//60
f 77//13 78//13 82//13 81//13
f 78//12 79//12 83//12 82//12
f 79//12 80//12 84//12 83//12
f 81//12 82//12 86//12 85//12
f 82//13 83//13 87//13 86//13
f 83//60 84//60 88//60 87//60
f 54//63 55//63 91//63 90//63
f 40//64 39//64 87//64 88//64
f 36//59 40//59 88//59 84//59
