# Blender v2.67 (sub 0) OBJ File: ''
# www.blender.org
mtllib essai_000034.mtl
o Cube
v 0.959995 2.424974 -1.000000
v 0.960897 2.172922 1.000000
v -0.963371 2.417308 1.000000
v -0.960039 2.165349 -1.000000
v 0.574349 4.296772 -0.589454
v 0.594770 4.292728 0.589455
v -0.577789 4.296583 0.589454
v -0.597514 4.291216 -0.589454
v 0.965108 2.389687 -0.600000
v 0.973524 2.330368 -0.200000
v 0.974045 2.266535 0.200000
v 0.965909 2.208102 0.600000
v -0.967782 2.382982 0.600000
v -0.975018 2.325210 0.200000
v -0.974294 2.261469 -0.200000
v -0.965464 2.201496 -0.600000
v 0.589455 4.295535 -0.353672
v 0.589455 4.295535 -0.117891
v 0.589454 4.295535 0.117891
v 0.589454 4.295535 0.353673
v -0.589455 4.295535 0.353673
v -0.589455 4.295535 0.117891
v -0.589455 4.295535 -0.117891
v -0.589455 4.295535 -0.353673
v 0.353673 4.295535 -0.117891
v -0.353673 4.295535 -0.117891
v -0.575377 2.352425 0.200000
v -0.187537 2.362131 0.200000
v 0.181930 2.228662 0.200000
v 0.573083 2.238414 0.200000
v -0.359137 4.293351 -0.589454
v -0.120521 4.294824 -0.589454
v 0.114752 4.295073 -0.589454
v 0.345138 4.295280 -0.589454
v 0.353673 4.295535 0.117891
v -0.353673 4.295535 0.117891
v 0.353672 4.295535 0.353673
v 0.117891 4.295535 0.353673
v -0.117891 4.295535 0.353673
v -0.353673 4.295535 0.353673
v -0.348791 4.295425 0.589455
v -0.117891 4.295535 0.589455
v 0.117891 4.295535 0.589455
v 0.355947 4.294642 0.589455
v -0.569466 2.186390 -0.600000
v -0.183706 2.219850 -0.600000
v 0.184504 2.372405 -0.600000
v 0.569403 2.405177 -0.600000
v -0.572907 2.196590 -1.000000
v -0.189666 2.254710 -1.000000
v 0.189851 2.336925 -1.000000
v 0.572908 2.394838 -1.000000
v 0.353673 4.295535 -0.353672
v 0.117891 4.295535 -0.353673
v -0.117891 4.295535 -0.353673
v -0.353673 4.295535 -0.353673
v -0.575922 2.389637 1.000000
v -0.192097 2.334913 1.000000
v 0.188742 2.256581 1.000000
v 0.573103 2.201669 1.000000
v -0.573471 2.233751 -0.200000
v -0.183450 2.226629 -0.200000
v 0.183988 2.364360 -0.200000
v 0.572905 2.357203 -0.200000
v -0.572765 2.399415 0.600000
v -0.188193 2.369153 0.600000
v 0.182499 2.222771 0.600000
v 0.569636 2.192010 0.600000
v -0.957882 0.527138 0.200000
v -0.588739 0.373081 0.200000
v -0.957882 0.527138 0.600000
v -0.588739 0.373081 0.600000
v 0.616007 0.382559 -0.600000
v 0.982709 0.542339 -0.600000
v 0.616007 0.382559 -0.200000
v 0.982709 0.542339 -0.200000
v 0.353673 4.795535 -0.117891
v 0.117891 4.795535 -0.117891
v -0.117891 4.795535 -0.117891
v -0.353673 4.795535 -0.117891
v 0.353673 4.795535 0.117891
v 0.117891 4.795535 0.117891
v -0.117891 4.795535 0.117891
v -0.353673 4.795535 0.117891
v 0.353672 4.795535 0.353673
v 0.117891 4.795535 0.353673
v -0.117891 4.795535 0.353673
v -0.353673 4.795535 0.353673
v 0.353673 4.795535 -0.353672
v 0.117891 4.795535 -0.353673
v -0.117891 4.795535 -0.353673
v -0.353673 4.795535 -0.353673
vn -0.014354 -0.999426 0.030691
vn 0.002491 0.999995 -0.002077
vn 0.984461 0.175320 0.010004
vn 0.009842 0.210466 0.977552
vn -0.984820 0.173439 -0.006959
vn -0.010256 0.192214 -0.981300
vn 0.020587 -0.999261 0.032461
vn -0.053197 -0.989828 0.131950
vn -0.000612 -0.974976 0.222311
vn 0.054385 -0.990153 0.128993
vn -0.004502 0.999897 -0.013659
vn 0.000000 1.000000 0.000000
vn 0.979437 0.200794 -0.019614
vn 0.981347 0.192180 0.004940
vn 0.981819 0.188947 0.018168
vn 0.982485 0.183994 0.029483
vn -0.979752 0.199749 0.013660
vn -0.981274 0.192514 -0.006325
vn -0.981794 0.188887 -0.020056
vn -0.982522 0.183551 -0.030959
vn -0.019577 0.206625 -0.978224
vn 0.017578 0.196056 0.980435
vn -0.286476 -0.958087 0.000322
vn -0.018772 0.195884 -0.980447
vn 0.025535 0.201014 0.979255
vn 0.299560 -0.954077 0.000509
vn -0.026967 0.201052 -0.979209
vn 0.018331 0.206330 0.978311
vn -0.109762 -0.992403 -0.055572
vn 0.004033 0.999962 0.007780
vn -0.016131 -0.999361 -0.031912
vn 0.009421 0.192553 0.981241
vn -0.010828 0.210993 -0.977428
vn 0.117074 -0.991423 0.058078
vn 0.018697 -0.999338 -0.031203
vn 0.118060 -0.991356 -0.057226
vn -0.110201 -0.992372 0.055258
vn 0.001884 0.999996 0.001884
vn -0.000235 1.000000 0.000235
vn -0.052612 -0.989856 -0.131971
vn 0.033003 -0.997005 -0.069938
vn -0.000000 -0.000000 1.000000
vn 0.033853 -0.997135 0.067641
vn 0.001564 -0.974919 -0.222555
vn 0.003171 -0.952943 -0.303133
vn 0.005782 -0.999983 -0.000201
vn 0.003166 -0.953041 0.302824
vn 0.054909 -0.990129 -0.128957
vn -0.026926 -0.997502 -0.065301
vn -0.026542 -0.997373 0.067401
vn -0.003210 0.999992 0.002242
vn -0.000444 0.999999 -0.001512
vn -0.000528 0.999997 -0.002483
vn -0.003104 0.999977 -0.006086
vn 1.000000 0.000000 0.000001
vn -1.000000 0.000000 -0.000000
vn 0.000000 0.000000 -1.000000
vn 0.000001 0.000000 -1.000000
vn -0.000001 0.000000 1.000000
vn -0.385141 -0.922858 -0.000000
vn 0.923244 -0.384198 -0.003486
vn -0.922360 0.386310 -0.004148
vn 0.399450 -0.916755 0.000000
vn 0.916227 0.400633 0.004620
vn -0.917193 -0.398426 0.003669
usemtl Material
s off
f 65//1 57//1 3//1 13//1
f 40//2 21//2 7//2 41//2
f 12//3 20//3 6//3 2//3
f 57//4 41//4 7//4 3//4
f 16//5 24//5 8//5 4//5
f 31//6 49//6 4//6 8//6
f 49//7 45//7 16//7 4//7
f 45//8 61//8 15//8 16//8
f 61//9 27//9 14//9 15//9
f 27//10 65//10 13//10 14//10
f 31//11 8//11 24//11 56//11
f 56//12 24//12 23//12 26//12
f 26//12 23//12 22//12 36//12
f 36//12 22//12 21//12 40//12
f 1//13 5//13 17//13 9//13
f 9//14 17//14 18//14 10//14
f 10//15 18//15 19//15 11//15
f 11//16 19//16 20//16 12//16
f 3//17 7//17 21//17 13//17
f 13//18 21//18 22//18 14//18
f 14//19 22//19 23//19 15//19
f 15//20 23//20 24//20 16//20
f 34//21 52//21 51//21 33//21
f 60//22 44//22 43//22 59//22
f 38//12 39//12 42//12 43//12
f 67//23 59//23 58//23 66//23
f 32//24 50//24 49//24 31//24
f 59//25 43//25 42//25 58//25
f 51//26 47//26 46//26 50//26
f 33//27 51//27 50//27 32//27
f 58//28 42//28 41//28 57//28
f 66//29 58//29 57//29 65//29
f 20//30 37//30 44//30 6//30
f 12//31 2//31 60//31 68//31
f 2//32 6//32 44//32 60//32
f 5//33 1//33 52//33 34//33
f 52//34 48//34 47//34 51//34
f 1//35 9//35 48//35 52//35
f 50//36 46//36 45//36 49//36
f 68//37 60//37 59//37 67//37
f 37//38 38//38 43//38 44//38
f 39//39 40//39 41//39 42//39
f 9//40 10//40 64//40 48//40
f 48//41 64//41 63//41 47//41
f 63//42 62//42 75//42 76//42
f 46//43 62//43 61//43 45//43
f 10//44 11//44 30//44 64//44
f 64//45 30//45 29//45 63//45
f 63//46 29//46 28//46 62//46
f 62//47 28//47 27//47 61//47
f 11//48 12//48 68//48 30//48
f 30//49 68//49 67//49 29//49
f 67//42 66//42 71//42 72//42
f 28//50 66//50 65//50 27//50
f 5//51 34//51 53//51 17//51
f 34//52 33//52 54//52 53//52
f 33//53 32//53 55//53 54//53
f 32//54 31//54 56//54 55//54
f 17//12 53//12 25//12 18//12
f 35//55 25//55 77//55 81//55
f 38//42 37//42 85//42 86//42
f 56//56 26//56 80//56 92//56
f 18//12 25//12 35//12 19//12
f 55//57 56//57 92//57 91//57
f 37//55 35//55 81//55 85//55
f 53//58 54//58 90//58 89//58
f 19//12 35//12 37//12 20//12
f 26//56 36//56 84//56 80//56
f 39//59 38//59 86//59 87//59
f 25//55 53//55 89//55 77//55
f 70//60 72//60 71//60 69//60
f 29//61 67//61 72//61 70//61
f 28//57 29//57 70//57 69//57
f 66//62 28//62 69//62 71//62
f 74//63 76//63 75//63 73//63
f 47//64 63//64 76//64 74//64
f 46//57 47//57 74//57 73//57
f 62//65 46//65 73//65 75//65
f 89//12 90//12 78//12 77//12
f 90//12 91//12 79//12 78//12
f 91//12 92//12 80//12 79//12
f 77//12 78//12 82//12 81//12
f 78//12 79//12 83//12 82//12
f 79//12 80//12 84//12 83//12
f 81//12 82//12 86//12 85//12
f 82//12 83//12 87//12 86//12
f 83//12 84//12 88//12 87//12
f 54//57 55//57 91//57 90//57
f 40//59 39//59 87//59 88//59
f 36//56 40//56 88//56 84//56
