# Blender v2.67 (sub 0) OBJ File: ''
# www.blender.org
mtllib essai_000032.mtl
o Cube
v 0.967029 2.359107 -1.000000
v 0.967772 2.129609 1.000000
v -0.970007 2.351675 1.000000
v -0.967070 2.122289 -1.000000
v 0.575760 4.242431 -0.589454
v 0.594318 4.238594 0.589455
v -0.578905 4.242194 0.589454
v -0.596847 4.237265 -0.589454
v 0.971244 2.326951 -0.600000
v 0.978180 2.272898 -0.200000
v 0.978608 2.214775 0.200000
v 0.971903 2.161614 0.600000
v -0.973603 2.320454 0.600000
v -0.979501 2.267907 0.200000
v -0.978856 2.209877 -0.200000
v -0.971555 2.155228 -0.600000
v 0.589455 4.241046 -0.353672
v 0.589455 4.241046 -0.117891
v 0.589454 4.241046 0.117891
v 0.589454 4.241046 0.353673
v -0.589455 4.241046 0.353673
v -0.589455 4.241046 0.117891
v -0.589455 4.241046 -0.117891
v -0.589455 4.241046 -0.353673
v 0.353673 4.241046 -0.117891
v -0.353673 4.241046 -0.117891
v -0.579857 2.292672 0.200000
v -0.190004 2.301541 0.200000
v 0.184922 2.180200 0.200000
v 0.577778 2.189165 0.200000
v -0.358672 4.239158 -0.589454
v -0.120292 4.240446 -0.589454
v 0.115033 4.240681 -0.589454
v 0.345919 4.240962 -0.589454
v 0.353673 4.241046 0.117891
v -0.353673 4.241046 0.117891
v 0.353672 4.241046 0.353673
v 0.117891 4.241046 0.353673
v -0.117891 4.241046 0.353673
v -0.353673 4.241046 0.353673
v -0.349249 4.241030 0.589455
v -0.117891 4.241046 0.589455
v 0.117891 4.241046 0.589455
v 0.355748 4.240276 0.589455
v -0.574829 2.141498 -0.600000
v -0.186518 2.172043 -0.600000
v 0.187264 2.311111 -0.600000
v 0.574785 2.341029 -0.600000
v -0.577663 2.150805 -1.000000
v -0.191468 2.203813 -1.000000
v 0.191645 2.278777 -1.000000
v 0.577674 2.331598 -1.000000
v 0.353673 4.241046 -0.353672
v 0.117891 4.241046 -0.353673
v -0.117891 4.241046 -0.353673
v -0.353673 4.241046 -0.353673
v -0.580343 2.326549 1.000000
v -0.193654 2.276812 1.000000
v 0.190610 2.205605 1.000000
v 0.577785 2.155706 1.000000
v -0.578165 2.184635 -0.200000
v -0.186327 2.178210 -0.200000
v 0.186825 2.303785 -0.200000
v 0.577662 2.297329 -0.200000
v -0.577764 2.335428 0.600000
v -0.190558 2.307936 0.600000
v 0.185385 2.174833 0.600000
v 0.574923 2.146929 0.600000
v -0.890489 0.437951 0.200000
v -0.515820 0.297869 0.200000
v -0.890489 0.437951 0.600000
v -0.515820 0.297869 0.600000
v 0.542423 0.305903 -0.600000
v 0.914961 0.451557 -0.600000
v 0.542423 0.305903 -0.200000
v 0.914961 0.451557 -0.200000
v 0.353673 4.741046 -0.117891
v 0.117891 4.741046 -0.117891
v -0.117891 4.741046 -0.117891
v -0.353673 4.741046 -0.117891
v 0.353673 4.741046 0.117891
v 0.117891 4.741046 0.117891
v -0.117891 4.741046 0.117891
v -0.353673 4.741046 0.117891
v 0.353672 4.741046 0.353673
v 0.117891 4.741046 0.353673
v -0.117891 4.741046 0.353673
v -0.353673 4.741046 0.353673
v 0.353673 4.741046 -0.353672
v 0.117891 4.741046 -0.353673
v -0.117891 4.741046 -0.353673
v -0.353673 4.741046 -0.353673
vn -0.012918 -0.999526 0.027930
vn 0.002501 0.999994 -0.002479
vn 0.983830 0.178899 0.008562
vn 0.008895 0.209539 0.977760
vn -0.984167 0.177151 -0.005731
vn -0.009350 0.192973 -0.981160
vn 0.018795 -0.999386 0.029560
vn -0.048460 -0.991523 0.120552
vn -0.000584 -0.979127 0.203250
vn 0.049547 -0.991817 0.117659
vn -0.003994 0.999921 -0.011917
vn 0.000000 1.000000 0.000000
vn 0.979185 0.202262 -0.016912
vn 0.980945 0.194198 0.005809
vn 0.981422 0.191124 0.016811
vn 0.982084 0.186644 0.025964
vn -0.979475 0.201234 0.011548
vn -0.980889 0.194443 -0.006970
vn -0.981410 0.191034 -0.018433
vn -0.982129 0.186222 -0.027285
vn -0.017740 0.206098 -0.978371
vn 0.015931 0.196521 0.980370
vn -0.259546 -0.965731 0.000266
vn -0.017069 0.196350 -0.980385
vn 0.023086 0.201025 0.979314
vn 0.272107 -0.962267 0.000485
vn -0.024447 0.201059 -0.979274
vn 0.016557 0.205820 0.978450
vn -0.099174 -0.993793 -0.050397
vn 0.003546 0.999971 0.006779
vn -0.014494 -0.999473 -0.029042
vn 0.008543 0.193311 0.981100
vn -0.009829 0.210039 -0.977644
vn 0.106205 -0.992941 0.052802
vn 0.017082 -0.999450 -0.028418
vn 0.107112 -0.992885 -0.052023
vn -0.099545 -0.993769 0.050136
vn 0.001625 0.999997 0.001625
vn -0.000035 1.000000 0.000035
vn -0.047911 -0.991548 -0.120571
vn 0.030068 -0.997515 -0.063715
vn -0.000000 -0.000000 1.000000
vn 0.030844 -0.997624 0.061605
vn 0.001441 -0.979072 -0.203510
vn 0.003075 -0.960507 -0.278239
vn 0.005660 -0.999984 -0.000278
vn 0.003003 -0.960622 0.277843
vn 0.050093 -0.991789 -0.117669
vn -0.024157 -0.997939 -0.059454
vn -0.023915 -0.997830 0.061351
vn -0.003154 0.999991 0.002902
vn -0.000603 0.999999 -0.000939
vn -0.000498 0.999998 -0.002041
vn -0.002717 0.999983 -0.005234
vn 1.000000 0.000000 0.000001
vn -1.000000 0.000000 -0.000000
vn 0.000000 0.000000 -1.000000
vn 0.000001 0.000000 -1.000000
vn -0.000001 0.000000 1.000000
vn -0.350204 -0.936674 0.000000
vn 0.936962 -0.349419 -0.002887
vn -0.936297 0.351193 -0.003455
vn 0.364134 -0.931347 0.000000
vn 0.930946 0.365135 0.003855
vn -0.931676 -0.363278 0.003023
usemtl Material
s off
f 65//1 57//1 3//1 13//1
f 40//2 21//2 7//2 41//2
f 12//3 20//3 6//3 2//3
f 57//4 41//4 7//4 3//4
f 16//5 24//5 8//5 4//5
f 31//6 49//6 4//6 8//6
f 49//7 45//7 16//7 4//7
f 45//8 61//8 15//8 16//8
f 61//9 27//9 14//9 15//9
f 27//10 65//10 13//10 14//10
f 31//11 8//11 24//11 56//11
f 56//12 24//12 23//12 26//12
f 26//12 23//12 22//12 36//12
f 36//12 22//12 21//12 40//12
f 1//13 5//13 17//13 9//13
f 9//14 17//14 18//14 10//14
f 10//15 18//15 19//15 11//15
f 11//16 19//16 20//16 12//16
f 3//17 7//17 21//17 13//17
f 13//18 21//18 22//18 14//18
f 14//19 22//19 23//19 15//19
f 15//20 23//20 24//20 16//20
f 34//21 52//21 51//21 33//21
f 60//22 44//22 43//22 59//22
f 38//12 39//12 42//12 43//12
f 67//23 59//23 58//23 66//23
f 32//24 50//24 49//24 31//24
f 59//25 43//25 42//25 58//25
f 51//26 47//26 46//26 50//26
f 33//27 51//27 50//27 32//27
f 58//28 42//28 41//28 57//28
f 66//29 58//29 57//29 65//29
f 20//30 37//30 44//30 6//30
f 12//31 2//31 60//31 68//31
f 2//32 6//32 44//32 60//32
f 5//33 1//33 52//33 34//33
f 52//34 48//34 47//34 51//34
f 1//35 9//35 48//35 52//35
f 50//36 46//36 45//36 49//36
f 68//37 60//37 59//37 67//37
f 37//38 38//38 43//38 44//38
f 39//39 40//39 41//39 42//39
f 9//40 10//40 64//40 48//40
f 48//41 64//41 63//41 47//41
f 63//42 62//42 75//42 76//42
f 46//43 62//43 61//43 45//43
f 10//44 11//44 30//44 64//44
f 64//45 30//45 29//45 63//45
f 63//46 29//46 28//46 62//46
f 62//47 28//47 27//47 61//47
f 11//48 12//48 68//48 30//48
f 30//49 68//49 67//49 29//49
f 67//42 66//42 71//42 72//42
f 28//50 66//50 65//50 27//50
f 5//51 34//51 53//51 17//51
f 34//52 33//52 54//52 53//52
f 33//53 32//53 55//53 54//53
f 32//54 31//54 56//54 55//54
f 17//12 53//12 25//12 18//12
f 35//55 25//55 77//55 81//55
f 38//42 37//42 85//42 86//42
f 56//56 26//56 80//56 92//56
f 18//12 25//12 35//12 19//12
f 55//57 56//57 92//57 91//57
f 37//55 35//55 81//55 85//55
f 53//58 54//58 90//58 89//58
f 19//12 35//12 37//12 20//12
f 26//56 36//56 84//56 80//56
f 39//59 38//59 86//59 87//59
f 25//55 53//55 89//55 77//55
f 70//60 72//60 71//60 69//60
f 29//61 67//61 72//61 70//61
f 28//57 29//57 70//57 69//57
f 66//62 28//62 69//62 71//62
f 74//63 76//63 75//63 73//63
f 47//64 63//64 76//64 74//64
f 46//57 47//57 74//57 73//57
f 62//65 46//65 73//65 75//65
f 89//12 90//12 78//12 77//12
f 90//12 91//12 79//12 78//12
f 91//12 92//12 80//12 79//12
f 77//12 78//12 82//12 81//12
f 78//12 79//12 83//12 82//12
f 79//12 80//12 84//12 83//12
f 81//12 82//12 86//12 85//12
f 82//12 83//12 87//12 86//12
f 83//12 84//12 88//12 87//12
f 54//57 55//57 91//57 90//57
f 40//59 39//59 87//59 88//59
f 36//56 40//56 88//56 84//56
