# Blender v2.67 (sub 0) OBJ File: 'essai.blend'
# www.blender.org
mtllib essai-stand_000001.mtl
o Cube
v 1.000000 2.011169 -1.000000
v 1.000000 2.011169 1.000000
v -1.000000 2.011169 1.000000
v -1.000000 2.011169 -1.000000
v 0.589455 4.011169 -0.589454
v 0.589454 4.011169 0.589455
v -0.589455 4.011169 0.589454
v -0.589455 4.011169 -0.589454
v 1.000000 2.011169 -0.600000
v 1.000000 2.011169 -0.200000
v 1.000000 2.011169 0.200000
v 1.000000 2.011169 0.600000
v -1.000000 2.011169 0.600000
v -1.000000 2.011169 0.200000
v -1.000000 2.011169 -0.200000
v -1.000000 2.011169 -0.600000
v 0.589455 4.011169 -0.353672
v 0.589455 4.011169 -0.117891
v 0.589454 4.011169 0.117891
v 0.589454 4.011169 0.353673
v -0.589455 4.011169 0.353673
v -0.589455 4.011169 0.117891
v -0.589455 4.011169 -0.117891
v -0.589455 4.011169 -0.353673
v 0.353673 4.011169 -0.117891
v -0.353673 4.011169 -0.117891
v -0.600000 2.011169 0.200000
v -0.200000 2.011169 0.200000
v 0.200000 2.011169 0.200000
v 0.600000 2.011169 0.200000
v -0.353673 4.011169 -0.589454
v -0.117891 4.011169 -0.589454
v 0.117891 4.011169 -0.589454
v 0.353673 4.011169 -0.589454
v 0.353673 4.011169 0.117891
v -0.353673 4.011169 0.117891
v 0.353672 4.011169 0.353673
v 0.117891 4.011169 0.353673
v -0.117891 4.011169 0.353673
v -0.353673 4.011169 0.353673
v -0.353673 4.011169 0.589455
v -0.117891 4.011169 0.589455
v 0.117891 4.011169 0.589455
v 0.353672 4.011169 0.589455
v -0.600000 2.011169 -0.600000
v -0.200000 2.011169 -0.600000
v 0.200000 2.011169 -0.600000
v 0.600000 2.011169 -0.600000
v -0.600000 2.011169 -1.000000
v -0.200000 2.011169 -1.000000
v 0.200000 2.011169 -1.000000
v 0.600000 2.011169 -1.000000
v 0.353673 4.011169 -0.353672
v 0.117891 4.011169 -0.353673
v -0.117891 4.011169 -0.353673
v -0.353673 4.011169 -0.353673
v -0.600000 2.011169 1.000000
v -0.200000 2.011169 1.000000
v 0.200000 2.011169 1.000000
v 0.600000 2.011169 1.000000
v -0.600000 2.011169 -0.200000
v -0.200000 2.011169 -0.200000
v 0.200000 2.011169 -0.200000
v 0.600000 2.011169 -0.200000
v -0.600000 2.011169 0.600000
v -0.200000 2.011169 0.600000
v 0.200000 2.011169 0.600000
v 0.600000 2.011169 0.600000
v -0.200000 0.011169 0.200000
v 0.200000 0.011169 0.200000
v -0.200000 0.011169 0.600000
v 0.200000 0.011169 0.600000
v -0.200000 0.011169 -0.600000
v 0.200000 0.011169 -0.600000
v -0.200000 0.011169 -0.200000
v 0.200000 0.011169 -0.200000
v 0.353673 4.511169 -0.117891
v 0.117891 4.511169 -0.117891
v -0.117891 4.511169 -0.117891
v -0.353673 4.511169 -0.117891
v 0.353673 4.511169 0.117891
v 0.117891 4.511169 0.117891
v -0.117891 4.511169 0.117891
v -0.353673 4.511169 0.117891
v 0.353672 4.511169 0.353673
v 0.117891 4.511169 0.353673
v -0.117891 4.511169 0.353673
v -0.353673 4.511169 0.353673
v 0.353673 4.511169 -0.353672
v 0.117891 4.511169 -0.353673
v -0.117891 4.511169 -0.353673
v -0.353673 4.511169 -0.353673
vn 0.000000 -1.000000 0.000000
vn 0.000000 1.000000 0.000000
vn 0.979575 0.201080 0.000000
vn -0.000000 0.201080 0.979575
vn -0.979575 0.201080 -0.000000
vn 0.000000 0.201080 -0.979575
vn -0.000000 0.000000 1.000000
vn 1.000000 0.000000 0.000001
vn -1.000000 0.000000 -0.000000
vn 0.000000 0.000000 -1.000000
vn 0.000001 0.000000 -1.000000
vn -0.000001 0.000000 1.000000
vn 1.000000 -0.000000 0.000000
usemtl Material
s off
f 65//1 57//1 3//1 13//1
f 40//2 21//2 7//2 41//2
f 12//3 20//3 6//3 2//3
f 57//4 41//4 7//4 3//4
f 16//5 24//5 8//5 4//5
f 31//6 49//6 4//6 8//6
f 49//1 45//1 16//1 4//1
f 45//1 61//1 15//1 16//1
f 61//1 27//1 14//1 15//1
f 27//1 65//1 13//1 14//1
f 31//2 8//2 24//2 56//2
f 56//2 24//2 23//2 26//2
f 26//2 23//2 22//2 36//2
f 36//2 22//2 21//2 40//2
f 1//3 5//3 17//3 9//3
f 9//3 17//3 18//3 10//3
f 10//3 18//3 19//3 11//3
f 11//3 19//3 20//3 12//3
f 3//5 7//5 21//5 13//5
f 13//5 21//5 22//5 14//5
f 14//5 22//5 23//5 15//5
f 15//5 23//5 24//5 16//5
f 34//6 52//6 51//6 33//6
f 60//4 44//4 43//4 59//4
f 38//2 39//2 42//2 43//2
f 67//1 59//1 58//1 66//1
f 32//6 50//6 49//6 31//6
f 59//4 43//4 42//4 58//4
f 51//1 47//1 46//1 50//1
f 33//6 51//6 50//6 32//6
f 58//4 42//4 41//4 57//4
f 66//1 58//1 57//1 65//1
f 20//2 37//2 44//2 6//2
f 12//1 2//1 60//1 68//1
f 2//4 6//4 44//4 60//4
f 5//6 1//6 52//6 34//6
f 52//1 48//1 47//1 51//1
f 1//1 9//1 48//1 52//1
f 50//1 46//1 45//1 49//1
f 68//1 60//1 59//1 67//1
f 37//2 38//2 43//2 44//2
f 39//2 40//2 41//2 42//2
f 9//1 10//1 64//1 48//1
f 48//1 64//1 63//1 47//1
f 63//7 62//7 75//7 76//7
f 46//1 62//1 61//1 45//1
f 10//1 11//1 30//1 64//1
f 64//1 30//1 29//1 63//1
f 63//1 29//1 28//1 62//1
f 62//1 28//1 27//1 61//1
f 11//1 12//1 68//1 30//1
f 30//1 68//1 67//1 29//1
f 67//7 66//7 71//7 72//7
f 28//1 66//1 65//1 27//1
f 5//2 34//2 53//2 17//2
f 34//2 33//2 54//2 53//2
f 33//2 32//2 55//2 54//2
f 32//2 31//2 56//2 55//2
f 17//2 53//2 25//2 18//2
f 35//8 25//8 77//8 81//8
f 38//7 37//7 85//7 86//7
f 56//9 26//9 80//9 92//9
f 18//2 25//2 35//2 19//2
f 55//10 56//10 92//10 91//10
f 37//8 35//8 81//8 85//8
f 53//11 54//11 90//11 89//11
f 19//2 35//2 37//2 20//2
f 26//9 36//9 84//9 80//9
f 39//12 38//12 86//12 87//12
f 25//8 53//8 89//8 77//8
f 70//1 72//1 71//1 69//1
f 29//13 67//13 72//13 70//13
f 28//10 29//10 70//10 69//10
f 66//9 28//9 69//9 71//9
f 74//1 76//1 75//1 73//1
f 47//13 63//13 76//13 74//13
f 46//10 47//10 74//10 73//10
f 62//9 46//9 73//9 75//9
f 89//2 90//2 78//2 77//2
f 90//2 91//2 79//2 78//2
f 91//2 92//2 80//2 79//2
f 77//2 78//2 82//2 81//2
f 78//2 79//2 83//2 82//2
f 79//2 80//2 84//2 83//2
f 81//2 82//2 86//2 85//2
f 82//2 83//2 87//2 86//2
f 83//2 84//2 88//2 87//2
f 54//10 55//10 91//10 90//10
f 40//12 39//12 87//12 88//12
f 36//9 40//9 88//9 84//9
