# Blender v2.67 (sub 0) OBJ File: ''
# www.blender.org
mtllib essai.mtl
o Cube
v 1.000013 2.015457 -1.000000
v 0.999949 2.011288 1.000000
v -1.000031 2.015319 1.000000
v -0.999966 2.011158 -1.000000
v 0.589220 4.013383 -0.589454
v 0.589547 4.013287 0.589455
v -0.589274 4.013368 0.589454
v -0.589596 4.013272 -0.589454
v 1.000006 2.014873 -0.600000
v 0.999995 2.013892 -0.200000
v 0.999979 2.012836 0.200000
v 0.999960 2.011870 0.600000
v -1.000022 2.014753 0.600000
v -1.000007 2.013800 0.200000
v -0.999991 2.012748 -0.200000
v -0.999975 2.011755 -0.600000
v 0.589455 4.013315 -0.353672
v 0.589455 4.013315 -0.117891
v 0.589454 4.013315 0.117891
v 0.589454 4.013315 0.353673
v -0.589455 4.013315 0.353673
v -0.589455 4.013315 0.117891
v -0.589455 4.013315 -0.117891
v -0.589455 4.013315 -0.353673
v 0.353673 4.013315 -0.117891
v -0.353673 4.013315 -0.117891
v -0.600029 2.014248 0.200000
v -0.200101 2.014405 0.200000
v 0.199889 2.012202 0.200000
v 0.599957 2.012370 0.200000
v -0.353766 4.013298 -0.589454
v -0.117935 4.013312 -0.589454
v 0.117840 4.013318 -0.589454
v 0.353537 4.013339 -0.589454
v 0.353673 4.013315 0.117891
v -0.353673 4.013315 0.117891
v 0.353672 4.013315 0.353673
v 0.117891 4.013315 0.353673
v -0.117891 4.013315 0.353673
v -0.353673 4.013315 0.353673
v -0.353596 4.013329 0.589455
v -0.117891 4.013315 0.589455
v 0.117891 4.013315 0.589455
v 0.353711 4.013308 0.589455
v -0.599958 2.011506 -0.600000
v -0.199917 2.012061 -0.600000
v 0.200074 2.014585 -0.600000
v 0.600026 2.015128 -0.600000
v -0.599961 2.011675 -1.000000
v -0.199957 2.012638 -1.000000
v 0.200038 2.013999 -1.000000
v 0.600024 2.014957 -1.000000
v 0.353673 4.013315 -0.353672
v 0.117891 4.013315 -0.353673
v -0.117891 4.013315 -0.353673
v -0.353673 4.013315 -0.353673
v -0.600045 2.014863 1.000000
v -0.200061 2.013959 1.000000
v 0.199934 2.012667 1.000000
v 0.599942 2.011762 1.000000
v -0.599978 2.012289 -0.200000
v -0.199927 2.012172 -0.200000
v 0.200064 2.014452 -0.200000
v 0.600008 2.014335 -0.200000
v -0.600050 2.015023 0.600000
v -0.200110 2.014521 0.600000
v 0.199883 2.012105 0.600000
v 0.599935 2.011602 0.600000
v -0.212829 0.014622 0.200000
v 0.187163 0.012079 0.200000
v -0.212829 0.014622 0.600000
v 0.187163 0.012079 0.600000
v -0.186693 0.012042 -0.600000
v 0.213298 0.014686 -0.600000
v -0.186693 0.012042 -0.200000
v 0.213298 0.014686 -0.200000
v 0.353673 4.513315 -0.117891
v 0.117891 4.513315 -0.117891
v -0.117891 4.513315 -0.117891
v -0.353673 4.513315 -0.117891
v 0.353673 4.513315 0.117891
v 0.117891 4.513315 0.117891
v -0.117891 4.513315 0.117891
v -0.353673 4.513315 0.117891
v 0.353672 4.513315 0.353673
v 0.117891 4.513315 0.353673
v -0.117891 4.513315 0.353673
v -0.353673 4.513315 0.353673
v 0.353673 4.513315 -0.353672
v 0.117891 4.513315 -0.353673
v -0.117891 4.513315 -0.353673
v -0.353673 4.513315 -0.353673
vn -0.000233 -1.000000 0.000507
vn 0.000083 1.000000 -0.000142
vn 0.979616 0.200882 0.000068
vn 0.000157 0.201224 0.979545
vn -0.979621 0.200856 0.000000
vn -0.000172 0.200927 -0.979606
vn 0.000336 -1.000000 0.000536
vn -0.000885 -0.999997 0.002218
vn -0.000014 -0.999993 0.003765
vn 0.000897 -0.999997 0.002160
vn -0.000055 1.000000 -0.000125
vn 0.000000 1.000000 0.000000
vn 0.979522 0.201338 -0.000145
vn 0.979559 0.201158 0.000328
vn 0.979575 0.201079 0.000359
vn 0.979591 0.200999 0.000335
vn -0.979528 0.201310 0.000069
vn -0.979560 0.201154 -0.000325
vn -0.979576 0.201076 -0.000359
vn -0.979592 0.200996 -0.000338
vn -0.000310 0.201167 -0.979557
vn 0.000288 0.200997 0.979592
vn -0.004635 -0.999989 0.000001
vn -0.000309 0.200994 -0.979593
vn 0.000408 0.201080 0.979575
vn 0.004857 -0.999988 0.000012
vn -0.000432 0.201080 -0.979575
vn 0.000290 0.201162 0.979558
vn -0.001758 -0.999998 -0.000903
vn 0.000044 1.000000 0.000075
vn -0.000256 -1.000000 -0.000527
vn 0.000156 0.200933 0.979605
vn -0.000172 0.201231 -0.979544
vn 0.001878 -0.999998 0.000947
vn 0.000305 -1.000000 -0.000516
vn 0.001896 -0.999998 -0.000933
vn -0.001760 -0.999998 0.000903
vn 0.000015 1.000000 0.000015
vn 0.000029 1.000000 -0.000029
vn -0.000873 -0.999997 -0.002219
vn 0.000532 -0.999999 -0.001159
vn -0.000000 -0.000000 1.000000
vn 0.000547 -0.999999 0.001118
vn 0.000029 -0.999993 -0.003776
vn 0.000063 -0.999986 -0.005268
vn 0.000097 -1.000000 -0.000021
vn 0.000050 -0.999986 0.005240
vn 0.000918 -0.999997 -0.002167
vn -0.000420 -0.999999 -0.001082
vn -0.000432 -0.999999 0.001114
vn -0.000095 1.000000 0.000196
vn -0.000045 1.000000 0.000057
vn -0.000012 1.000000 0.000000
vn -0.000029 1.000000 -0.000041
vn 1.000000 0.000000 0.000001
vn -1.000000 0.000000 -0.000000
vn 0.000000 0.000000 -1.000000
vn 0.000001 0.000000 -1.000000
vn -0.000001 0.000000 1.000000
vn -0.006357 -0.999980 0.000000
vn 0.999980 -0.006361 0.000007
vn -0.999980 0.006362 -0.000012
vn 0.006610 -0.999978 0.000000
vn 0.999978 0.006615 0.000015
vn -0.999978 -0.006614 -0.000011
usemtl Material
s off
f 65//1 57//1 3//1 13//1
f 40//2 21//2 7//2 41//2
f 12//3 20//3 6//3 2//3
f 57//4 41//4 7//4 3//4
f 16//5 24//5 8//5 4//5
f 31//6 49//6 4//6 8//6
f 49//7 45//7 16//7 4//7
f 45//8 61//8 15//8 16//8
f 61//9 27//9 14//9 15//9
f 27//10 65//10 13//10 14//10
f 31//11 8//11 24//11 56//11
f 56//12 24//12 23//12 26//12
f 26//12 23//12 22//12 36//12
f 36//12 22//12 21//12 40//12
f 1//13 5//13 17//13 9//13
f 9//14 17//14 18//14 10//14
f 10//15 18//15 19//15 11//15
f 11//16 19//16 20//16 12//16
f 3//17 7//17 21//17 13//17
f 13//18 21//18 22//18 14//18
f 14//19 22//19 23//19 15//19
f 15//20 23//20 24//20 16//20
f 34//21 52//21 51//21 33//21
f 60//22 44//22 43//22 59//22
f 38//12 39//12 42//12 43//12
f 67//23 59//23 58//23 66//23
f 32//24 50//24 49//24 31//24
f 59//25 43//25 42//25 58//25
f 51//26 47//26 46//26 50//26
f 33//27 51//27 50//27 32//27
f 58//28 42//28 41//28 57//28
f 66//29 58//29 57//29 65//29
f 20//30 37//30 44//30 6//30
f 12//31 2//31 60//31 68//31
f 2//32 6//32 44//32 60//32
f 5//33 1//33 52//33 34//33
f 52//34 48//34 47//34 51//34
f 1//35 9//35 48//35 52//35
f 50//36 46//36 45//36 49//36
f 68//37 60//37 59//37 67//37
f 37//38 38//38 43//38 44//38
f 39//39 40//39 41//39 42//39
f 9//40 10//40 64//40 48//40
f 48//41 64//41 63//41 47//41
f 63//42 62//42 75//42 76//42
f 46//43 62//43 61//43 45//43
f 10//44 11//44 30//44 64//44
f 64//45 30//45 29//45 63//45
f 63//46 29//46 28//46 62//46
f 62//47 28//47 27//47 61//47
f 11//48 12//48 68//48 30//48
f 30//49 68//49 67//49 29//49
f 67//42 66//42 71//42 72//42
f 28//50 66//50 65//50 27//50
f 5//51 34//51 53//51 17//51
f 34//52 33//52 54//52 53//52
f 33//53 32//53 55//53 54//53
f 32//54 31//54 56//54 55//54
f 17//12 53//12 25//12 18//12
f 35//55 25//55 77//55 81//55
f 38//42 37//42 85//42 86//42
f 56//56 26//56 80//56 92//56
f 18//12 25//12 35//12 19//12
f 55//57 56//57 92//57 91//57
f 37//55 35//55 81//55 85//55
f 53//58 54//58 90//58 89//58
f 19//12 35//12 37//12 20//12
f 26//56 36//56 84//56 80//56
f 39//59 38//59 86//59 87//59
f 25//55 53//55 89//55 77//55
f 70//60 72//60 71//60 69//60
f 29//61 67//61 72//61 70//61
f 28//57 29//57 70//57 69//57
f 66//62 28//62 69//62 71//62
f 74//63 76//63 75//63 73//63
f 47//64 63//64 76//64 74//64
f 46//57 47//57 74//57 73//57
f 62//65 46//65 73//65 75//65
f 89//12 90//12 78//12 77//12
f 90//12 91//12 79//12 78//12
f 91//12 92//12 80//12 79//12
f 77//12 78//12 82//12 81//12
f 78//12 79//12 83//12 82//12
f 79//12 80//12 84//12 83//12
f 81//12 82//12 86//12 85//12
f 82//12 83//12 87//12 86//12
f 83//12 84//12 88//12 87//12
f 54//57 55//57 91//57 90//57
f 40//59 39//59 87//59 88//59
f 36//56 40//56 88//56 84//56
