# Blender v2.67 (sub 0) OBJ File: ''
# www.blender.org
mtllib essai_000002.mtl
o Cube
v 0.999986 2.012332 -1.000000
v 1.000009 2.017349 1.000000
v -0.999962 2.012341 1.000000
v -0.999984 2.017350 -1.000000
v 0.589732 4.014749 -0.589454
v 0.589339 4.014865 0.589455
v -0.589678 4.014765 0.589454
v -0.589287 4.014881 -0.589454
v 0.999990 2.013025 -0.600000
v 0.999995 2.014190 -0.200000
v 1.000001 2.015460 0.200000
v 1.000006 2.016639 0.600000
v -0.999968 2.013032 0.600000
v -0.999979 2.014195 0.200000
v -0.999985 2.015463 -0.200000
v -0.999985 2.016640 -0.600000
v 0.589455 4.014832 -0.353672
v 0.589455 4.014832 -0.117891
v 0.589454 4.014832 0.117891
v 0.589454 4.014832 0.353673
v -0.589455 4.014832 0.353673
v -0.589455 4.014832 0.117891
v -0.589455 4.014832 -0.117891
v -0.589455 4.014832 -0.353673
v 0.353673 4.014832 -0.117891
v -0.353673 4.014832 -0.117891
v -0.599967 2.013656 0.200000
v -0.199939 2.013489 0.200000
v 0.200049 2.016203 0.200000
v 0.600013 2.016023 0.200000
v -0.353562 4.014851 -0.589454
v -0.117839 4.014834 -0.589454
v 0.117952 4.014828 -0.589454
v 0.353833 4.014803 -0.589454
v 0.353673 4.014832 0.117891
v -0.353673 4.014832 0.117891
v 0.353672 4.014832 0.353673
v 0.117891 4.014832 0.353673
v -0.117891 4.014832 0.353673
v -0.353673 4.014832 0.353673
v -0.353769 4.014814 0.589455
v -0.117891 4.014832 0.589455
v 0.117891 4.014832 0.589455
v 0.353625 4.014840 0.589455
v -0.599989 2.016949 -0.600000
v -0.200004 2.016311 -0.600000
v 0.199984 2.013334 -0.600000
v 0.599988 2.012709 -0.600000
v -0.599991 2.016752 -1.000000
v -0.199999 2.015627 -1.000000
v 0.199994 2.014029 -1.000000
v 0.599989 2.012908 -1.000000
v 0.353673 4.014832 -0.353672
v 0.117891 4.014832 -0.353673
v -0.117891 4.014832 -0.353673
v -0.353673 4.014832 -0.353673
v -0.599962 2.012916 1.000000
v -0.199963 2.014037 1.000000
v 0.200030 2.015632 1.000000
v 0.600018 2.016755 1.000000
v -0.599985 2.016014 -0.200000
v -0.200000 2.016176 -0.200000
v 0.199988 2.013495 -0.200000
v 0.599995 2.013658 -0.200000
v -0.599957 2.012716 0.600000
v -0.199937 2.013350 0.600000
v 0.200051 2.016320 0.600000
v 0.600020 2.016954 0.600000
v -0.184308 0.013337 0.200000
v 0.215680 0.016462 0.200000
v -0.184308 0.013337 0.600000
v 0.215680 0.016462 0.600000
v -0.215595 0.016446 -0.600000
v 0.184393 0.013327 -0.600000
v -0.215595 0.016446 -0.200000
v 0.184393 0.013327 -0.200000
v 0.353673 4.514832 -0.117891
v 0.117891 4.514832 -0.117891
v -0.117891 4.514832 -0.117891
v -0.353673 4.514832 -0.117891
v 0.353673 4.514832 0.117891
v 0.117891 4.514832 0.117891
v -0.117891 4.514832 0.117891
v -0.353673 4.514832 0.117891
v 0.353672 4.514832 0.353673
v 0.117891 4.514832 0.353673
v -0.117891 4.514832 0.353673
v -0.353673 4.514832 0.353673
v 0.353673 4.514832 -0.353672
v 0.117891 4.514832 -0.353673
v -0.117891 4.514832 -0.353673
v -0.353673 4.514832 -0.353673
vn 0.000323 -1.000000 -0.000614
vn -0.000105 1.000000 0.000178
vn 0.979528 0.201308 -0.000063
vn -0.000198 0.200903 0.979611
vn -0.979525 0.201322 -0.000019
vn 0.000199 0.201260 -0.979538
vn -0.000361 -1.000000 -0.000641
vn 0.001075 -0.999996 -0.002641
vn 0.000014 -0.999990 -0.004532
vn -0.001070 -0.999996 -0.002628
vn 0.000064 1.000000 0.000145
vn 0.000000 1.000000 0.000000
vn 0.979637 0.200778 0.000177
vn 0.979594 0.200988 -0.000377
vn 0.979575 0.201079 -0.000410
vn 0.979556 0.201169 -0.000380
vn -0.979634 0.200793 -0.000095
vn -0.979595 0.200980 0.000384
vn -0.979577 0.201071 0.000410
vn -0.979558 0.201161 0.000372
vn 0.000362 0.200979 -0.979596
vn -0.000358 0.201183 0.979554
vn 0.005707 -0.999984 -0.000000
vn 0.000361 0.201182 -0.979554
vn -0.000505 0.201080 0.979575
vn -0.005719 -0.999984 -0.000014
vn 0.000508 0.201080 -0.979575
vn -0.000360 0.200978 0.979596
vn 0.002193 -0.999997 0.001109
vn -0.000054 1.000000 -0.000090
vn 0.000350 -1.000000 0.000639
vn -0.000197 0.201261 0.979538
vn 0.000199 0.200904 -0.979611
vn -0.002182 -0.999997 -0.001118
vn -0.000325 -1.000000 0.000617
vn -0.002205 -0.999997 0.001101
vn 0.002196 -0.999997 -0.001108
vn -0.000018 1.000000 -0.000018
vn -0.000036 1.000000 0.000036
vn 0.001060 -0.999996 0.002642
vn -0.000578 -0.999999 0.001387
vn -0.000000 0.000000 1.000000
vn -0.000596 -0.999999 -0.001338
vn -0.000038 -0.999990 0.004544
vn -0.000023 -0.999980 0.006342
vn 0.000043 -1.000000 0.000027
vn -0.000007 -0.999980 -0.006307
vn -0.001097 -0.999996 0.002638
vn 0.000567 -0.999999 0.001309
vn 0.000584 -0.999999 -0.001348
vn 0.000115 1.000000 -0.000237
vn 0.000053 1.000000 -0.000069
vn 0.000014 1.000000 -0.000002
vn 0.000034 1.000000 0.000047
vn 1.000000 0.000000 0.000001
vn -1.000000 0.000000 -0.000000
vn 0.000000 0.000000 -1.000000
vn 0.000001 0.000000 -1.000000
vn -0.000001 0.000000 1.000000
vn 0.007813 -0.999969 0.000000
vn 0.999969 0.007815 -0.000004
vn -0.999969 -0.007814 0.000001
vn -0.007796 -0.999970 -0.000000
vn 0.999970 -0.007796 -0.000003
vn -0.999970 0.007797 0.000006
usemtl Material
s off
f 65//1 57//1 3//1 13//1
f 40//2 21//2 7//2 41//2
f 12//3 20//3 6//3 2//3
f 57//4 41//4 7//4 3//4
f 16//5 24//5 8//5 4//5
f 31//6 49//6 4//6 8//6
f 49//7 45//7 16//7 4//7
f 45//8 61//8 15//8 16//8
f 61//9 27//9 14//9 15//9
f 27//10 65//10 13//10 14//10
f 31//11 8//11 24//11 56//11
f 56//12 24//12 23//12 26//12
f 26//12 23//12 22//12 36//12
f 36//12 22//12 21//12 40//12
f 1//13 5//13 17//13 9//13
f 9//14 17//14 18//14 10//14
f 10//15 18//15 19//15 11//15
f 11//16 19//16 20//16 12//16
f 3//17 7//17 21//17 13//17
f 13//18 21//18 22//18 14//18
f 14//19 22//19 23//19 15//19
f 15//20 23//20 24//20 16//20
f 34//21 52//21 51//21 33//21
f 60//22 44//22 43//22 59//22
f 38//12 39//12 42//12 43//12
f 67//23 59//23 58//23 66//23
f 32//24 50//24 49//24 31//24
f 59//25 43//25 42//25 58//25
f 51//26 47//26 46//26 50//26
f 33//27 51//27 50//27 32//27
f 58//28 42//28 41//28 57//28
f 66//29 58//29 57//29 65//29
f 20//30 37//30 44//30 6//30
f 12//31 2//31 60//31 68//31
f 2//32 6//32 44//32 60//32
f 5//33 1//33 52//33 34//33
f 52//34 48//34 47//34 51//34
f 1//35 9//35 48//35 52//35
f 50//36 46//36 45//36 49//36
f 68//37 60//37 59//37 67//37
f 37//38 38//38 43//38 44//38
f 39//39 40//39 41//39 42//39
f 9//40 10//40 64//40 48//40
f 48//41 64//41 63//41 47//41
f 63//42 62//42 75//42 76//42
f 46//43 62//43 61//43 45//43
f 10//44 11//44 30//44 64//44
f 64//45 30//45 29//45 63//45
f 63//46 29//46 28//46 62//46
f 62//47 28//47 27//47 61//47
f 11//48 12//48 68//48 30//48
f 30//49 68//49 67//49 29//49
f 67//42 66//42 71//42 72//42
f 28//50 66//50 65//50 27//50
f 5//51 34//51 53//51 17//51
f 34//52 33//52 54//52 53//52
f 33//53 32//53 55//53 54//53
f 32//54 31//54 56//54 55//54
f 17//12 53//12 25//12 18//12
f 35//55 25//55 77//55 81//55
f 38//42 37//42 85//42 86//42
f 56//56 26//56 80//56 92//56
f 18//12 25//12 35//12 19//12
f 55//57 56//57 92//57 91//57
f 37//55 35//55 81//55 85//55
f 53//58 54//58 90//58 89//58
f 19//12 35//12 37//12 20//12
f 26//56 36//56 84//56 80//56
f 39//59 38//59 86//59 87//59
f 25//55 53//55 89//55 77//55
f 70//60 72//60 71//60 69//60
f 29//61 67//61 72//61 70//61
f 28//57 29//57 70//57 69//57
f 66//62 28//62 69//62 71//62
f 74//63 76//63 75//63 73//63
f 47//64 63//64 76//64 74//64
f 46//57 47//57 74//57 73//57
f 62//65 46//65 73//65 75//65
f 89//12 90//12 78//12 77//12
f 90//12 91//12 79//12 78//12
f 91//12 92//12 80//12 79//12
f 77//12 78//12 82//12 81//12
f 78//12 79//12 83//12 82//12
f 79//12 80//12 84//12 83//12
f 81//12 82//12 86//12 85//12
f 82//12 83//12 87//12 86//12
f 83//12 84//12 88//12 87//12
f 54//57 55//57 91//57 90//57
f 40//59 39//59 87//59 88//59
f 36//56 40//56 88//56 84//56
