# Blender v2.67 (sub 0) OBJ File: ''
# www.blender.org
mtllib essai_000006.mtl
o Cube
v 0.992090 2.038695 -1.000000
v 0.992601 2.154442 1.000000
v -0.991560 2.038939 1.000000
v -0.992051 2.154425 -1.000000
v 0.595688 4.093856 -0.589454
v 0.586739 4.096871 0.589455
v -0.594469 4.094337 0.589454
v -0.585487 4.097116 -0.589454
v 0.993126 2.054672 -0.600000
v 0.994833 2.081537 -0.200000
v 0.995019 2.110837 0.200000
v 0.993523 2.138052 0.600000
v -0.992670 2.054873 0.600000
v -0.994499 2.081682 0.200000
v -0.994649 2.110903 -0.200000
v -0.993042 2.138061 -0.600000
v 0.589455 4.096328 -0.353672
v 0.589455 4.096328 -0.117891
v 0.589454 4.096328 0.117891
v 0.589454 4.096328 0.353673
v -0.589455 4.096328 0.353673
v -0.589455 4.096328 0.117891
v -0.589455 4.096328 -0.117891
v -0.589455 4.096328 -0.353673
v 0.353673 4.096328 -0.117891
v -0.353673 4.096328 -0.117891
v -0.594144 2.069257 0.200000
v -0.195531 2.065463 0.200000
v 0.198038 2.128074 0.200000
v 0.595164 2.123847 0.200000
v -0.351079 4.096547 -0.589454
v -0.116686 4.096289 -0.589454
v 0.119279 4.096118 -0.589454
v 0.357318 4.095335 -0.589454
v 0.353673 4.096328 0.117891
v -0.353673 4.096328 0.117891
v 0.353672 4.096328 0.353673
v 0.117891 4.096328 0.353673
v -0.117891 4.096328 0.353673
v -0.353673 4.096328 0.353673
v -0.355843 4.095737 0.589455
v -0.117891 4.096328 0.589455
v 0.117891 4.096328 0.589455
v 0.352551 4.096424 0.589455
v -0.593981 2.145186 -0.600000
v -0.197133 2.130460 -0.600000
v 0.196643 2.061797 -0.600000
v 0.593929 2.047389 -0.600000
v -0.594674 2.140644 -1.000000
v -0.198050 2.114691 -1.000000
v 0.197913 2.077833 -1.000000
v 0.594617 2.051974 -1.000000
v 0.353673 4.096328 -0.353672
v 0.117891 4.096328 -0.353673
v -0.117891 4.096328 -0.353673
v -0.353673 4.096328 -0.353673
v -0.594008 2.052209 1.000000
v -0.197218 2.078061 1.000000
v 0.198744 2.114860 1.000000
v 0.595288 2.140731 1.000000
v -0.594542 2.123620 -0.200000
v -0.196942 2.127349 -0.200000
v 0.196663 2.065526 -0.200000
v 0.594740 2.069268 -0.200000
v -0.593240 2.047599 0.600000
v -0.195573 2.062270 0.600000
v 0.198200 2.130754 0.600000
v 0.594673 2.145333 0.600000
v 0.165031 0.093294 0.200000
v 0.558483 0.165370 0.200000
v 0.165031 0.093294 0.600000
v 0.558483 0.165370 0.600000
v -0.556566 0.164754 -0.600000
v -0.163084 0.092839 -0.600000
v -0.556566 0.164754 -0.200000
v -0.163084 0.092839 -0.200000
v 0.353673 4.596328 -0.117891
v 0.117891 4.596328 -0.117891
v -0.117891 4.596328 -0.117891
v -0.353673 4.596328 -0.117891
v 0.353673 4.596328 0.117891
v 0.117891 4.596328 0.117891
v -0.117891 4.596328 0.117891
v -0.353673 4.596328 0.117891
v 0.353672 4.596328 0.353673
v 0.117891 4.596328 0.353673
v -0.117891 4.596328 0.353673
v -0.353673 4.596328 0.353673
v 0.353673 4.596328 -0.353672
v 0.117891 4.596328 -0.353673
v -0.117891 4.596328 -0.353673
v -0.353673 4.596328 -0.353673
vn 0.007523 -0.999871 -0.014156
vn -0.002950 0.999981 0.005431
vn 0.979110 0.203331 0.000187
vn -0.004545 0.197092 0.980375
vn -0.979034 0.203686 -0.002141
vn 0.004664 0.205344 -0.978679
vn -0.008356 -0.999856 -0.014778
vn 0.024776 -0.997848 -0.060708
vn 0.000364 -0.994586 -0.103914
vn -0.024577 -0.997873 -0.060371
vn 0.001209 0.999997 0.002152
vn 0.000000 1.000000 0.000000
vn 0.981531 0.191288 0.002474
vn 0.980456 0.196435 -0.010932
vn 0.980021 0.198671 -0.009442
vn 0.979654 0.200594 -0.006282
vn -0.981468 0.191626 -0.000625
vn -0.980485 0.196280 0.011097
vn -0.980053 0.198516 0.009355
vn -0.979693 0.200411 0.006084
vn 0.008343 0.198765 -0.980012
vn -0.008371 0.203490 0.979041
vn 0.132145 -0.991230 0.000054
vn 0.008451 0.203464 -0.979046
vn -0.011713 0.201075 0.979506
vn -0.132439 -0.991191 -0.000389
vn 0.011782 0.201064 -0.979507
vn -0.008280 0.198757 0.980014
vn 0.050923 -0.998374 0.025613
vn -0.000952 0.999999 -0.001363
vn 0.008076 -0.999859 0.014736
vn -0.004605 0.205379 0.978672
vn 0.004575 0.197113 -0.980370
vn -0.050633 -0.998383 -0.025859
vn -0.007525 -0.999870 0.014241
vn -0.051184 -0.998365 0.025452
vn 0.050924 -0.998373 -0.025652
vn -0.000204 1.000000 -0.000204
vn -0.001248 0.999998 0.001248
vn 0.024408 -0.997856 0.060723
vn -0.013402 -0.999398 0.032007
vn -0.000000 0.000000 1.000000
vn -0.013834 -0.999429 -0.030836
vn -0.000922 -0.994548 0.104277
vn -0.000604 -0.989451 0.144864
vn 0.001002 -0.999999 0.000823
vn -0.000081 -0.989607 -0.143800
vn -0.025349 -0.997835 0.060682
vn 0.013036 -0.999459 0.030196
vn 0.013651 -0.999424 -0.031061
vn 0.003119 0.999969 -0.007282
vn 0.001653 0.999995 -0.002532
vn 0.000362 1.000000 -0.000524
vn 0.000549 1.000000 0.000388
vn 1.000000 0.000000 0.000001
vn -1.000000 0.000000 -0.000000
vn 0.000000 0.000000 -1.000000
vn 0.000001 0.000000 -1.000000
vn -0.000001 0.000000 1.000000
vn 0.180190 -0.983632 0.000000
vn 0.983581 0.180468 -0.000803
vn -0.983667 -0.179995 -0.000771
vn -0.179788 -0.983705 0.000000
vn 0.983746 -0.179564 0.000812
vn -0.983656 0.180053 0.000935
usemtl Material
s off
f 65//1 57//1 3//1 13//1
f 40//2 21//2 7//2 41//2
f 12//3 20//3 6//3 2//3
f 57//4 41//4 7//4 3//4
f 16//5 24//5 8//5 4//5
f 31//6 49//6 4//6 8//6
f 49//7 45//7 16//7 4//7
f 45//8 61//8 15//8 16//8
f 61//9 27//9 14//9 15//9
f 27//10 65//10 13//10 14//10
f 31//11 8//11 24//11 56//11
f 56//12 24//12 23//12 26//12
f 26//12 23//12 22//12 36//12
f 36//12 22//12 21//12 40//12
f 1//13 5//13 17//13 9//13
f 9//14 17//14 18//14 10//14
f 10//15 18//15 19//15 11//15
f 11//16 19//16 20//16 12//16
f 3//17 7//17 21//17 13//17
f 13//18 21//18 22//18 14//18
f 14//19 22//19 23//19 15//19
f 15//20 23//20 24//20 16//20
f 34//21 52//21 51//21 33//21
f 60//22 44//22 43//22 59//22
f 38//12 39//12 42//12 43//12
f 67//23 59//23 58//23 66//23
f 32//24 50//24 49//24 31//24
f 59//25 43//25 42//25 58//25
f 51//26 47//26 46//26 50//26
f 33//27 51//27 50//27 32//27
f 58//28 42//28 41//28 57//28
f 66//29 58//29 57//29 65//29
f 20//30 37//30 44//30 6//30
f 12//31 2//31 60//31 68//31
f 2//32 6//32 44//32 60//32
f 5//33 1//33 52//33 34//33
f 52//34 48//34 47//34 51//34
f 1//35 9//35 48//35 52//35
f 50//36 46//36 45//36 49//36
f 68//37 60//37 59//37 67//37
f 37//38 38//38 43//38 44//38
f 39//39 40//39 41//39 42//39
f 9//40 10//40 64//40 48//40
f 48//41 64//41 63//41 47//41
f 63//42 62//42 75//42 76//42
f 46//43 62//43 61//43 45//43
f 10//44 11//44 30//44 64//44
f 64//45 30//45 29//45 63//45
f 63//46 29//46 28//46 62//46
f 62//47 28//47 27//47 61//47
f 11//48 12//48 68//48 30//48
f 30//49 68//49 67//49 29//49
f 67//42 66//42 71//42 72//42
f 28//50 66//50 65//50 27//50
f 5//51 34//51 53//51 17//51
f 34//52 33//52 54//52 53//52
f 33//53 32//53 55//53 54//53
f 32//54 31//54 56//54 55//54
f 17//12 53//12 25//12 18//12
f 35//55 25//55 77//55 81//55
f 38//42 37//42 85//42 86//42
f 56//56 26//56 80//56 92//56
f 18//12 25//12 35//12 19//12
f 55//57 56//57 92//57 91//57
f 37//55 35//55 81//55 85//55
f 53//58 54//58 90//58 89//58
f 19//12 35//12 37//12 20//12
f 26//56 36//56 84//56 80//56
f 39//59 38//59 86//59 87//59
f 25//55 53//55 89//55 77//55
f 70//60 72//60 71//60 69//60
f 29//61 67//61 72//61 70//61
f 28//57 29//57 70//57 69//57
f 66//62 28//62 69//62 71//62
f 74//63 76//63 75//63 73//63
f 47//64 63//64 76//64 74//64
f 46//57 47//57 74//57 73//57
f 62//65 46//65 73//65 75//65
f 89//12 90//12 78//12 77//12
f 90//12 91//12 79//12 78//12
f 91//12 92//12 80//12 79//12
f 77//12 78//12 82//12 81//12
f 78//12 79//12 83//12 82//12
f 79//12 80//12 84//12 83//12
f 81//12 82//12 86//12 85//12
f 82//12 83//12 87//12 86//12
f 83//12 84//12 88//12 87//12
f 54//57 55//57 91//57 90//57
f 40//59 39//59 87//59 88//59
f 36//56 40//56 88//56 84//56
