# Blender v2.67 (sub 0) OBJ File: ''
# www.blender.org
mtllib essai_000020.mtl
o Cube
v 0.988415 1.990400 -1.000000
v 0.988762 2.131010 1.000000
v -0.987497 1.988867 1.000000
v -0.988363 2.129136 -1.000000
v 0.596918 4.056358 -0.589454
v 0.586107 4.060078 0.589455
v -0.595560 4.056909 0.589454
v -0.584651 4.060341 -0.589454
v 0.989902 2.009691 -0.600000
v 0.992350 2.042133 -0.200000
v 0.992522 2.077721 0.200000
v 0.990196 2.110978 0.600000
v -0.989152 2.008336 0.600000
v -0.991879 2.041088 0.200000
v -0.992136 2.076582 -0.200000
v -0.989802 2.109377 -0.600000
v 0.589455 4.059481 -0.353672
v 0.589455 4.059481 -0.117891
v 0.589454 4.059481 0.117891
v 0.589454 4.059481 0.353673
v -0.589455 4.059481 0.353673
v -0.589455 4.059481 0.117891
v -0.589455 4.059481 -0.117891
v -0.589455 4.059481 -0.353673
v 0.353673 4.059481 -0.117891
v -0.353673 4.059481 -0.117891
v -0.591392 2.025993 0.200000
v -0.193629 2.021651 0.200000
v 0.196692 2.098454 0.200000
v 0.592638 2.093546 0.200000
v -0.350539 4.059687 -0.589454
v -0.116438 4.059407 -0.589454
v 0.119561 4.059196 -0.589454
v 0.358047 4.058201 -0.589454
v 0.353673 4.059481 0.117891
v -0.353673 4.059481 0.117891
v 0.353672 4.059481 0.353673
v 0.117891 4.059481 0.353673
v -0.117891 4.059481 0.353673
v -0.353673 4.059481 0.353673
v -0.356322 4.058700 0.589455
v -0.117891 4.059481 0.589455
v 0.117891 4.059481 0.589455
v 0.352293 4.059570 0.589455
v -0.591192 2.118135 -0.600000
v -0.195771 2.100587 -0.600000
v 0.195170 2.017904 -0.600000
v 0.591127 2.000744 -0.600000
v -0.592206 2.112696 -1.000000
v -0.197137 2.081558 -1.000000
v 0.196970 2.037255 -1.000000
v 0.592137 2.006232 -1.000000
v 0.353673 4.059481 -0.353672
v 0.117891 4.059481 -0.353673
v -0.117891 4.059481 -0.353673
v -0.353673 4.059481 -0.353673
v -0.591183 2.005286 1.000000
v -0.196032 2.037079 1.000000
v 0.197899 2.082248 1.000000
v 0.592749 2.114058 1.000000
v -0.592004 2.092018 -0.200000
v -0.195504 2.096798 -0.200000
v 0.195167 2.022446 -0.200000
v 0.592245 2.027243 -0.200000
v -0.590054 1.999608 0.600000
v -0.193700 2.017785 0.600000
v 0.196915 2.101695 0.600000
v 0.591808 2.119730 0.600000
v 0.248179 0.065042 0.200000
v 0.638308 0.153354 0.200000
v 0.248179 0.065042 0.600000
v 0.638308 0.153354 0.600000
v -0.628553 0.150073 -0.600000
v -0.238039 0.063475 -0.600000
v -0.628553 0.150073 -0.200000
v -0.238039 0.063475 -0.200000
v 0.353673 4.559481 -0.117891
v 0.117891 4.559481 -0.117891
v -0.117891 4.559481 -0.117891
v -0.353673 4.559481 -0.117891
v 0.353673 4.559481 0.117891
v 0.117891 4.559481 0.117891
v -0.117891 4.559481 0.117891
v -0.353673 4.559481 0.117891
v 0.353672 4.559481 0.353673
v 0.117891 4.559481 0.353673
v -0.117891 4.559481 0.353673
v -0.353673 4.559481 0.353673
v 0.353673 4.559481 -0.353672
v 0.117891 4.559481 -0.353673
v -0.117891 4.559481 -0.353673
v -0.353673 4.559481 -0.353673
vn 0.009668 -0.999805 -0.017241
vn -0.003769 0.999968 0.007039
vn 0.979177 0.203008 0.000776
vn -0.005622 0.196203 0.980547
vn -0.979103 0.203344 -0.003020
vn 0.005594 0.206234 -0.978487
vn -0.009664 -0.999793 -0.017901
vn 0.030194 -0.996854 -0.073288
vn 0.000422 -0.992044 -0.125890
vn -0.029700 -0.996850 -0.073538
vn 0.001393 0.999996 0.002285
vn 0.000000 1.000000 0.000000
vn 0.982060 0.188554 0.002583
vn 0.980742 0.194825 -0.013718
vn 0.980227 0.197551 -0.011323
vn 0.979810 0.199815 -0.006866
vn -0.982039 0.188677 -0.000333
vn -0.980806 0.194469 0.014225
vn -0.980288 0.197245 0.011407
vn -0.979873 0.199508 0.006694
vn 0.010020 0.198302 -0.980090
vn -0.010344 0.204055 0.978905
vn 0.162346 -0.986734 0.000085
vn 0.010185 0.203959 -0.978926
vn -0.014423 0.201070 0.979471
vn -0.159680 -0.987169 -0.000483
vn 0.014204 0.201059 -0.979476
vn -0.010192 0.198229 0.980103
vn 0.062976 -0.997521 0.031410
vn -0.001082 0.999998 -0.001467
vn 0.010320 -0.999786 0.017952
vn -0.005722 0.206401 0.978451
vn 0.005464 0.196340 -0.980521
vn -0.060763 -0.997665 -0.031190
vn -0.008657 -0.999814 0.017255
vn -0.061444 -0.997638 0.030696
vn 0.062958 -0.997520 -0.031473
vn -0.000190 1.000000 -0.000190
vn -0.001647 0.999997 0.001647
vn 0.029745 -0.996865 0.073313
vn -0.015576 -0.999126 0.038789
vn -0.000000 0.000000 1.000000
vn -0.016109 -0.999172 -0.037361
vn -0.001159 -0.991986 0.126342
vn -0.000138 -0.984544 0.175140
vn 0.003138 -0.999995 0.001063
vn 0.000543 -0.984784 -0.173782
vn -0.030689 -0.996790 0.073943
vn 0.016584 -0.999186 0.036764
vn 0.017406 -0.999133 -0.037809
vn 0.003883 0.999950 -0.009238
vn 0.002099 0.999992 -0.003290
vn 0.000446 1.000000 -0.000756
vn 0.000596 1.000000 0.000286
vn 1.000000 0.000000 0.000001
vn -1.000000 0.000000 -0.000000
vn 0.000000 0.000000 -1.000000
vn 0.000001 0.000000 -1.000000
vn -0.000001 0.000000 1.000000
vn 0.220781 -0.975323 0.000000
vn 0.975233 0.221177 -0.001168
vn -0.975390 -0.220481 -0.001151
vn -0.216497 -0.976283 0.000000
vn 0.976357 -0.216163 0.001231
vn -0.976198 0.216877 0.001353
usemtl Material
s off
f 65//1 57//1 3//1 13//1
f 40//2 21//2 7//2 41//2
f 12//3 20//3 6//3 2//3
f 57//4 41//4 7//4 3//4
f 16//5 24//5 8//5 4//5
f 31//6 49//6 4//6 8//6
f 49//7 45//7 16//7 4//7
f 45//8 61//8 15//8 16//8
f 61//9 27//9 14//9 15//9
f 27//10 65//10 13//10 14//10
f 31//11 8//11 24//11 56//11
f 56//12 24//12 23//12 26//12
f 26//12 23//12 22//12 36//12
f 36//12 22//12 21//12 40//12
f 1//13 5//13 17//13 9//13
f 9//14 17//14 18//14 10//14
f 10//15 18//15 19//15 11//15
f 11//16 19//16 20//16 12//16
f 3//17 7//17 21//17 13//17
f 13//18 21//18 22//18 14//18
f 14//19 22//19 23//19 15//19
f 15//20 23//20 24//20 16//20
f 34//21 52//21 51//21 33//21
f 60//22 44//22 43//22 59//22
f 38//12 39//12 42//12 43//12
f 67//23 59//23 58//23 66//23
f 32//24 50//24 49//24 31//24
f 59//25 43//25 42//25 58//25
f 51//26 47//26 46//26 50//26
f 33//27 51//27 50//27 32//27
f 58//28 42//28 41//28 57//28
f 66//29 58//29 57//29 65//29
f 20//30 37//30 44//30 6//30
f 12//31 2//31 60//31 68//31
f 2//32 6//32 44//32 60//32
f 5//33 1//33 52//33 34//33
f 52//34 48//34 47//34 51//34
f 1//35 9//35 48//35 52//35
f 50//36 46//36 45//36 49//36
f 68//37 60//37 59//37 67//37
f 37//38 38//38 43//38 44//38
f 39//39 40//39 41//39 42//39
f 9//40 10//40 64//40 48//40
f 48//41 64//41 63//41 47//41
f 63//42 62//42 75//42 76//42
f 46//43 62//43 61//43 45//43
f 10//44 11//44 30//44 64//44
f 64//45 30//45 29//45 63//45
f 63//46 29//46 28//46 62//46
f 62//47 28//47 27//47 61//47
f 11//48 12//48 68//48 30//48
f 30//49 68//49 67//49 29//49
f 67//42 66//42 71//42 72//42
f 28//50 66//50 65//50 27//50
f 5//51 34//51 53//51 17//51
f 34//52 33//52 54//52 53//52
f 33//53 32//53 55//53 54//53
f 32//54 31//54 56//54 55//54
f 17//12 53//12 25//12 18//12
f 35//55 25//55 77//55 81//55
f 38//42 37//42 85//42 86//42
f 56//56 26//56 80//56 92//56
f 18//12 25//12 35//12 19//12
f 55//57 56//57 92//57 91//57
f 37//55 35//55 81//55 85//55
f 53//58 54//58 90//58 89//58
f 19//12 35//12 37//12 20//12
f 26//56 36//56 84//56 80//56
f 39//59 38//59 86//59 87//59
f 25//55 53//55 89//55 77//55
f 70//60 72//60 71//60 69//60
f 29//61 67//61 72//61 70//61
f 28//57 29//57 70//57 69//57
f 66//62 28//62 69//62 71//62
f 74//63 76//63 75//63 73//63
f 47//64 63//64 76//64 74//64
f 46//57 47//57 74//57 73//57
f 62//65 46//65 73//65 75//65
f 89//12 90//12 78//12 77//12
f 90//12 91//12 79//12 78//12
f 91//12 92//12 80//12 79//12
f 77//12 78//12 82//12 81//12
f 78//12 79//12 83//12 82//12
f 79//12 80//12 84//12 83//12
f 81//12 82//12 86//12 85//12
f 82//12 83//12 87//12 86//12
f 83//12 84//12 88//12 87//12
f 54//57 55//57 91//57 90//57
f 40//59 39//59 87//59 88//59
f 36//56 40//56 88//56 84//56
