# Blender v2.67 (sub 0) OBJ File: ''
# www.blender.org
mtllib essai_000031.mtl
o Cube
v 0.971881 2.312963 -1.000000
v 0.972514 2.100627 1.000000
v -0.974568 2.305726 1.000000
v -0.971918 2.093512 -1.000000
v 0.576824 4.205026 -0.589454
v 0.593969 4.201368 0.589455
v -0.579745 4.204761 0.589454
v -0.596333 4.200171 -0.589454
v 0.975475 2.283191 -0.600000
v 0.981390 2.233146 -0.200000
v 0.981755 2.179368 0.200000
v 0.976037 2.130217 0.600000
v -0.977605 2.276866 0.600000
v -0.982586 2.228292 0.200000
v -0.981999 2.174606 -0.200000
v -0.975754 2.124009 -0.600000
v 0.589455 4.203565 -0.353672
v 0.589455 4.203565 -0.117891
v 0.589454 4.203565 0.117891
v 0.589454 4.203565 0.353673
v -0.589455 4.203565 0.353673
v -0.589455 4.203565 0.117891
v -0.589455 4.203565 -0.117891
v -0.589455 4.203565 -0.353673
v 0.353673 4.203565 -0.117891
v -0.353673 4.203565 -0.117891
v -0.582934 2.251194 0.200000
v -0.191685 2.259429 0.200000
v 0.186998 2.147309 0.200000
v 0.581019 2.155669 0.200000
v -0.358315 4.201887 -0.589454
v -0.120116 4.203043 -0.589454
v 0.115246 4.203266 -0.589454
v 0.346510 4.203590 -0.589454
v 0.353673 4.203565 0.117891
v -0.353673 4.203565 0.117891
v 0.353672 4.203565 0.353673
v 0.117891 4.203565 0.353673
v -0.117891 4.203565 0.353673
v -0.353673 4.203565 0.353673
v -0.349594 4.203608 0.589455
v -0.117891 4.203565 0.589455
v 0.117891 4.203565 0.589455
v 0.355596 4.202883 0.589455
v -0.578528 2.111324 -0.600000
v -0.188462 2.139650 -0.600000
v 0.189165 2.268451 -0.600000
v 0.578496 2.296196 -0.600000
v -0.580944 2.119951 -1.000000
v -0.192712 2.169067 -1.000000
v 0.192882 2.238513 -1.000000
v 0.580961 2.287456 -1.000000
v 0.353673 4.203565 -0.353672
v 0.117891 4.203565 -0.353673
v -0.117891 4.203565 -0.353673
v -0.353673 4.203565 -0.353673
v -0.583378 2.282534 1.000000
v -0.194716 2.236589 1.000000
v 0.191906 2.170800 1.000000
v 0.581018 2.124712 1.000000
v -0.581401 2.151248 -0.200000
v -0.188314 2.145351 -0.200000
v 0.188780 2.261673 -0.200000
v 0.580943 2.255749 -0.200000
v -0.581194 2.290731 0.600000
v -0.192166 2.265346 0.600000
v 0.187389 2.142341 0.600000
v 0.578572 2.116604 0.600000
v -0.839046 0.376089 0.200000
v -0.460573 0.246634 0.200000
v -0.839046 0.376089 0.600000
v -0.460573 0.246634 0.600000
v 0.486619 0.253629 -0.600000
v 0.863185 0.388530 -0.600000
v 0.486619 0.253629 -0.200000
v 0.863184 0.388530 -0.200000
v 0.353673 4.703565 -0.117891
v 0.117891 4.703565 -0.117891
v -0.117891 4.703565 -0.117891
v -0.353673 4.703565 -0.117891
v 0.353673 4.703565 0.117891
v 0.117891 4.703565 0.117891
v -0.117891 4.703565 0.117891
v -0.353673 4.703565 0.117891
v 0.353672 4.703565 0.353673
v 0.117891 4.703565 0.353673
v -0.117891 4.703565 0.353673
v -0.353673 4.703565 0.353673
v 0.353673 4.703565 -0.353672
v 0.117891 4.703565 -0.353673
v -0.117891 4.703565 -0.353673
v -0.353673 4.703565 -0.353673
vn -0.011837 -0.999596 0.025830
vn 0.002474 0.999993 -0.002698
vn 0.983373 0.181442 0.007538
vn 0.008182 0.208846 0.977914
vn -0.983692 0.179796 -0.004877
vn -0.008664 0.193553 -0.981052
vn 0.017441 -0.999474 0.027355
vn -0.044848 -0.992716 0.111816
vn -0.000560 -0.982055 0.188592
vn 0.045863 -0.992985 0.108981
vn -0.003623 0.999937 -0.010668
vn 0.000000 1.000000 0.000000
vn 0.979030 0.203165 -0.015004
vn 0.980673 0.195554 0.006269
vn 0.981147 0.192622 0.015730
vn 0.981794 0.188501 0.023404
vn -0.979302 0.202154 0.010078
vn -0.980630 0.195737 -0.007271
vn -0.981145 0.192512 -0.017162
vn -0.981843 0.188094 -0.024613
vn -0.016363 0.205704 -0.978477
vn 0.014690 0.196872 0.980319
vn -0.239255 -0.970957 0.000227
vn -0.015786 0.196702 -0.980336
vn 0.021249 0.201033 0.979354
vn 0.251407 -0.967881 0.000463
vn -0.022558 0.201063 -0.979319
vn 0.015229 0.205437 0.978552
vn -0.091237 -0.994743 -0.046490
vn 0.003194 0.999977 0.006062
vn -0.013267 -0.999551 -0.026859
vn 0.007880 0.193888 0.980992
vn -0.009078 0.209325 -0.977804
vn 0.098051 -0.993983 0.048814
vn 0.015861 -0.999528 -0.026300
vn 0.098899 -0.993935 -0.048091
vn -0.091562 -0.994724 0.046264
vn 0.001441 0.999998 0.001441
vn 0.000092 1.000000 -0.000092
vn -0.044328 -0.992738 -0.111831
vn 0.027862 -0.997870 -0.058978
vn -0.000000 -0.000000 1.000000
vn 0.028582 -0.997964 0.057012
vn 0.001344 -0.982003 -0.188861
vn 0.002992 -0.965898 -0.258906
vn 0.005561 -0.999985 -0.000322
vn 0.002880 -0.966019 0.258456
vn 0.046416 -0.992955 -0.109019
vn -0.022091 -0.998242 -0.055002
vn -0.021939 -0.998147 0.056747
vn -0.003080 0.999990 0.003281
vn -0.000695 1.000000 -0.000567
vn -0.000473 0.999998 -0.001737
vn -0.002439 0.999986 -0.004630
vn 1.000000 0.000000 0.000001
vn -1.000000 0.000000 -0.000000
vn 0.000000 0.000000 -1.000000
vn 0.000001 0.000000 -1.000000
vn -0.000001 0.000000 1.000000
vn -0.323637 -0.946181 -0.000000
vn 0.946407 -0.322966 -0.002468
vn -0.945882 0.324498 -0.002969
vn 0.337253 -0.941414 0.000000
vn 0.941096 0.338123 0.003319
vn -0.941674 -0.336516 0.002573
usemtl Material
s off
f 65//1 57//1 3//1 13//1
f 40//2 21//2 7//2 41//2
f 12//3 20//3 6//3 2//3
f 57//4 41//4 7//4 3//4
f 16//5 24//5 8//5 4//5
f 31//6 49//6 4//6 8//6
f 49//7 45//7 16//7 4//7
f 45//8 61//8 15//8 16//8
f 61//9 27//9 14//9 15//9
f 27//10 65//10 13//10 14//10
f 31//11 8//11 24//11 56//11
f 56//12 24//12 23//12 26//12
f 26//12 23//12 22//12 36//12
f 36//12 22//12 21//12 40//12
f 1//13 5//13 17//13 9//13
f 9//14 17//14 18//14 10//14
f 10//15 18//15 19//15 11//15
f 11//16 19//16 20//16 12//16
f 3//17 7//17 21//17 13//17
f 13//18 21//18 22//18 14//18
f 14//19 22//19 23//19 15//19
f 15//20 23//20 24//20 16//20
f 34//21 52//21 51//21 33//21
f 60//22 44//22 43//22 59//22
f 38//12 39//12 42//12 43//12
f 67//23 59//23 58//23 66//23
f 32//24 50//24 49//24 31//24
f 59//25 43//25 42//25 58//25
f 51//26 47//26 46//26 50//26
f 33//27 51//27 50//27 32//27
f 58//28 42//28 41//28 57//28
f 66//29 58//29 57//29 65//29
f 20//30 37//30 44//30 6//30
f 12//31 2//31 60//31 68//31
f 2//32 6//32 44//32 60//32
f 5//33 1//33 52//33 34//33
f 52//34 48//34 47//34 51//34
f 1//35 9//35 48//35 52//35
f 50//36 46//36 45//36 49//36
f 68//37 60//37 59//37 67//37
f 37//38 38//38 43//38 44//38
f 39//39 40//39 41//39 42//39
f 9//40 10//40 64//40 48//40
f 48//41 64//41 63//41 47//41
f 63//42 62//42 75//42 76//42
f 46//43 62//43 61//43 45//43
f 10//44 11//44 30//44 64//44
f 64//45 30//45 29//45 63//45
f 63//46 29//46 28//46 62//46
f 62//47 28//47 27//47 61//47
f 11//48 12//48 68//48 30//48
f 30//49 68//49 67//49 29//49
f 67//42 66//42 71//42 72//42
f 28//50 66//50 65//50 27//50
f 5//51 34//51 53//51 17//51
f 34//52 33//52 54//52 53//52
f 33//53 32//53 55//53 54//53
f 32//54 31//54 56//54 55//54
f 17//12 53//12 25//12 18//12
f 35//55 25//55 77//55 81//55
f 38//42 37//42 85//42 86//42
f 56//56 26//56 80//56 92//56
f 18//12 25//12 35//12 19//12
f 55//57 56//57 92//57 91//57
f 37//55 35//55 81//55 85//55
f 53//58 54//58 90//58 89//58
f 19//12 35//12 37//12 20//12
f 26//56 36//56 84//56 80//56
f 39//59 38//59 86//59 87//59
f 25//55 53//55 89//55 77//55
f 70//60 72//60 71//60 69//60
f 29//61 67//61 72//61 70//61
f 28//57 29//57 70//57 69//57
f 66//62 28//62 69//62 71//62
f 74//63 76//63 75//63 73//63
f 47//64 63//64 76//64 74//64
f 46//57 47//57 74//57 73//57
f 62//65 46//65 73//65 75//65
f 89//12 90//12 78//12 77//12
f 90//12 91//12 79//12 78//12
f 91//12 92//12 80//12 79//12
f 77//12 78//12 82//12 81//12
f 78//12 79//12 83//12 82//12
f 79//12 80//12 84//12 83//12
f 81//12 82//12 86//12 85//12
f 82//12 83//12 87//12 86//12
f 83//12 84//12 88//12 87//12
f 54//57 55//57 91//57 90//57
f 40//59 39//59 87//59 88//59
f 36//56 40//56 88//56 84//56
