# Blender v2.67 (sub 0) OBJ File: ''
# www.blender.org
mtllib essai_000023.mtl
o Cube
v 0.999206 1.996814 -1.000000
v 0.999248 2.035291 1.000000
v -0.998871 1.993424 1.000000
v -0.999185 2.031819 -1.000000
v 0.591441 4.013596 -0.589454
v 0.588514 4.014490 0.589455
v -0.591253 4.013649 0.589454
v -0.588236 4.014565 -0.589454
v 0.999309 2.001907 -0.600000
v 0.999479 2.010478 -0.200000
v 0.999496 2.020206 0.200000
v 0.999342 2.029618 0.600000
v -0.999038 1.998943 0.600000
v -0.999314 2.008220 0.200000
v -0.999397 2.017940 -0.200000
v -0.999267 2.026604 -0.600000
v 0.589455 4.014244 -0.353672
v 0.589455 4.014244 -0.117891
v 0.589454 4.014244 0.117891
v 0.589454 4.014244 0.353673
v -0.589455 4.014244 0.353673
v -0.589455 4.014244 0.117891
v -0.589455 4.014244 -0.117891
v -0.589455 4.014244 -0.353673
v 0.353673 4.014244 -0.117891
v -0.353673 4.014244 -0.117891
v -0.599196 2.004065 0.200000
v -0.199163 2.003257 0.200000
v 0.200056 2.025482 0.200000
v 0.599562 2.024553 0.200000
v -0.352871 4.014362 -0.589454
v -0.117516 4.014255 -0.589454
v 0.118327 4.014205 -0.589454
v 0.354825 4.014006 -0.589454
v 0.353673 4.014244 0.117891
v -0.353673 4.014244 0.117891
v 0.353672 4.014244 0.353673
v 0.117891 4.014244 0.353673
v -0.117891 4.014244 0.353673
v -0.353673 4.014244 0.353673
v -0.354446 4.014081 0.589455
v -0.117891 4.014244 0.589455
v 0.117891 4.014244 0.589455
v 0.353281 4.014300 0.589455
v -0.599393 2.029163 -0.600000
v -0.199770 2.024910 -0.600000
v 0.199626 2.003444 -0.600000
v 0.599392 1.999294 -0.600000
v -0.599466 2.027803 -1.000000
v -0.199816 2.019905 -1.000000
v 0.199783 2.008534 -1.000000
v 0.599460 2.000667 -1.000000
v 0.353673 4.014244 -0.353672
v 0.117891 4.014244 -0.353673
v -0.117891 4.014244 -0.353673
v -0.353673 4.014244 -0.353673
v -0.599130 1.998393 1.000000
v -0.199485 2.007715 1.000000
v 0.200027 2.020833 1.000000
v 0.599585 2.030165 1.000000
v -0.599401 2.022141 -0.200000
v -0.199724 2.023852 -0.200000
v 0.199647 2.004699 -0.200000
v 0.599484 2.006417 -0.200000
v -0.599022 1.996707 0.600000
v -0.199152 2.002216 0.600000
v 0.200080 2.026346 0.600000
v 0.599531 2.031845 0.600000
v -0.072132 0.005646 0.200000
v 0.327061 0.031042 0.200000
v -0.072132 0.005646 0.600000
v 0.327061 0.031042 0.600000
v -0.312173 0.028605 -0.600000
v 0.087194 0.006122 -0.600000
v -0.312173 0.028605 -0.200000
v 0.087194 0.006122 -0.200000
v 0.353673 4.514244 -0.117891
v 0.117891 4.514244 -0.117891
v -0.117891 4.514244 -0.117891
v -0.353673 4.514244 -0.117891
v 0.353673 4.514244 0.117891
v 0.117891 4.514244 0.117891
v -0.117891 4.514244 0.117891
v -0.353673 4.514244 0.117891
v 0.353672 4.514244 0.353673
v 0.117891 4.514244 0.353673
v -0.117891 4.514244 0.353673
v -0.353673 4.514244 0.353673
v 0.353673 4.514244 -0.353672
v 0.117891 4.514244 -0.353673
v -0.117891 4.514244 -0.353673
v -0.353673 4.514244 -0.353673
vn 0.003418 -0.999983 -0.004791
vn -0.000913 0.999998 0.001600
vn 0.979245 0.202682 -0.000293
vn -0.001694 0.199625 0.979871
vn -0.979287 0.202478 -0.000238
vn 0.001345 0.202358 -0.979311
vn -0.001822 -0.999987 -0.004820
vn 0.008450 -0.999772 -0.019601
vn 0.000057 -0.999397 -0.034725
vn -0.007985 -0.999752 -0.020783
vn 0.000431 0.999999 0.000936
vn 0.000000 1.000000 0.000000
vn 0.980060 0.198701 0.001108
vn 0.979740 0.200254 -0.002962
vn 0.979598 0.200944 -0.003099
vn 0.979460 0.201622 -0.002748
vn -0.980125 0.198378 -0.000608
vn -0.979804 0.199932 0.003343
vn -0.979655 0.200664 0.003195
vn -0.979518 0.201340 0.002543
vn 0.002541 0.200364 -0.979718
vn -0.002986 0.201931 0.979395
vn 0.046582 -0.998914 0.000005
vn 0.002544 0.201803 -0.979423
vn -0.004152 0.201080 0.979566
vn -0.041063 -0.999156 -0.000112
vn 0.003614 0.201077 -0.979569
vn -0.002986 0.200245 0.979741
vn 0.018546 -0.999788 0.008989
vn -0.000403 1.000000 -0.000644
vn 0.003625 -0.999981 0.004992
vn -0.001696 0.202594 0.979261
vn 0.001339 0.199845 -0.979827
vn -0.015028 -0.999854 -0.008082
vn -0.001552 -0.999988 0.004650
vn -0.015201 -0.999853 0.007957
vn 0.018558 -0.999787 -0.008989
vn -0.000120 1.000000 -0.000120
vn -0.000344 1.000000 0.000344
vn 0.008342 -0.999773 0.019611
vn -0.003041 -0.999941 0.010472
vn -0.000000 0.000000 1.000000
vn -0.003180 -0.999944 -0.010099
vn -0.000357 -0.999394 0.034809
vn 0.000986 -0.998818 0.048592
vn 0.003847 -0.999993 0.000230
vn 0.001128 -0.998833 -0.048284
vn -0.008219 -0.999748 0.020872
vn 0.005720 -0.999932 0.010194
vn 0.005876 -0.999928 -0.010498
vn 0.000867 0.999998 -0.001872
vn 0.000423 1.000000 -0.000584
vn 0.000105 1.000000 -0.000056
vn 0.000228 1.000000 0.000277
vn 1.000000 0.000000 0.000001
vn -1.000000 0.000000 -0.000000
vn 0.000000 0.000000 -1.000000
vn 0.000001 0.000000 -1.000000
vn -0.000001 0.000000 1.000000
vn 0.063488 -0.997983 0.000000
vn 0.997980 0.063531 -0.000098
vn -0.997983 -0.063477 -0.000068
vn -0.056207 -0.998419 -0.000000
vn 0.998420 -0.056190 0.000062
vn -0.998417 0.056243 0.000132
usemtl Material
s off
f 65//1 57//1 3//1 13//1
f 40//2 21//2 7//2 41//2
f 12//3 20//3 6//3 2//3
f 57//4 41//4 7//4 3//4
f 16//5 24//5 8//5 4//5
f 31//6 49//6 4//6 8//6
f 49//7 45//7 16//7 4//7
f 45//8 61//8 15//8 16//8
f 61//9 27//9 14//9 15//9
f 27//10 65//10 13//10 14//10
f 31//11 8//11 24//11 56//11
f 56//12 24//12 23//12 26//12
f 26//12 23//12 22//12 36//12
f 36//12 22//12 21//12 40//12
f 1//13 5//13 17//13 9//13
f 9//14 17//14 18//14 10//14
f 10//15 18//15 19//15 11//15
f 11//16 19//16 20//16 12//16
f 3//17 7//17 21//17 13//17
f 13//18 21//18 22//18 14//18
f 14//19 22//19 23//19 15//19
f 15//20 23//20 24//20 16//20
f 34//21 52//21 51//21 33//21
f 60//22 44//22 43//22 59//22
f 38//12 39//12 42//12 43//12
f 67//23 59//23 58//23 66//23
f 32//24 50//24 49//24 31//24
f 59//25 43//25 42//25 58//25
f 51//26 47//26 46//26 50//26
f 33//27 51//27 50//27 32//27
f 58//28 42//28 41//28 57//28
f 66//29 58//29 57//29 65//29
f 20//30 37//30 44//30 6//30
f 12//31 2//31 60//31 68//31
f 2//32 6//32 44//32 60//32
f 5//33 1//33 52//33 34//33
f 52//34 48//34 47//34 51//34
f 1//35 9//35 48//35 52//35
f 50//36 46//36 45//36 49//36
f 68//37 60//37 59//37 67//37
f 37//38 38//38 43//38 44//38
f 39//39 40//39 41//39 42//39
f 9//40 10//40 64//40 48//40
f 48//41 64//41 63//41 47//41
f 63//42 62//42 75//42 76//42
f 46//43 62//43 61//43 45//43
f 10//44 11//44 30//44 64//44
f 64//45 30//45 29//45 63//45
f 63//46 29//46 28//46 62//46
f 62//47 28//47 27//47 61//47
f 11//48 12//48 68//48 30//48
f 30//49 68//49 67//49 29//49
f 67//42 66//42 71//42 72//42
f 28//50 66//50 65//50 27//50
f 5//51 34//51 53//51 17//51
f 34//52 33//52 54//52 53//52
f 33//53 32//53 55//53 54//53
f 32//54 31//54 56//54 55//54
f 17//12 53//12 25//12 18//12
f 35//55 25//55 77//55 81//55
f 38//42 37//42 85//42 86//42
f 56//56 26//56 80//56 92//56
f 18//12 25//12 35//12 19//12
f 55//57 56//57 92//57 91//57
f 37//55 35//55 81//55 85//55
f 53//58 54//58 90//58 89//58
f 19//12 35//12 37//12 20//12
f 26//56 36//56 84//56 80//56
f 39//59 38//59 86//59 87//59
f 25//55 53//55 89//55 77//55
f 70//60 72//60 71//60 69//60
f 29//61 67//61 72//61 70//61
f 28//57 29//57 70//57 69//57
f 66//62 28//62 69//62 71//62
f 74//63 76//63 75//63 73//63
f 47//64 63//64 76//64 74//64
f 46//57 47//57 74//57 73//57
f 62//65 46//65 73//65 75//65
f 89//12 90//12 78//12 77//12
f 90//12 91//12 79//12 78//12
f 91//12 92//12 80//12 79//12
f 77//12 78//12 82//12 81//12
f 78//12 79//12 83//12 82//12
f 79//12 80//12 84//12 83//12
f 81//12 82//12 86//12 85//12
f 82//12 83//12 87//12 86//12
f 83//12 84//12 88//12 87//12
f 54//57 55//57 91//57 90//57
f 40//59 39//59 87//59 88//59
f 36//56 40//56 88//56 84//56
