# Blender v2.67 (sub 0) OBJ File: ''
# www.blender.org
mtllib essai_000036.mtl
o Cube
v 0.957534 2.447406 -1.000000
v 0.958492 2.187998 1.000000
v -0.961045 2.439668 1.000000
v -0.957580 2.180347 -1.000000
v 0.573885 4.315434 -0.589454
v 0.594916 4.311330 0.589455
v -0.577422 4.315263 0.589454
v -0.597729 4.309756 -0.589454
v 0.962962 2.411097 -0.600000
v 0.971896 2.350062 -0.200000
v 0.972448 2.284366 0.200000
v 0.963812 2.224213 0.600000
v -0.965742 2.404329 0.600000
v -0.973448 2.344852 0.200000
v -0.972697 2.279248 -0.200000
v -0.963333 2.217540 -0.600000
v 0.589455 4.314257 -0.353672
v 0.589455 4.314257 -0.117891
v 0.589454 4.314257 0.117891
v 0.589454 4.314257 0.353673
v -0.589455 4.314257 0.353673
v -0.589455 4.314257 0.117891
v -0.589455 4.314257 -0.117891
v -0.589455 4.314257 -0.353673
v 0.353673 4.314257 -0.117891
v -0.353673 4.314257 -0.117891
v -0.573806 2.372867 0.200000
v -0.186667 2.382847 0.200000
v 0.180888 2.245420 0.200000
v 0.571442 2.255427 0.200000
v -0.359288 4.311972 -0.589454
v -0.120596 4.313508 -0.589454
v 0.114660 4.313761 -0.589454
v 0.344882 4.313939 -0.589454
v 0.353673 4.314257 0.117891
v -0.353673 4.314257 0.117891
v 0.353672 4.314257 0.353673
v 0.117891 4.314257 0.353673
v -0.117891 4.314257 0.353673
v -0.353673 4.314257 0.353673
v -0.348641 4.314114 0.589455
v -0.117891 4.314257 0.589455
v 0.117891 4.314257 0.589455
v 0.356012 4.313323 0.589455
v -0.567591 2.201985 -0.600000
v -0.182723 2.236394 -0.600000
v 0.183538 2.393346 -0.600000
v 0.567521 2.427048 -0.600000
v -0.571243 2.212476 -1.000000
v -0.189036 2.272262 -1.000000
v 0.189223 2.356840 -1.000000
v 0.571241 2.416414 -1.000000
v 0.353673 4.314257 -0.353672
v 0.117891 4.314257 -0.353673
v -0.117891 4.314257 -0.353673
v -0.353673 4.314257 -0.353673
v -0.574370 2.411167 1.000000
v -0.191548 2.354815 1.000000
v 0.188091 2.274158 1.000000
v 0.571466 2.217610 1.000000
v -0.571827 2.250723 -0.200000
v -0.182444 2.243374 -0.200000
v 0.182996 2.385067 -0.200000
v 0.571241 2.377680 -0.200000
v -0.571011 2.421238 0.600000
v -0.187359 2.390073 0.600000
v 0.181494 2.239358 0.600000
v 0.567788 2.207664 0.600000
v -0.979804 0.557849 0.200000
v -0.612597 0.399233 0.200000
v -0.979804 0.557849 0.600000
v -0.612597 0.399233 0.600000
v 0.640066 0.409201 -0.600000
v 1.004727 0.573586 -0.600000
v 0.640066 0.409200 -0.200000
v 1.004727 0.573586 -0.200000
v 0.353673 4.814258 -0.117891
v 0.117891 4.814258 -0.117891
v -0.117891 4.814258 -0.117891
v -0.353673 4.814258 -0.117891
v 0.353673 4.814258 0.117891
v 0.117891 4.814258 0.117891
v -0.117891 4.814258 0.117891
v -0.353673 4.814258 0.117891
v 0.353672 4.814258 0.353673
v 0.117891 4.814258 0.353673
v -0.117891 4.814258 0.353673
v -0.353673 4.814258 0.353673
v 0.353673 4.814258 -0.353672
v 0.117891 4.814258 -0.353673
v -0.117891 4.814258 -0.353673
v -0.353673 4.814258 -0.353673
vn -0.014826 -0.999391 0.031591
vn 0.002475 0.999995 -0.001919
vn 0.984673 0.174093 0.010498
vn 0.010154 0.210773 0.977482
vn -0.985040 0.172168 -0.007385
vn -0.010552 0.191966 -0.981345
vn 0.021176 -0.999217 0.033407
vn -0.054739 -0.989244 0.135644
vn -0.000621 -0.973550 0.228475
vn 0.055962 -0.989579 0.132670
vn -0.004672 0.999888 -0.014251
vn 0.000000 1.000000 0.000000
vn 0.979531 0.200243 -0.020545
vn 0.981489 0.191461 0.004589
vn 0.981958 0.188184 0.018593
vn 0.982620 0.183076 0.030669
vn -0.979854 0.199195 0.014395
vn -0.981410 0.191827 -0.006050
vn -0.981928 0.188135 -0.020572
vn -0.982655 0.182627 -0.032198
vn -0.020182 0.206800 -0.978175
vn 0.018119 0.195903 0.980456
vn -0.295329 -0.955395 0.000342
vn -0.019331 0.195731 -0.980467
vn 0.026344 0.201010 0.979235
vn 0.308579 -0.951199 0.000517
vn -0.027799 0.201050 -0.979186
vn 0.018917 0.206499 0.978264
vn -0.113257 -0.991914 -0.057270
vn 0.004198 0.999958 0.008118
vn -0.016670 -0.999321 -0.032848
vn 0.009709 0.192306 0.981287
vn -0.011157 0.211308 -0.977356
vn 0.120661 -0.990891 0.059808
vn 0.019227 -0.999299 -0.032111
vn 0.121671 -0.990819 -0.058933
vn -0.113719 -0.991880 0.056938
vn 0.001971 0.999996 0.001971
vn -0.000308 1.000000 0.000308
vn -0.054143 -0.989274 -0.135668
vn 0.033970 -0.996828 -0.071966
vn -0.000000 -0.000000 1.000000
vn 0.034843 -0.996966 0.069609
vn 0.001603 -0.973493 -0.228711
vn 0.003198 -0.950366 -0.311119
vn 0.005820 -0.999983 -0.000171
vn 0.003219 -0.950456 0.310844
vn 0.056476 -0.989557 -0.132618
vn -0.027843 -0.997350 -0.067208
vn -0.027408 -0.997214 0.069374
vn -0.003216 0.999993 0.001985
vn -0.000382 0.999998 -0.001718
vn -0.000537 0.999996 -0.002634
vn -0.003237 0.999974 -0.006377
vn 1.000000 0.000000 0.000001
vn -1.000000 0.000000 -0.000000
vn 0.000000 0.000000 -1.000000
vn 0.000001 0.000000 -1.000000
vn -0.000001 0.000000 1.000000
vn -0.396540 -0.918018 0.000000
vn 0.918440 -0.395543 -0.003693
vn -0.917475 0.397770 -0.004387
vn 0.410963 -0.911652 -0.000000
vn 0.911077 0.412208 0.004884
vn -0.912130 -0.409882 0.003894
usemtl Material
s off
f 65//1 57//1 3//1 13//1
f 40//2 21//2 7//2 41//2
f 12//3 20//3 6//3 2//3
f 57//4 41//4 7//4 3//4
f 16//5 24//5 8//5 4//5
f 31//6 49//6 4//6 8//6
f 49//7 45//7 16//7 4//7
f 45//8 61//8 15//8 16//8
f 61//9 27//9 14//9 15//9
f 27//10 65//10 13//10 14//10
f 31//11 8//11 24//11 56//11
f 56//12 24//12 23//12 26//12
f 26//12 23//12 22//12 36//12
f 36//12 22//12 21//12 40//12
f 1//13 5//13 17//13 9//13
f 9//14 17//14 18//14 10//14
f 10//15 18//15 19//15 11//15
f 11//16 19//16 20//16 12//16
f 3//17 7//17 21//17 13//17
f 13//18 21//18 22//18 14//18
f 14//19 22//19 23//19 15//19
f 15//20 23//20 24//20 16//20
f 34//21 52//21 51//21 33//21
f 60//22 44//22 43//22 59//22
f 38//12 39//12 42//12 43//12
f 67//23 59//23 58//23 66//23
f 32//24 50//24 49//24 31//24
f 59//25 43//25 42//25 58//25
f 51//26 47//26 46//26 50//26
f 33//27 51//27 50//27 32//27
f 58//28 42//28 41//28 57//28
f 66//29 58//29 57//29 65//29
f 20//30 37//30 44//30 6//30
f 12//31 2//31 60//31 68//31
f 2//32 6//32 44//32 60//32
f 5//33 1//33 52//33 34//33
f 52//34 48//34 47//34 51//34
f 1//35 9//35 48//35 52//35
f 50//36 46//36 45//36 49//36
f 68//37 60//37 59//37 67//37
f 37//38 38//38 43//38 44//38
f 39//39 40//39 41//39 42//39
f 9//40 10//40 64//40 48//40
f 48//41 64//41 63//41 47//41
f 63//42 62//42 75//42 76//42
f 46//43 62//43 61//43 45//43
f 10//44 11//44 30//44 64//44
f 64//45 30//45 29//45 63//45
f 63//46 29//46 28//46 62//46
f 62//47 28//47 27//47 61//47
f 11//48 12//48 68//48 30//48
f 30//49 68//49 67//49 29//49
f 67//42 66//42 71//42 72//42
f 28//50 66//50 65//50 27//50
f 5//51 34//51 53//51 17//51
f 34//52 33//52 54//52 53//52
f 33//53 32//53 55//53 54//53
f 32//54 31//54 56//54 55//54
f 17//12 53//12 25//12 18//12
f 35//55 25//55 77//55 81//55
f 38//42 37//42 85//42 86//42
f 56//56 26//56 80//56 92//56
f 18//12 25//12 35//12 19//12
f 55//57 56//57 92//57 91//57
f 37//55 35//55 81//55 85//55
f 53//58 54//58 90//58 89//58
f 19//12 35//12 37//12 20//12
f 26//56 36//56 84//56 80//56
f 39//59 38//59 86//59 87//59
f 25//55 53//55 89//55 77//55
f 70//60 72//60 71//60 69//60
f 29//61 67//61 72//61 70//61
f 28//57 29//57 70//57 69//57
f 66//62 28//62 69//62 71//62
f 74//63 76//63 75//63 73//63
f 47//64 63//64 76//64 74//64
f 46//57 47//57 74//57 73//57
f 62//65 46//65 73//65 75//65
f 89//12 90//12 78//12 77//12
f 90//12 91//12 79//12 78//12
f 91//12 92//12 80//12 79//12
f 77//12 78//12 82//12 81//12
f 78//12 79//12 83//12 82//12
f 79//12 80//12 84//12 83//12
f 81//12 82//12 86//12 85//12
f 82//12 83//12 87//12 86//12
f 83//12 84//12 88//12 87//12
f 54//57 55//57 91//57 90//57
f 40//59 39//59 87//59 88//59
f 36//56 40//56 88//56 84//56
