# Blender v2.67 (sub 0) OBJ File: ''
# www.blender.org
mtllib essai_000009.mtl
o Cube
v 0.970165 2.067818 -1.000000
v 0.971125 2.289964 1.000000
v -0.969197 2.068363 1.000000
v -0.970086 2.289886 -1.000000
v 0.601099 4.172554 -0.589454
v 0.584113 4.178968 0.589455
v -0.598820 4.173686 0.589454
v -0.581650 4.179235 -0.589454
v 0.974001 2.098474 -0.600000
v 0.980314 2.150022 -0.200000
v 0.980773 2.206255 0.200000
v 0.974804 2.258500 0.600000
v -0.973182 2.098917 0.600000
v -0.979741 2.150326 0.200000
v -0.980060 2.206377 -0.200000
v -0.973888 2.258487 -0.600000
v 0.589455 4.178370 -0.353672
v 0.589455 4.178370 -0.117891
v 0.589454 4.178370 0.117891
v 0.589454 4.178370 0.353673
v -0.589455 4.178370 0.353673
v -0.589455 4.178370 0.117891
v -0.589455 4.178370 -0.117891
v -0.589455 4.178370 -0.353673
v 0.353673 4.178370 -0.117891
v -0.353673 4.178370 -0.117891
v -0.578897 2.126534 0.200000
v -0.185505 2.119370 0.200000
v 0.190248 2.239499 0.200000
v 0.580820 2.231265 0.200000
v -0.348619 4.178364 -0.589454
v -0.115567 4.178096 -0.589454
v 0.120540 4.177735 -0.589454
v 0.360557 4.175845 -0.589454
v 0.353673 4.178370 0.117891
v -0.353673 4.178370 0.117891
v 0.353672 4.178370 0.353673
v 0.117891 4.178370 0.353673
v -0.117891 4.178370 0.353673
v -0.353673 4.178370 0.353673
v -0.357772 4.176866 0.589455
v -0.117891 4.178370 0.589455
v 0.117891 4.178370 0.589455
v 0.351488 4.178370 0.589455
v -0.577301 2.272163 -0.600000
v -0.188784 2.243901 -0.600000
v 0.187769 2.112151 -0.600000
v 0.577150 2.084505 -0.600000
v -0.579899 2.263441 -1.000000
v -0.192545 2.213641 -1.000000
v 0.192247 2.142917 -1.000000
v 0.579754 2.093298 -1.000000
v 0.353673 4.178370 -0.353672
v 0.117891 4.178370 -0.353673
v -0.117891 4.178370 -0.353673
v -0.353673 4.178370 -0.353673
v -0.578621 2.093839 1.000000
v -0.190944 2.143457 1.000000
v 0.193846 2.214060 1.000000
v 0.581055 2.263676 1.000000
v -0.579639 2.230791 -0.200000
v -0.188229 2.237946 -0.200000
v 0.187667 2.119320 -0.200000
v 0.579978 2.126497 -0.200000
v -0.575868 2.085008 0.600000
v -0.185768 2.113248 0.600000
v 0.190786 2.244642 0.600000
v 0.578599 2.272519 0.600000
v 0.506383 0.233298 0.200000
v 0.881719 0.371585 0.200000
v 0.506383 0.233298 0.600000
v 0.881719 0.371585 0.600000
v -0.878178 0.369952 -0.600000
v -0.502734 0.231961 -0.600000
v -0.878178 0.369952 -0.200000
v -0.502734 0.231961 -0.200000
v 0.353673 4.678370 -0.117891
v 0.117891 4.678370 -0.117891
v -0.117891 4.678370 -0.117891
v -0.353673 4.678370 -0.117891
v 0.353673 4.678370 0.117891
v 0.117891 4.678370 0.117891
v -0.117891 4.678370 0.117891
v -0.353673 4.678370 0.117891
v 0.353672 4.678370 0.353673
v 0.117891 4.678370 0.353673
v -0.117891 4.678370 0.353673
v -0.353673 4.678370 0.353673
v 0.353673 4.678370 -0.353672
v 0.117891 4.678370 -0.353673
v -0.117891 4.678370 -0.353673
v -0.353673 4.678370 -0.353673
vn 0.014674 -0.999523 -0.027164
vn -0.006668 0.999894 0.012932
vn 0.979917 0.199370 0.003847
vn -0.008782 0.193566 0.981048
vn -0.979742 0.200116 -0.007730
vn 0.009185 0.209537 -0.977758
vn -0.016221 -0.999466 -0.028355
vn 0.047419 -0.992183 -0.115434
vn 0.000762 -0.980508 -0.196480
vn -0.046871 -0.992292 -0.114712
vn 0.001858 0.999997 0.001870
vn 0.000000 1.000000 0.000000
vn 0.984219 0.176944 0.001938
vn 0.981979 0.187336 -0.024940
vn 0.981263 0.191859 -0.017679
vn 0.980752 0.195139 -0.006826
vn -0.984106 0.177575 0.001514
vn -0.982022 0.187071 0.025256
vn -0.981324 0.191575 0.017382
vn -0.980826 0.194780 0.006443
vn 0.016141 0.196642 -0.980343
vn -0.016449 0.205819 0.978452
vn 0.256444 -0.966559 0.000227
vn 0.016607 0.205776 -0.978458
vn -0.022874 0.201049 0.979314
vn -0.257010 -0.966408 -0.000841
vn 0.023016 0.201033 -0.979314
vn -0.016017 0.196618 0.980349
vn 0.099484 -0.993808 0.049484
vn -0.001279 0.999998 -0.001286
vn 0.015597 -0.999478 0.028286
vn -0.009050 0.209595 0.977746
vn 0.008829 0.193614 -0.981038
vn -0.098841 -0.993845 -0.050020
vn -0.014616 -0.999519 0.027337
vn -0.099985 -0.993771 0.049220
vn 0.099368 -0.993811 -0.049662
vn 0.000002 1.000000 0.000002
vn -0.003163 0.999990 0.003163
vn 0.046665 -0.992213 0.115481
vn -0.026126 -0.997771 0.061403
vn -0.000000 0.000000 1.000000
vn -0.027006 -0.997887 -0.059095
vn -0.001819 -0.980342 0.197299
vn -0.001300 -0.962665 0.270692
vn 0.001999 -0.999996 0.001992
vn -0.000012 -0.963328 -0.268326
vn -0.048634 -0.992122 0.115454
vn 0.025184 -0.998003 0.057934
vn 0.026843 -0.997866 -0.059526
vn 0.006908 0.999824 -0.017415
vn 0.003972 0.999970 -0.006623
vn 0.000765 0.999998 -0.001922
vn 0.000572 1.000000 -0.000588
vn 1.000000 0.000000 0.000001
vn -1.000000 0.000000 -0.000000
vn 0.000000 0.000000 -1.000000
vn 0.000001 0.000000 -1.000000
vn -0.000001 0.000000 1.000000
vn 0.345718 -0.938339 0.000000
vn 0.938001 0.346620 -0.002859
vn -0.938617 -0.344948 -0.002948
vn -0.344977 -0.938611 0.000000
vn 0.938914 -0.344136 0.003203
vn -0.938279 0.345865 0.003226
usemtl Material
s off
f 65//1 57//1 3//1 13//1
f 40//2 21//2 7//2 41//2
f 12//3 20//3 6//3 2//3
f 57//4 41//4 7//4 3//4
f 16//5 24//5 8//5 4//5
f 31//6 49//6 4//6 8//6
f 49//7 45//7 16//7 4//7
f 45//8 61//8 15//8 16//8
f 61//9 27//9 14//9 15//9
f 27//10 65//10 13//10 14//10
f 31//11 8//11 24//11 56//11
f 56//12 24//12 23//12 26//12
f 26//12 23//12 22//12 36//12
f 36//12 22//12 21//12 40//12
f 1//13 5//13 17//13 9//13
f 9//14 17//14 18//14 10//14
f 10//15 18//15 19//15 11//15
f 11//16 19//16 20//16 12//16
f 3//17 7//17 21//17 13//17
f 13//18 21//18 22//18 14//18
f 14//19 22//19 23//19 15//19
f 15//20 23//20 24//20 16//20
f 34//21 52//21 51//21 33//21
f 60//22 44//22 43//22 59//22
f 38//12 39//12 42//12 43//12
f 67//23 59//23 58//23 66//23
f 32//24 50//24 49//24 31//24
f 59//25 43//25 42//25 58//25
f 51//26 47//26 46//26 50//26
f 33//27 51//27 50//27 32//27
f 58//28 42//28 41//28 57//28
f 66//29 58//29 57//29 65//29
f 20//30 37//30 44//30 6//30
f 12//31 2//31 60//31 68//31
f 2//32 6//32 44//32 60//32
f 5//33 1//33 52//33 34//33
f 52//34 48//34 47//34 51//34
f 1//35 9//35 48//35 52//35
f 50//36 46//36 45//36 49//36
f 68//37 60//37 59//37 67//37
f 37//38 38//38 43//38 44//38
f 39//39 40//39 41//39 42//39
f 9//40 10//40 64//40 48//40
f 48//41 64//41 63//41 47//41
f 63//42 62//42 75//42 76//42
f 46//43 62//43 61//43 45//43
f 10//44 11//44 30//44 64//44
f 64//45 30//45 29//45 63//45
f 63//46 29//46 28//46 62//46
f 62//47 28//47 27//47 61//47
f 11//48 12//48 68//48 30//48
f 30//49 68//49 67//49 29//49
f 67//42 66//42 71//42 72//42
f 28//50 66//50 65//50 27//50
f 5//51 34//51 53//51 17//51
f 34//52 33//52 54//52 53//52
f 33//53 32//53 55//53 54//53
f 32//54 31//54 56//54 55//54
f 17//12 53//12 25//12 18//12
f 35//55 25//55 77//55 81//55
f 38//42 37//42 85//42 86//42
f 56//56 26//56 80//56 92//56
f 18//12 25//12 35//12 19//12
f 55//57 56//57 92//57 91//57
f 37//55 35//55 81//55 85//55
f 53//58 54//58 90//58 89//58
f 19//12 35//12 37//12 20//12
f 26//56 36//56 84//56 80//56
f 39//59 38//59 86//59 87//59
f 25//55 53//55 89//55 77//55
f 70//60 72//60 71//60 69//60
f 29//61 67//61 72//61 70//61
f 28//57 29//57 70//57 69//57
f 66//62 28//62 69//62 71//62
f 74//63 76//63 75//63 73//63
f 47//64 63//64 76//64 74//64
f 46//57 47//57 74//57 73//57
f 62//65 46//65 73//65 75//65
f 89//12 90//12 78//12 77//12
f 90//12 91//12 79//12 78//12
f 91//12 92//12 80//12 79//12
f 77//12 78//12 82//12 81//12
f 78//12 79//12 83//12 82//12
f 79//12 80//12 84//12 83//12
f 81//12 82//12 86//12 85//12
f 82//12 83//12 87//12 86//12
f 83//12 84//12 88//12 87//12
f 54//57 55//57 91//57 90//57
f 40//59 39//59 87//59 88//59
f 36//56 40//56 88//56 84//56
