# Blender v2.67 (sub 0) OBJ File: 'essai.blend'
# www.blender.org
mtllib essai-stand_000011.mtl
o Cube
v 1.000130 2.010747 -0.999848
v 0.999838 2.010952 1.000152
v -1.000162 2.011589 0.999859
v -0.999870 2.011382 -1.000140
v 0.590802 4.010692 -0.589668
v 0.590484 4.010920 0.589239
v -0.588432 4.011639 0.588910
v -0.588097 4.011409 -0.590001
v 1.000080 2.010743 -0.599830
v 1.000018 2.010722 -0.199800
v 0.999941 2.010773 0.200201
v 0.999884 2.010879 0.600171
v -1.000116 2.011593 0.599843
v -1.000059 2.011613 0.199815
v -0.999982 2.011559 -0.200185
v -0.999919 2.011455 -0.600157
v 0.590760 4.010730 -0.353890
v 0.590693 4.010777 -0.118108
v 0.590626 4.010824 0.117673
v 0.590559 4.010871 0.353455
v -0.588350 4.011599 0.353120
v -0.588283 4.011552 0.117339
v -0.588216 4.011505 -0.118443
v -0.588149 4.011458 -0.354225
v 0.354911 4.010923 -0.118175
v -0.352434 4.011360 -0.118376
v -0.600040 2.011354 0.199928
v -0.200001 2.011172 0.199999
v 0.199999 2.011168 0.200001
v 0.599960 2.011017 0.200083
v -0.352310 4.011265 -0.589936
v -0.116523 4.011121 -0.589871
v 0.119258 4.010975 -0.589805
v 0.355031 4.010833 -0.589736
v 0.354844 4.010970 0.117606
v -0.352501 4.011406 0.117406
v 0.354777 4.011016 0.353388
v 0.118995 4.011162 0.353321
v -0.116786 4.011308 0.353254
v -0.352568 4.011454 0.353187
v -0.352641 4.011498 0.588972
v -0.116853 4.011354 0.589036
v 0.118929 4.011209 0.589103
v 0.354707 4.011064 0.589171
v -0.599946 2.011264 -0.600061
v -0.199993 2.011169 -0.600002
v 0.200006 2.011159 -0.599997
v 0.600053 2.010981 -0.599931
v -0.599885 2.011245 -1.000072
v -0.199903 2.011139 -1.000017
v 0.200096 2.011045 -0.999974
v 0.600114 2.010910 -0.999918
v 0.354978 4.010876 -0.353957
v 0.119196 4.011022 -0.354024
v -0.116585 4.011167 -0.354091
v -0.352367 4.011313 -0.354158
v -0.600143 2.011426 0.999928
v -0.200120 2.011291 0.999983
v 0.199880 2.011197 1.000026
v 0.599857 2.011089 1.000083
v -0.599988 2.011317 -0.200072
v -0.199999 2.011171 -0.200001
v 0.200001 2.011166 -0.199999
v 0.600012 2.010982 -0.199918
v -0.600077 2.011356 0.599939
v -0.200010 2.011181 0.599998
v 0.199990 2.011169 0.600003
v 0.599923 2.011071 0.600070
v -0.200000 0.011169 0.200000
v 0.200000 0.011169 0.200000
v -0.200000 0.011169 0.600000
v 0.200000 0.011169 0.600000
v -0.200000 0.011169 -0.600000
v 0.200000 0.011169 -0.600000
v -0.200000 0.011169 -0.200000
v 0.200000 0.011169 -0.200000
v 0.355220 4.510922 -0.118275
v 0.119438 4.511068 -0.118342
v -0.116343 4.511214 -0.118409
v -0.352125 4.511360 -0.118475
v 0.355153 4.510970 0.117507
v 0.119371 4.511115 0.117440
v -0.116410 4.511261 0.117373
v -0.352192 4.511406 0.117306
v 0.355086 4.511016 0.353289
v 0.119304 4.511162 0.353222
v -0.116477 4.511308 0.353155
v -0.352259 4.511454 0.353088
v 0.355287 4.510876 -0.354056
v 0.119505 4.511022 -0.354123
v -0.116277 4.511168 -0.354190
v -0.352058 4.511313 -0.354257
vn -0.000499 -1.000000 0.000083
vn 0.000607 1.000000 -0.000180
vn 0.979686 0.200538 0.000147
vn -0.000105 0.201282 0.979533
vn -0.979450 0.201685 -0.000195
vn 0.000292 0.200840 -0.979624
vn -0.000409 -1.000000 0.000113
vn -0.000540 -1.000000 0.000197
vn -0.000625 -1.000000 0.000113
vn -0.000619 -1.000000 -0.000023
vn 0.000613 1.000000 -0.000206
vn 0.000617 1.000000 -0.000198
vn 0.000618 1.000000 -0.000199
vn 0.979696 0.200488 0.000132
vn 0.979696 0.200488 0.000192
vn 0.979694 0.200499 0.000191
vn 0.979691 0.200513 0.000142
vn -0.979466 0.201610 -0.000209
vn -0.979459 0.201643 -0.000199
vn -0.979455 0.201661 -0.000254
vn -0.979452 0.201676 -0.000248
vn 0.000280 0.200935 -0.979605
vn -0.000112 0.201247 0.979541
vn -0.000133 -1.000000 0.000172
vn 0.000263 0.200869 -0.979618
vn -0.000094 0.201259 0.979538
vn -0.000131 -1.000000 0.000180
vn 0.000246 0.200902 -0.979611
vn -0.000095 0.201272 0.979536
vn -0.000388 -1.000000 0.000226
vn 0.000614 1.000000 -0.000203
vn -0.000413 -1.000000 0.000113
vn -0.000122 0.201236 0.979543
vn 0.000308 0.200963 -0.979599
vn -0.000391 -1.000000 0.000231
vn -0.000501 -1.000000 0.000083
vn -0.000251 -1.000000 0.000061
vn -0.000256 -1.000000 0.000057
vn 0.000617 1.000000 -0.000200
vn 0.000615 1.000000 -0.000194
vn -0.000623 -1.000000 -0.000025
vn -0.000452 -1.000000 0.000010
vn -0.000003 -0.000000 1.000000
vn -0.000301 -1.000000 0.000068
vn -0.000630 -1.000000 0.000108
vn -0.000419 -1.000000 0.000046
vn -0.000011 -1.000000 0.000004
vn -0.000410 -1.000000 0.000048
vn -0.000545 -1.000000 0.000199
vn -0.000311 -1.000000 0.000069
vn -0.000007 -0.000000 1.000000
vn -0.000446 -1.000000 0.000013
vn 0.000607 1.000000 -0.000172
vn 0.000612 1.000000 -0.000189
vn 0.000617 1.000000 -0.000196
vn 0.000616 1.000000 -0.000199
vn 1.000000 -0.000618 0.000284
vn -0.000284 0.000199 1.000000
vn -1.000000 0.000618 -0.000284
vn 0.000619 1.000000 -0.000198
vn 0.000284 -0.000199 -1.000000
vn 0.000000 -1.000000 0.000000
vn 1.000000 0.000003 0.000011
vn 0.000002 0.000000 -1.000000
vn -1.000000 -0.000003 -0.000010
vn 1.000000 -0.000002 0.000007
vn 0.000007 0.000000 -1.000000
vn -1.000000 0.000002 -0.000008
usemtl Material
s off
f 65//1 57//1 3//1 13//1
f 40//2 21//2 7//2 41//2
f 12//3 20//3 6//3 2//3
f 57//4 41//4 7//4 3//4
f 16//5 24//5 8//5 4//5
f 31//6 49//6 4//6 8//6
f 49//7 45//7 16//7 4//7
f 45//8 61//8 15//8 16//8
f 61//9 27//9 14//9 15//9
f 27//10 65//10 13//10 14//10
f 31//11 8//11 24//11 56//11
f 56//12 24//12 23//12 26//12
f 26//13 23//13 22//13 36//13
f 36//13 22//13 21//13 40//13
f 1//14 5//14 17//14 9//14
f 9//15 17//15 18//15 10//15
f 10//16 18//16 19//16 11//16
f 11//17 19//17 20//17 12//17
f 3//18 7//18 21//18 13//18
f 13//19 21//19 22//19 14//19
f 14//20 22//20 23//20 15//20
f 15//21 23//21 24//21 16//21
f 34//22 52//22 51//22 33//22
f 60//23 44//23 43//23 59//23
f 38//13 39//13 42//13 43//13
f 67//24 59//24 58//24 66//24
f 32//25 50//25 49//25 31//25
f 59//26 43//26 42//26 58//26
f 51//27 47//27 46//27 50//27
f 33//28 51//28 50//28 32//28
f 58//29 42//29 41//29 57//29
f 66//30 58//30 57//30 65//30
f 20//31 37//31 44//31 6//31
f 12//32 2//32 60//32 68//32
f 2//33 6//33 44//33 60//33
f 5//34 1//34 52//34 34//34
f 52//35 48//35 47//35 51//35
f 1//36 9//36 48//36 52//36
f 50//37 46//37 45//37 49//37
f 68//38 60//38 59//38 67//38
f 37//39 38//39 43//39 44//39
f 39//40 40//40 41//40 42//40
f 9//41 10//41 64//41 48//41
f 48//42 64//42 63//42 47//42
f 63//43 62//43 75//43 76//43
f 46//44 62//44 61//44 45//44
f 10//45 11//45 30//45 64//45
f 64//46 30//46 29//46 63//46
f 63//47 29//47 28//47 62//47
f 62//48 28//48 27//48 61//48
f 11//49 12//49 68//49 30//49
f 30//50 68//50 67//50 29//50
f 67//51 66//51 71//51 72//51
f 28//52 66//52 65//52 27//52
f 5//53 34//53 53//53 17//53
f 34//54 33//54 54//54 53//54
f 33//55 32//55 55//55 54//55
f 32//56 31//56 56//56 55//56
f 17//13 53//13 25//13 18//13
f 35//57 25//57 77//57 81//57
f 38//58 37//58 85//58 86//58
f 56//59 26//59 80//59 92//59
f 18//60 25//60 35//60 19//60
f 55//61 56//61 92//61 91//61
f 37//57 35//57 81//57 85//57
f 53//61 54//61 90//61 89//61
f 19//13 35//13 37//13 20//13
f 26//59 36//59 84//59 80//59
f 39//58 38//58 86//58 87//58
f 25//57 53//57 89//57 77//57
f 70//62 72//62 71//62 69//62
f 29//63 67//63 72//63 70//63
f 28//64 29//64 70//64 69//64
f 66//65 28//65 69//65 71//65
f 74//62 76//62 75//62 73//62
f 47//66 63//66 76//66 74//66
f 46//67 47//67 74//67 73//67
f 62//68 46//68 73//68 75//68
f 89//60 90//60 78//60 77//60
f 90//60 91//60 79//60 78//60
f 91//12 92//12 80//12 79//12
f 77//13 78//13 82//13 81//13
f 78//60 79//60 83//60 82//60
f 79//12 80//12 84//12 83//12
f 81//12 82//12 86//12 85//12
f 82//60 83//60 87//60 86//60
f 83//13 84//13 88//13 87//13
f 54//61 55//61 91//61 90//61
f 40//58 39//58 87//58 88//58
f 36//59 40//59 88//59 84//59
