# Blender v2.67 (sub 0) OBJ File: ''
# www.blender.org
mtllib essai_000041.mtl
o Cube
v 0.982779 2.289551 -1.000000
v 0.982226 2.120536 1.000000
v -0.984519 2.284219 1.000000
v -0.982094 2.115345 -1.000000
v 0.579544 4.204166 -0.589454
v 0.593085 4.201030 0.589455
v -0.581805 4.203861 0.589454
v -0.594971 4.200167 -0.589454
v 0.984909 2.265875 -0.600000
v 0.988411 2.226076 -0.200000
v 0.988400 2.183271 0.200000
v 0.984578 2.144112 0.600000
v -0.986307 2.261218 0.600000
v -0.989235 2.222506 0.200000
v -0.988673 2.179784 -0.200000
v -0.984596 2.139578 -0.600000
v 0.589455 4.202647 -0.353672
v 0.589455 4.202647 -0.117891
v 0.589454 4.202647 0.117891
v 0.589454 4.202647 0.353673
v -0.589455 4.202647 0.353673
v -0.589455 4.202647 0.117891
v -0.589455 4.202647 -0.117891
v -0.589455 4.202647 -0.353673
v 0.353673 4.202647 -0.117891
v -0.353673 4.202647 -0.117891
v -0.589704 2.240754 0.200000
v -0.196069 2.247272 0.200000
v 0.190509 2.157856 0.200000
v 0.587662 2.164424 0.200000
v -0.357379 4.201457 -0.589454
v -0.119659 4.202299 -0.589454
v 0.115799 4.202487 -0.589454
v 0.348030 4.202874 -0.589454
v 0.353673 4.202647 0.117891
v -0.353673 4.202647 0.117891
v 0.353672 4.202647 0.353673
v 0.117891 4.202647 0.353673
v -0.117891 4.202647 0.353673
v -0.353673 4.202647 0.353673
v -0.350447 4.202793 0.589455
v -0.117891 4.202647 0.589455
v 0.117891 4.202647 0.589455
v 0.355213 4.202159 0.589455
v -0.586075 2.129486 -0.600000
v -0.191675 2.151998 -0.600000
v 0.194367 2.254331 -0.600000
v 0.587074 2.276277 -0.600000
v -0.587631 2.136323 -1.000000
v -0.194860 2.175330 -1.000000
v 0.196143 2.230486 -1.000000
v 0.588568 2.269332 -1.000000
v 0.353673 4.202647 -0.353672
v 0.117891 4.202647 -0.353673
v -0.117891 4.202647 -0.353673
v -0.353673 4.202647 -0.353673
v -0.590180 2.265691 1.000000
v -0.197451 2.229035 1.000000
v 0.194138 2.176560 1.000000
v 0.587440 2.139781 1.000000
v -0.588114 2.161226 -0.200000
v -0.191700 2.156538 -0.200000
v 0.193981 2.248934 -0.200000
v 0.588330 2.244092 -0.200000
v -0.588876 2.272241 0.600000
v -0.196482 2.251973 0.600000
v 0.190659 2.153899 0.600000
v 0.585836 2.133314 0.600000
v -0.712384 0.322183 0.200000
v -0.325930 0.218967 0.200000
v -0.712384 0.322183 0.600000
v -0.325930 0.218967 0.600000
v 0.344638 0.222601 -0.600000
v 0.730011 0.329780 -0.600000
v 0.344638 0.222601 -0.200000
v 0.730011 0.329780 -0.200000
v 0.353673 4.702647 -0.117891
v 0.117891 4.702647 -0.117891
v -0.117891 4.702647 -0.117891
v -0.353673 4.702647 -0.117891
v 0.353673 4.702647 0.117891
v 0.117891 4.702647 0.117891
v -0.117891 4.702647 0.117891
v -0.353673 4.702647 0.117891
v 0.353672 4.702647 0.353673
v 0.117891 4.702647 0.353673
v -0.117891 4.702647 0.353673
v -0.353673 4.702647 0.353673
v 0.353673 4.702647 -0.353672
v 0.117891 4.702647 -0.353673
v -0.117891 4.702647 -0.353673
v -0.353673 4.702647 -0.353673
vn -0.009475 -0.999744 0.020564
vn 0.002286 0.999993 -0.002937
vn 0.982345 0.186997 0.005433
vn 0.006488 0.207192 0.978279
vn -0.982581 0.185807 -0.003149
vn -0.006872 0.195072 -0.980765
vn 0.013722 -0.999669 0.021753
vn -0.035689 -0.995370 0.089244
vn -0.000383 -0.988525 0.151058
vn 0.036564 -0.995521 0.087183
vn -0.002726 0.999966 -0.007731
vn 0.000000 1.000000 0.000000
vn 0.978759 0.204750 -0.010423
vn 0.980102 0.198372 0.007020
vn 0.980556 0.195795 0.013199
vn 0.981140 0.192482 0.017754
vn -0.978972 0.203881 0.006768
vn -0.980080 0.198461 -0.007570
vn -0.980560 0.195720 -0.014018
vn -0.981175 0.192237 -0.018449
vn -0.012857 0.204711 -0.978738
vn 0.011685 0.197733 0.980186
vn -0.189811 -0.981820 0.000256
vn -0.012490 0.197612 -0.980201
vn 0.016816 0.201053 0.979436
vn 0.198639 -0.980073 0.000279
vn -0.017763 0.201076 -0.979415
vn 0.012037 0.204523 0.978788
vn -0.072266 -0.996701 -0.036944
vn 0.002384 0.999987 0.004439
vn -0.010643 -0.999714 -0.021391
vn 0.006290 0.195316 0.980720
vn -0.007134 0.207528 -0.978203
vn 0.077141 -0.996270 0.038660
vn 0.012389 -0.999704 -0.020917
vn 0.077858 -0.996239 -0.038032
vn -0.072511 -0.996690 0.036750
vn 0.001032 0.999999 0.001032
vn 0.000312 1.000000 -0.000312
vn -0.035450 -0.995369 -0.089352
vn 0.021703 -0.998662 -0.046940
vn -0.000000 -0.000000 1.000000
vn 0.022510 -0.998717 0.045352
vn 0.001026 -0.988483 -0.151327
vn 0.002134 -0.977973 -0.208719
vn 0.003858 -0.999992 -0.000392
vn 0.002265 -0.978088 0.208180
vn 0.036913 -0.995508 -0.087182
vn -0.017670 -0.998883 -0.043822
vn -0.017473 -0.998826 0.045191
vn -0.002765 0.999989 0.003794
vn -0.000826 1.000000 0.000156
vn -0.000400 0.999999 -0.001074
vn -0.001778 0.999993 -0.003241
vn 1.000000 0.000000 0.000001
vn -1.000000 0.000000 -0.000000
vn 0.000000 0.000000 -1.000000
vn 0.000001 0.000000 -1.000000
vn -0.000001 0.000000 1.000000
vn -0.258039 -0.966134 0.000000
vn 0.966233 -0.257665 -0.001455
vn -0.965967 0.258656 -0.002019
vn 0.267948 -0.963433 0.000000
vn 0.963258 0.268569 0.002276
vn -0.963549 -0.267528 0.001488
usemtl Material
s off
f 65//1 57//1 3//1 13//1
f 40//2 21//2 7//2 41//2
f 12//3 20//3 6//3 2//3
f 57//4 41//4 7//4 3//4
f 16//5 24//5 8//5 4//5
f 31//6 49//6 4//6 8//6
f 49//7 45//7 16//7 4//7
f 45//8 61//8 15//8 16//8
f 61//9 27//9 14//9 15//9
f 27//10 65//10 13//10 14//10
f 31//11 8//11 24//11 56//11
f 56//12 24//12 23//12 26//12
f 26//12 23//12 22//12 36//12
f 36//12 22//12 21//12 40//12
f 1//13 5//13 17//13 9//13
f 9//14 17//14 18//14 10//14
f 10//15 18//15 19//15 11//15
f 11//16 19//16 20//16 12//16
f 3//17 7//17 21//17 13//17
f 13//18 21//18 22//18 14//18
f 14//19 22//19 23//19 15//19
f 15//20 23//20 24//20 16//20
f 34//21 52//21 51//21 33//21
f 60//22 44//22 43//22 59//22
f 38//12 39//12 42//12 43//12
f 67//23 59//23 58//23 66//23
f 32//24 50//24 49//24 31//24
f 59//25 43//25 42//25 58//25
f 51//26 47//26 46//26 50//26
f 33//27 51//27 50//27 32//27
f 58//28 42//28 41//28 57//28
f 66//29 58//29 57//29 65//29
f 20//30 37//30 44//30 6//30
f 12//31 2//31 60//31 68//31
f 2//32 6//32 44//32 60//32
f 5//33 1//33 52//33 34//33
f 52//34 48//34 47//34 51//34
f 1//35 9//35 48//35 52//35
f 50//36 46//36 45//36 49//36
f 68//37 60//37 59//37 67//37
f 37//38 38//38 43//38 44//38
f 39//39 40//39 41//39 42//39
f 9//40 10//40 64//40 48//40
f 48//41 64//41 63//41 47//41
f 63//42 62//42 75//42 76//42
f 46//43 62//43 61//43 45//43
f 10//44 11//44 30//44 64//44
f 64//45 30//45 29//45 63//45
f 63//46 29//46 28//46 62//46
f 62//47 28//47 27//47 61//47
f 11//48 12//48 68//48 30//48
f 30//49 68//49 67//49 29//49
f 67//42 66//42 71//42 72//42
f 28//50 66//50 65//50 27//50
f 5//51 34//51 53//51 17//51
f 34//52 33//52 54//52 53//52
f 33//53 32//53 55//53 54//53
f 32//54 31//54 56//54 55//54
f 17//12 53//12 25//12 18//12
f 35//55 25//55 77//55 81//55
f 38//42 37//42 85//42 86//42
f 56//56 26//56 80//56 92//56
f 18//12 25//12 35//12 19//12
f 55//57 56//57 92//57 91//57
f 37//55 35//55 81//55 85//55
f 53//58 54//58 90//58 89//58
f 19//12 35//12 37//12 20//12
f 26//56 36//56 84//56 80//56
f 39//59 38//59 86//59 87//59
f 25//55 53//55 89//55 77//55
f 70//60 72//60 71//60 69//60
f 29//61 67//61 72//61 70//61
f 28//57 29//57 70//57 69//57
f 66//62 28//62 69//62 71//62
f 74//63 76//63 75//63 73//63
f 47//64 63//64 76//64 74//64
f 46//57 47//57 74//57 73//57
f 62//65 46//65 73//65 75//65
f 89//12 90//12 78//12 77//12
f 90//12 91//12 79//12 78//12
f 91//12 92//12 80//12 79//12
f 77//12 78//12 82//12 81//12
f 78//12 79//12 83//12 82//12
f 79//12 80//12 84//12 83//12
f 81//12 82//12 86//12 85//12
f 82//12 83//12 87//12 86//12
f 83//12 84//12 88//12 87//12
f 54//57 55//57 91//57 90//57
f 40//59 39//59 87//59 88//59
f 36//56 40//56 88//56 84//56
