# Blender v2.67 (sub 0) OBJ File: ''
# www.blender.org
mtllib essai_000015.mtl
o Cube
v 0.963305 2.061435 -1.000000
v 0.964296 2.307009 1.000000
v -0.962181 2.061821 1.000000
v -0.963215 2.306672 -1.000000
v 0.602237 4.176815 -0.589454
v 0.583513 4.184060 0.589455
v -0.599748 4.178108 0.589454
v -0.580785 4.184303 -0.589454
v 0.968007 2.095307 -0.600000
v 0.975748 2.152264 -0.200000
v 0.976266 2.214427 0.200000
v 0.968859 2.272210 0.600000
v -0.967070 2.095605 0.600000
v -0.975115 2.152449 0.200000
v -0.975492 2.214403 -0.200000
v -0.967895 2.271979 -0.600000
v 0.589455 4.183513 -0.353672
v 0.589455 4.183513 -0.117891
v 0.589454 4.183513 0.117891
v 0.589454 4.183513 0.353673
v -0.589455 4.183513 0.353673
v -0.589455 4.183513 0.117891
v -0.589455 4.183513 -0.117891
v -0.589455 4.183513 -0.353673
v 0.353673 4.183513 -0.117891
v -0.353673 4.183513 -0.117891
v -0.574133 2.126160 0.200000
v -0.182444 2.118304 0.200000
v 0.187673 2.251188 0.200000
v 0.576252 2.242086 0.200000
v -0.348071 4.183396 -0.589454
v -0.115321 4.183158 -0.589454
v 0.120814 4.182751 -0.589454
v 0.361249 4.180565 -0.589454
v 0.353673 4.183513 0.117891
v -0.353673 4.183513 0.117891
v 0.353672 4.183513 0.353673
v 0.117891 4.183513 0.353673
v -0.117891 4.183513 0.353673
v -0.353673 4.183513 0.353673
v -0.358190 4.181753 0.589455
v -0.117891 4.183513 0.589455
v 0.117891 4.183513 0.589455
v 0.351248 4.183464 0.589455
v -0.572084 2.287111 -0.600000
v -0.186159 2.255914 -0.600000
v 0.185019 2.110370 -0.600000
v 0.571904 2.079854 -0.600000
v -0.575278 2.277478 -1.000000
v -0.190820 2.222479 -1.000000
v 0.190482 2.144361 -1.000000
v 0.575109 2.089563 -1.000000
v 0.353673 4.183513 -0.353672
v 0.117891 4.183513 -0.353673
v -0.117891 4.183513 -0.353673
v -0.353673 4.183513 -0.353673
v -0.573814 2.090023 1.000000
v -0.189027 2.144925 1.000000
v 0.192231 2.223028 1.000000
v 0.576501 2.277917 1.000000
v -0.574979 2.241392 -0.200000
v -0.185495 2.249332 -0.200000
v 0.184868 2.118299 -0.200000
v 0.575343 2.126265 -0.200000
v -0.570441 2.080256 0.600000
v -0.182779 2.111539 0.600000
v 0.188324 2.256872 0.600000
v 0.573457 2.287705 0.600000
v 0.582873 0.259922 0.200000
v 0.952473 0.412879 0.200000
v 0.582873 0.259922 0.600000
v 0.952473 0.412879 0.600000
v -0.947653 0.410456 -0.600000
v -0.577839 0.258019 -0.600000
v -0.947653 0.410456 -0.200000
v -0.577839 0.258019 -0.200000
v 0.353673 4.683513 -0.117891
v 0.117891 4.683513 -0.117891
v -0.117891 4.683513 -0.117891
v -0.353673 4.683513 -0.117891
v 0.353673 4.683513 0.117891
v 0.117891 4.683513 0.117891
v -0.117891 4.683513 0.117891
v -0.353673 4.683513 0.117891
v 0.353672 4.683513 0.353673
v 0.117891 4.683513 0.353673
v -0.117891 4.683513 0.353673
v -0.353673 4.683513 0.353673
v 0.353673 4.683513 -0.353672
v 0.117891 4.683513 -0.353673
v -0.117891 4.683513 -0.353673
v -0.353673 4.683513 -0.353673
vn 0.016364 -0.999415 -0.030034
vn -0.007635 0.999859 0.014950
vn 0.980267 0.197608 0.005210
vn -0.009748 0.192794 0.981191
vn -0.980066 0.198446 -0.009503
vn 0.010209 0.210497 -0.977541
vn -0.017931 -0.999348 -0.031338
vn 0.052392 -0.990492 -0.127204
vn 0.000854 -0.976339 -0.216243
vn -0.051714 -0.990621 -0.126473
vn 0.001936 0.999997 0.001488
vn 0.000000 1.000000 0.000000
vn 0.984909 0.173064 0.001473
vn 0.982387 0.184669 -0.028504
vn 0.981649 0.189714 -0.019349
vn 0.981137 0.193215 -0.006130
vn -0.984793 0.173714 0.002336
vn -0.982434 0.184358 0.028914
vn -0.981718 0.189389 0.019038
vn -0.981219 0.192812 0.005736
vn 0.017885 0.196173 -0.980406
vn -0.018323 0.206358 0.978305
vn 0.284690 -0.958619 0.000284
vn 0.018463 0.206304 -0.978314
vn -0.025447 0.201040 0.979252
vn -0.284914 -0.958553 -0.000954
vn 0.025566 0.201024 -0.979253
vn -0.017779 0.196137 0.980415
vn 0.110719 -0.992336 0.054860
vn -0.001273 0.999999 -0.001080
vn 0.017350 -0.999360 0.031277
vn -0.010083 0.210576 0.977525
vn 0.009772 0.192863 -0.981177
vn -0.109741 -0.992415 -0.055400
vn -0.016152 -0.999413 0.030216
vn -0.111028 -0.992321 0.054511
vn 0.110561 -0.992342 -0.055084
vn 0.000104 1.000000 0.000104
vn -0.003696 0.999986 0.003696
vn 0.051549 -0.990528 0.127264
vn -0.028929 -0.997275 0.067858
vn -0.000000 0.000000 1.000000
vn -0.029917 -0.997418 -0.065291
vn -0.002024 -0.976131 0.217174
vn -0.001393 -0.954915 0.296878
vn 0.002500 -0.999994 0.002308
vn 0.000102 -0.955743 -0.294201
vn -0.053733 -0.990404 0.127327
vn 0.028018 -0.997553 0.064048
vn 0.029981 -0.997383 -0.065791
vn 0.007864 0.999767 -0.020109
vn 0.004590 0.999959 -0.007762
vn 0.000863 0.999997 -0.002356
vn 0.000508 0.999999 -0.000989
vn 1.000000 0.000000 0.000001
vn -1.000000 0.000000 -0.000000
vn 0.000000 0.000000 -1.000000
vn 0.000001 0.000000 -1.000000
vn -0.000001 0.000000 1.000000
vn 0.382394 -0.924000 -0.000000
vn 0.923546 0.383471 -0.003476
vn -0.924380 -0.381455 -0.003613
vn -0.381093 -0.924537 0.000000
vn 0.924948 -0.380072 0.003941
vn -0.924089 0.382156 0.003910
usemtl Material
s off
f 65//1 57//1 3//1 13//1
f 40//2 21//2 7//2 41//2
f 12//3 20//3 6//3 2//3
f 57//4 41//4 7//4 3//4
f 16//5 24//5 8//5 4//5
f 31//6 49//6 4//6 8//6
f 49//7 45//7 16//7 4//7
f 45//8 61//8 15//8 16//8
f 61//9 27//9 14//9 15//9
f 27//10 65//10 13//10 14//10
f 31//11 8//11 24//11 56//11
f 56//12 24//12 23//12 26//12
f 26//12 23//12 22//12 36//12
f 36//12 22//12 21//12 40//12
f 1//13 5//13 17//13 9//13
f 9//14 17//14 18//14 10//14
f 10//15 18//15 19//15 11//15
f 11//16 19//16 20//16 12//16
f 3//17 7//17 21//17 13//17
f 13//18 21//18 22//18 14//18
f 14//19 22//19 23//19 15//19
f 15//20 23//20 24//20 16//20
f 34//21 52//21 51//21 33//21
f 60//22 44//22 43//22 59//22
f 38//12 39//12 42//12 43//12
f 67//23 59//23 58//23 66//23
f 32//24 50//24 49//24 31//24
f 59//25 43//25 42//25 58//25
f 51//26 47//26 46//26 50//26
f 33//27 51//27 50//27 32//27
f 58//28 42//28 41//28 57//28
f 66//29 58//29 57//29 65//29
f 20//30 37//30 44//30 6//30
f 12//31 2//31 60//31 68//31
f 2//32 6//32 44//32 60//32
f 5//33 1//33 52//33 34//33
f 52//34 48//34 47//34 51//34
f 1//35 9//35 48//35 52//35
f 50//36 46//36 45//36 49//36
f 68//37 60//37 59//37 67//37
f 37//38 38//38 43//38 44//38
f 39//39 40//39 41//39 42//39
f 9//40 10//40 64//40 48//40
f 48//41 64//41 63//41 47//41
f 63//42 62//42 75//42 76//42
f 46//43 62//43 61//43 45//43
f 10//44 11//44 30//44 64//44
f 64//45 30//45 29//45 63//45
f 63//46 29//46 28//46 62//46
f 62//47 28//47 27//47 61//47
f 11//48 12//48 68//48 30//48
f 30//49 68//49 67//49 29//49
f 67//42 66//42 71//42 72//42
f 28//50 66//50 65//50 27//50
f 5//51 34//51 53//51 17//51
f 34//52 33//52 54//52 53//52
f 33//53 32//53 55//53 54//53
f 32//54 31//54 56//54 55//54
f 17//12 53//12 25//12 18//12
f 35//55 25//55 77//55 81//55
f 38//42 37//42 85//42 86//42
f 56//56 26//56 80//56 92//56
f 18//12 25//12 35//12 19//12
f 55//57 56//57 92//57 91//57
f 37//55 35//55 81//55 85//55
f 53//58 54//58 90//58 89//58
f 19//12 35//12 37//12 20//12
f 26//56 36//56 84//56 80//56
f 39//59 38//59 86//59 87//59
f 25//55 53//55 89//55 77//55
f 70//60 72//60 71//60 69//60
f 29//61 67//61 72//61 70//61
f 28//57 29//57 70//57 69//57
f 66//62 28//62 69//62 71//62
f 74//63 76//63 75//63 73//63
f 47//64 63//64 76//64 74//64
f 46//57 47//57 74//57 73//57
f 62//65 46//65 73//65 75//65
f 89//12 90//12 78//12 77//12
f 90//12 91//12 79//12 78//12
f 91//12 92//12 80//12 79//12
f 77//12 78//12 82//12 81//12
f 78//12 79//12 83//12 82//12
f 79//12 80//12 84//12 83//12
f 81//12 82//12 86//12 85//12
f 82//12 83//12 87//12 86//12
f 83//12 84//12 88//12 87//12
f 54//57 55//57 91//57 90//57
f 40//59 39//59 87//59 88//59
f 36//56 40//56 88//56 84//56
