# Blender v2.67 (sub 0) OBJ File: ''
# www.blender.org
mtllib essai_000014.mtl
o Cube
v 0.960313 2.072027 -1.000000
v 0.961378 2.326943 1.000000
v -0.959191 2.072580 1.000000
v -0.960220 2.326734 -1.000000
v 0.602694 4.191744 -0.589454
v 0.583275 4.199336 0.589455
v -0.600108 4.193115 0.589454
v -0.580431 4.199566 -0.589454
v 0.965399 2.107196 -0.600000
v 0.973770 2.166333 -0.200000
v 0.974328 2.230862 0.200000
v 0.966315 2.290828 0.600000
v -0.964460 2.107638 0.600000
v -0.973129 2.166625 0.200000
v -0.973515 2.230931 -0.200000
v -0.965287 2.290712 -0.600000
v 0.589455 4.198815 -0.353672
v 0.589455 4.198815 -0.117891
v 0.589454 4.198815 0.117891
v 0.589454 4.198815 0.353673
v -0.589455 4.198815 0.353673
v -0.589455 4.198815 0.117891
v -0.589455 4.198815 -0.117891
v -0.589455 4.198815 -0.353673
v 0.353673 4.198815 -0.117891
v -0.353673 4.198815 -0.117891
v -0.572097 2.139342 0.200000
v -0.181151 2.131180 0.200000
v 0.186569 2.269056 0.200000
v 0.574292 2.259576 0.200000
v -0.347848 4.198648 -0.589454
v -0.115221 4.198425 -0.589454
v 0.120925 4.197999 -0.589454
v 0.361528 4.195687 -0.589454
v 0.353673 4.198815 0.117891
v -0.353673 4.198815 0.117891
v 0.353672 4.198815 0.353673
v 0.117891 4.198815 0.353673
v -0.117891 4.198815 0.353673
v -0.353673 4.198815 0.353673
v -0.358352 4.196950 0.589455
v -0.117891 4.198815 0.589455
v 0.117891 4.198815 0.589455
v 0.351153 4.198745 0.589455
v -0.569807 2.306412 -0.600000
v -0.185006 2.274001 -0.600000
v 0.183814 2.122867 -0.600000
v 0.569614 2.091165 -0.600000
v -0.573260 2.296406 -1.000000
v -0.190065 2.239285 -1.000000
v 0.189710 2.158160 -1.000000
v 0.573080 2.101248 -1.000000
v 0.353673 4.198815 -0.353672
v 0.117891 4.198815 -0.353673
v -0.117891 4.198815 -0.353673
v -0.353673 4.198815 -0.353673
v -0.571770 2.101833 1.000000
v -0.188216 2.158793 1.000000
v 0.191538 2.239828 1.000000
v 0.574556 2.296771 1.000000
v -0.572955 2.258950 -0.200000
v -0.184299 2.267171 -0.200000
v 0.183644 2.131098 -0.200000
v 0.573328 2.139347 -0.200000
v -0.568133 2.091702 0.600000
v -0.181519 2.124157 0.600000
v 0.187270 2.274958 0.600000
v 0.571260 2.306926 0.600000
v 0.612967 0.284576 0.200000
v 0.980133 0.443288 0.200000
v 0.612967 0.284576 0.600000
v 0.980133 0.443288 0.600000
v -0.975719 0.441023 -0.600000
v -0.608372 0.282731 -0.600000
v -0.975719 0.441023 -0.200000
v -0.608372 0.282731 -0.200000
v 0.353673 4.698815 -0.117891
v 0.117891 4.698815 -0.117891
v -0.117891 4.698815 -0.117891
v -0.353673 4.698815 -0.117891
v 0.353673 4.698815 0.117891
v 0.117891 4.698815 0.117891
v -0.117891 4.698815 0.117891
v -0.353673 4.698815 0.117891
v 0.353672 4.698815 0.353673
v 0.117891 4.698815 0.353673
v -0.117891 4.698815 0.353673
v -0.353673 4.698815 0.353673
v 0.353673 4.698815 -0.353672
v 0.117891 4.698815 -0.353673
v -0.117891 4.698815 -0.353673
v -0.353673 4.698815 -0.353673
vn 0.016980 -0.999370 -0.031173
vn -0.008029 0.999843 0.015780
vn 0.980426 0.196805 0.005801
vn -0.010123 0.192494 0.981246
vn -0.980212 0.197684 -0.010291
vn 0.010636 0.210894 -0.977451
vn -0.018682 -0.999296 -0.032534
vn 0.054357 -0.989770 -0.131910
vn 0.000895 -0.974577 -0.224049
vn -0.053655 -0.989917 -0.131093
vn 0.001960 0.999997 0.001298
vn 0.000000 1.000000 0.000000
vn 0.985198 0.171415 0.001246
vn 0.982558 0.183520 -0.030007
vn 0.981815 0.188780 -0.020022
vn 0.981306 0.192366 -0.005776
vn -0.985073 0.172115 0.002691
vn -0.982603 0.183215 0.030397
vn -0.981885 0.188453 0.019656
vn -0.981390 0.191950 0.005349
vn 0.018602 0.195981 -0.980431
vn -0.019063 0.206572 0.978246
vn 0.295849 -0.955235 0.000308
vn 0.019231 0.206522 -0.978253
vn -0.026466 0.201036 0.979226
vn -0.296325 -0.955087 -0.001000
vn 0.026616 0.201019 -0.979226
vn -0.018472 0.195948 0.980440
vn 0.115138 -0.991714 0.056983
vn -0.001263 0.999999 -0.000977
vn 0.017989 -0.999311 0.032464
vn -0.010486 0.210964 0.977438
vn 0.010163 0.192557 -0.981233
vn -0.114260 -0.991780 -0.057592
vn -0.016835 -0.999366 0.031371
vn -0.115607 -0.991677 0.056667
vn 0.114960 -0.991720 -0.057226
vn 0.000150 1.000000 0.000150
vn -0.003917 0.999985 0.003917
vn 0.053476 -0.989810 0.131974
vn -0.030155 -0.997060 0.070442
vn -0.000000 0.000000 1.000000
vn -0.031186 -0.997213 -0.067771
vn -0.002103 -0.974350 0.225028
vn -0.001508 -0.951663 0.307142
vn 0.002451 -0.999994 0.002440
vn 0.000073 -0.952563 -0.304342
vn -0.055779 -0.989680 0.131992
vn 0.029064 -0.997365 0.066474
vn 0.031155 -0.997180 -0.068276
vn 0.008266 0.999740 -0.021254
vn 0.004852 0.999954 -0.008252
vn 0.000903 0.999996 -0.002547
vn 0.000475 0.999999 -0.001174
vn 1.000000 0.000000 0.000001
vn -1.000000 0.000000 -0.000000
vn 0.000000 0.000000 -1.000000
vn 0.000001 0.000000 -1.000000
vn -0.000001 0.000000 1.000000
vn 0.396779 -0.917914 0.000000
vn 0.917409 0.397929 -0.003739
vn -0.918341 -0.395770 -0.003897
vn -0.395731 -0.918367 -0.000000
vn 0.918828 -0.394635 0.004256
vn -0.917867 0.396867 0.004200
usemtl Material
s off
f 65//1 57//1 3//1 13//1
f 40//2 21//2 7//2 41//2
f 12//3 20//3 6//3 2//3
f 57//4 41//4 7//4 3//4
f 16//5 24//5 8//5 4//5
f 31//6 49//6 4//6 8//6
f 49//7 45//7 16//7 4//7
f 45//8 61//8 15//8 16//8
f 61//9 27//9 14//9 15//9
f 27//10 65//10 13//10 14//10
f 31//11 8//11 24//11 56//11
f 56//12 24//12 23//12 26//12
f 26//12 23//12 22//12 36//12
f 36//12 22//12 21//12 40//12
f 1//13 5//13 17//13 9//13
f 9//14 17//14 18//14 10//14
f 10//15 18//15 19//15 11//15
f 11//16 19//16 20//16 12//16
f 3//17 7//17 21//17 13//17
f 13//18 21//18 22//18 14//18
f 14//19 22//19 23//19 15//19
f 15//20 23//20 24//20 16//20
f 34//21 52//21 51//21 33//21
f 60//22 44//22 43//22 59//22
f 38//12 39//12 42//12 43//12
f 67//23 59//23 58//23 66//23
f 32//24 50//24 49//24 31//24
f 59//25 43//25 42//25 58//25
f 51//26 47//26 46//26 50//26
f 33//27 51//27 50//27 32//27
f 58//28 42//28 41//28 57//28
f 66//29 58//29 57//29 65//29
f 20//30 37//30 44//30 6//30
f 12//31 2//31 60//31 68//31
f 2//32 6//32 44//32 60//32
f 5//33 1//33 52//33 34//33
f 52//34 48//34 47//34 51//34
f 1//35 9//35 48//35 52//35
f 50//36 46//36 45//36 49//36
f 68//37 60//37 59//37 67//37
f 37//38 38//38 43//38 44//38
f 39//39 40//39 41//39 42//39
f 9//40 10//40 64//40 48//40
f 48//41 64//41 63//41 47//41
f 63//42 62//42 75//42 76//42
f 46//43 62//43 61//43 45//43
f 10//44 11//44 30//44 64//44
f 64//45 30//45 29//45 63//45
f 63//46 29//46 28//46 62//46
f 62//47 28//47 27//47 61//47
f 11//48 12//48 68//48 30//48
f 30//49 68//49 67//49 29//49
f 67//42 66//42 71//42 72//42
f 28//50 66//50 65//50 27//50
f 5//51 34//51 53//51 17//51
f 34//52 33//52 54//52 53//52
f 33//53 32//53 55//53 54//53
f 32//54 31//54 56//54 55//54
f 17//12 53//12 25//12 18//12
f 35//55 25//55 77//55 81//55
f 38//42 37//42 85//42 86//42
f 56//56 26//56 80//56 92//56
f 18//12 25//12 35//12 19//12
f 55//57 56//57 92//57 91//57
f 37//55 35//55 81//55 85//55
f 53//58 54//58 90//58 89//58
f 19//12 35//12 37//12 20//12
f 26//56 36//56 84//56 80//56
f 39//59 38//59 86//59 87//59
f 25//55 53//55 89//55 77//55
f 70//60 72//60 71//60 69//60
f 29//61 67//61 72//61 70//61
f 28//57 29//57 70//57 69//57
f 66//62 28//62 69//62 71//62
f 74//63 76//63 75//63 73//63
f 47//64 63//64 76//64 74//64
f 46//57 47//57 74//57 73//57
f 62//65 46//65 73//65 75//65
f 89//12 90//12 78//12 77//12
f 90//12 91//12 79//12 78//12
f 91//12 92//12 80//12 79//12
f 77//12 78//12 82//12 81//12
f 78//12 79//12 83//12 82//12
f 79//12 80//12 84//12 83//12
f 81//12 82//12 86//12 85//12
f 82//12 83//12 87//12 86//12
f 83//12 84//12 88//12 87//12
f 54//57 55//57 91//57 90//57
f 40//59 39//59 87//59 88//59
f 36//56 40//56 88//56 84//56
