# Blender v2.67 (sub 0) OBJ File: 'essai.blend'
# www.blender.org
mtllib essai-stand_000003.mtl
o Cube
v 1.000710 2.008852 -0.999164
v 0.999109 2.009974 1.000835
v -1.000887 2.013474 0.999227
v -0.999284 2.012338 -1.000767
v 0.596853 4.008537 -0.590623
v 0.595111 4.009789 0.588271
v -0.583830 4.013740 0.586467
v -0.581995 4.012475 -0.592451
v 1.000436 2.008827 -0.599065
v 1.000092 2.008712 -0.198901
v 0.999669 2.008995 0.201104
v 0.999359 2.009575 0.600938
v -1.000632 2.013495 0.599136
v -1.000320 2.013604 0.198985
v -0.999898 2.013309 -0.201015
v -0.999555 2.012734 -0.600861
v 0.596621 4.008748 -0.354863
v 0.596254 4.009005 -0.119082
v 0.595887 4.009263 0.116700
v 0.595520 4.009521 0.352481
v -0.583381 4.013520 0.350642
v -0.583014 4.013262 0.114861
v -0.582647 4.013004 -0.120921
v -0.582280 4.012747 -0.356702
v 0.360474 4.009805 -0.119450
v -0.346867 4.012205 -0.120553
v -0.600216 2.012185 0.199603
v -0.200008 2.011185 0.199996
v 0.199993 2.011163 0.200005
v 0.599780 2.010333 0.200455
v -0.346187 4.011685 -0.592097
v -0.110378 4.010890 -0.591740
v 0.125398 4.010094 -0.591373
v 0.361130 4.009309 -0.590996
v 0.360107 4.010063 0.116332
v -0.347234 4.012462 0.115229
v 0.359740 4.010321 0.352113
v 0.123960 4.011120 0.351745
v -0.111820 4.011920 0.351378
v -0.347601 4.012720 0.351010
v -0.348003 4.012967 0.586808
v -0.112187 4.012177 0.587159
v 0.123593 4.011378 0.587527
v 0.359355 4.010580 0.587899
v -0.599705 2.011688 -0.600333
v -0.199963 2.011169 -0.600012
v 0.200033 2.011111 -0.599984
v 0.600290 2.010134 -0.599618
v -0.599370 2.011586 -1.000394
v -0.199470 2.011003 -1.000094
v 0.200528 2.010487 -0.999856
v 0.600626 2.009744 -0.999547
v 0.360840 4.009547 -0.355231
v 0.125060 4.010347 -0.355599
v -0.110720 4.011147 -0.355967
v -0.346500 4.011947 -0.356334
v -0.600782 2.012581 0.999603
v -0.200659 2.011839 0.999905
v 0.199338 2.011320 1.000144
v 0.599214 2.010730 1.000454
v -0.599933 2.011982 -0.200395
v -0.199998 2.011177 -0.200004
v 0.200003 2.011151 -0.199993
v 0.600063 2.010140 -0.199548
v -0.600421 2.012194 0.599665
v -0.200053 2.011232 0.599988
v 0.199943 2.011167 0.600019
v 0.599575 2.010630 0.600384
v -0.200000 0.011169 0.200000
v 0.200000 0.011169 0.200000
v -0.200000 0.011169 0.600000
v 0.200000 0.011169 0.600000
v -0.200000 0.011169 -0.600000
v 0.200000 0.011169 -0.600000
v -0.200000 0.011169 -0.200000
v 0.200000 0.011169 -0.200000
v 0.362171 4.509802 -0.119993
v 0.126390 4.510602 -0.120361
v -0.109390 4.511402 -0.120729
v -0.345170 4.512201 -0.121097
v 0.361804 4.510059 0.115788
v 0.126024 4.510859 0.115420
v -0.109757 4.511660 0.115053
v -0.345537 4.512459 0.114685
v 0.361437 4.510317 0.351569
v 0.125657 4.511117 0.351202
v -0.110123 4.511917 0.350834
v -0.345904 4.512717 0.350466
v 0.362538 4.509544 -0.355775
v 0.126757 4.510345 -0.356143
v -0.109023 4.511144 -0.356510
v -0.344803 4.511944 -0.356878
vn -0.002741 -0.999996 0.000456
vn 0.003337 0.999994 -0.000984
vn 0.980181 0.198102 0.000809
vn -0.000574 0.202189 0.979346
vn -0.978886 0.204403 -0.001072
vn 0.001604 0.199758 -0.979844
vn -0.002248 -0.999997 0.000622
vn -0.002968 -0.999995 0.001084
vn -0.003434 -0.999994 0.000618
vn -0.003398 -0.999994 -0.000127
vn 0.003373 0.999994 -0.001126
vn 0.003394 0.999994 -0.001088
vn 0.003393 0.999994 -0.001087
vn 0.003393 0.999994 -0.001089
vn 0.980236 0.197829 0.000722
vn 0.980236 0.197827 0.001052
vn 0.980224 0.197886 0.001049
vn 0.980209 0.197964 0.000783
vn -0.978973 0.203987 -0.001146
vn -0.978935 0.204170 -0.001093
vn -0.978913 0.204271 -0.001392
vn -0.978896 0.204354 -0.001361
vn 0.001538 0.200282 -0.979737
vn -0.000611 0.201997 0.979386
vn -0.000731 -0.999999 0.000948
vn 0.001445 0.199918 -0.979812
vn -0.000516 0.202066 0.979372
vn -0.000718 -0.999999 0.000989
vn 0.001346 0.200100 -0.979775
vn -0.000519 0.202133 0.979358
vn -0.002130 -0.999997 0.001240
vn 0.003377 0.999994 -0.001113
vn -0.002267 -0.999997 0.000622
vn -0.000668 0.201939 0.979398
vn 0.001689 0.200436 -0.979705
vn -0.002149 -0.999997 0.001266
vn -0.002750 -0.999996 0.000454
vn -0.001379 -0.999999 0.000336
vn -0.001409 -0.999999 0.000314
vn 0.003389 0.999994 -0.001091
vn 0.003372 0.999994 -0.001063
vn -0.003419 -0.999994 -0.000139
vn -0.002484 -0.999997 0.000057
vn -0.000015 -0.000001 1.000000
vn -0.001656 -0.999999 0.000375
vn -0.003460 -0.999994 0.000592
vn -0.002301 -0.999997 0.000254
vn -0.000059 -1.000000 0.000024
vn -0.002256 -0.999997 0.000263
vn -0.002994 -0.999995 0.001095
vn -0.001710 -0.999999 0.000376
vn -0.000039 -0.000002 1.000000
vn -0.002450 -0.999997 0.000070
vn 0.003334 0.999994 -0.000948
vn 0.003363 0.999994 -0.001039
vn 0.003386 0.999994 -0.001078
vn 0.003384 0.999994 -0.001095
vn 0.999993 -0.003392 0.001560
vn -0.001556 0.001093 0.999998
vn -0.999993 0.003392 -0.001560
vn 0.001556 -0.001093 -0.999998
vn -0.999993 0.003392 -0.001559
vn 0.000000 -1.000000 0.000000
vn 1.000000 0.000016 0.000063
vn 0.000012 0.000000 -1.000000
vn -1.000000 -0.000015 -0.000056
vn 1.000000 -0.000009 0.000037
vn 0.000035 0.000001 -1.000000
vn -1.000000 0.000010 -0.000043
vn 0.003395 0.999994 -0.001087
vn 0.003392 0.999994 -0.001088
usemtl Material
s off
f 65//1 57//1 3//1 13//1
f 40//2 21//2 7//2 41//2
f 12//3 20//3 6//3 2//3
f 57//4 41//4 7//4 3//4
f 16//5 24//5 8//5 4//5
f 31//6 49//6 4//6 8//6
f 49//7 45//7 16//7 4//7
f 45//8 61//8 15//8 16//8
f 61//9 27//9 14//9 15//9
f 27//10 65//10 13//10 14//10
f 31//11 8//11 24//11 56//11
f 56//12 24//12 23//12 26//12
f 26//13 23//13 22//13 36//13
f 36//14 22//14 21//14 40//14
f 1//15 5//15 17//15 9//15
f 9//16 17//16 18//16 10//16
f 10//17 18//17 19//17 11//17
f 11//18 19//18 20//18 12//18
f 3//19 7//19 21//19 13//19
f 13//20 21//20 22//20 14//20
f 14//21 22//21 23//21 15//21
f 15//22 23//22 24//22 16//22
f 34//23 52//23 51//23 33//23
f 60//24 44//24 43//24 59//24
f 38//13 39//13 42//13 43//13
f 67//25 59//25 58//25 66//25
f 32//26 50//26 49//26 31//26
f 59//27 43//27 42//27 58//27
f 51//28 47//28 46//28 50//28
f 33//29 51//29 50//29 32//29
f 58//30 42//30 41//30 57//30
f 66//31 58//31 57//31 65//31
f 20//32 37//32 44//32 6//32
f 12//33 2//33 60//33 68//33
f 2//34 6//34 44//34 60//34
f 5//35 1//35 52//35 34//35
f 52//36 48//36 47//36 51//36
f 1//37 9//37 48//37 52//37
f 50//38 46//38 45//38 49//38
f 68//39 60//39 59//39 67//39
f 37//40 38//40 43//40 44//40
f 39//41 40//41 41//41 42//41
f 9//42 10//42 64//42 48//42
f 48//43 64//43 63//43 47//43
f 63//44 62//44 75//44 76//44
f 46//45 62//45 61//45 45//45
f 10//46 11//46 30//46 64//46
f 64//47 30//47 29//47 63//47
f 63//48 29//48 28//48 62//48
f 62//49 28//49 27//49 61//49
f 11//50 12//50 68//50 30//50
f 30//51 68//51 67//51 29//51
f 67//52 66//52 71//52 72//52
f 28//53 66//53 65//53 27//53
f 5//54 34//54 53//54 17//54
f 34//55 33//55 54//55 53//55
f 33//56 32//56 55//56 54//56
f 32//57 31//57 56//57 55//57
f 17//13 53//13 25//13 18//13
f 35//58 25//58 77//58 81//58
f 38//59 37//59 85//59 86//59
f 56//60 26//60 80//60 92//60
f 18//14 25//14 35//14 19//14
f 55//61 56//61 92//61 91//61
f 37//58 35//58 81//58 85//58
f 53//61 54//61 90//61 89//61
f 19//12 35//12 37//12 20//12
f 26//62 36//62 84//62 80//62
f 39//59 38//59 86//59 87//59
f 25//58 53//58 89//58 77//58
f 70//63 72//63 71//63 69//63
f 29//64 67//64 72//64 70//64
f 28//65 29//65 70//65 69//65
f 66//66 28//66 69//66 71//66
f 74//63 76//63 75//63 73//63
f 47//67 63//67 76//67 74//67
f 46//68 47//68 74//68 73//68
f 62//69 46//69 73//69 75//69
f 89//70 90//70 78//70 77//70
f 90//71 91//71 79//71 78//71
f 91//12 92//12 80//12 79//12
f 77//70 78//70 82//70 81//70
f 78//12 79//12 83//12 82//12
f 79//14 80//14 84//14 83//14
f 81//12 82//12 86//12 85//12
f 82//70 83//70 87//70 86//70
f 83//12 84//12 88//12 87//12
f 54//61 55//61 91//61 90//61
f 40//59 39//59 87//59 88//59
f 36//62 40//62 88//62 84//62
