# Blender v2.67 (sub 0) OBJ File: 'essai.blend'
# www.blender.org
mtllib essai-stand_000010.mtl
o Cube
v 1.000506 2.009519 -0.999405
v 0.999366 2.010318 1.000595
v -1.000632 2.012810 0.999450
v -0.999491 2.012002 -1.000546
v 0.594723 4.009298 -0.590288
v 0.593482 4.010188 0.588611
v -0.585451 4.013002 0.587327
v -0.584144 4.012102 -0.591589
v 1.000312 2.009501 -0.599334
v 1.000067 2.009419 -0.199218
v 0.999766 2.009621 0.200786
v 0.999545 2.010034 0.600668
v -1.000451 2.012825 0.599385
v -1.000229 2.012903 0.199278
v -0.999928 2.012693 -0.200723
v -0.999683 2.012283 -0.600613
v 0.594558 4.009448 -0.354522
v 0.594296 4.009631 -0.118740
v 0.594035 4.009814 0.117041
v 0.593773 4.009998 0.352823
v -0.585131 4.012846 0.351514
v -0.584870 4.012662 0.115733
v -0.584609 4.012479 -0.120049
v -0.584348 4.012295 -0.355831
v 0.358515 4.010201 -0.119002
v -0.348828 4.011909 -0.119787
v -0.600154 2.011892 0.199718
v -0.200006 2.011180 0.199997
v 0.199995 2.011165 0.200004
v 0.599844 2.010574 0.200324
v -0.348343 4.011540 -0.591337
v -0.112542 4.010973 -0.591083
v 0.123236 4.010406 -0.590822
v 0.358983 4.009848 -0.590554
v 0.358254 4.010384 0.116780
v -0.349089 4.012093 0.115994
v 0.357992 4.010567 0.352561
v 0.122211 4.011137 0.352300
v -0.113569 4.011706 0.352038
v -0.349350 4.012276 0.351776
v -0.349637 4.012451 0.587569
v -0.113831 4.011889 0.587819
v 0.121950 4.011320 0.588081
v 0.357719 4.010752 0.588346
v -0.599790 2.011539 -0.600237
v -0.199974 2.011169 -0.600008
v 0.200023 2.011128 -0.599989
v 0.600207 2.010432 -0.599728
v -0.599551 2.011466 -1.000281
v -0.199623 2.011051 -1.000067
v 0.200376 2.010684 -0.999898
v 0.600446 2.010155 -0.999678
v 0.358777 4.010017 -0.354784
v 0.122995 4.010587 -0.355045
v -0.112786 4.011156 -0.355307
v -0.348567 4.011726 -0.355569
v -0.600557 2.012174 0.999718
v -0.200470 2.011646 0.999932
v 0.199529 2.011276 1.000102
v 0.599441 2.010857 1.000323
v -0.599953 2.011748 -0.200281
v -0.199998 2.011175 -0.200003
v 0.200002 2.011157 -0.199995
v 0.600045 2.010437 -0.199678
v -0.600300 2.011899 0.599762
v -0.200038 2.011214 0.599991
v 0.199959 2.011168 0.600014
v 0.599698 2.010785 0.600273
v -0.200000 0.011169 0.200000
v 0.200000 0.011169 0.200000
v -0.200000 0.011169 0.600000
v 0.200000 0.011169 0.600000
v -0.200000 0.011169 -0.600000
v 0.200000 0.011169 -0.600000
v -0.200000 0.011169 -0.200000
v 0.200000 0.011169 -0.200000
v 0.359723 4.510199 -0.119389
v 0.123942 4.510769 -0.119651
v -0.111839 4.511338 -0.119913
v -0.347620 4.511908 -0.120175
v 0.359462 4.510383 0.116392
v 0.123681 4.510952 0.116130
v -0.112100 4.511521 0.115869
v -0.347881 4.512091 0.115607
v 0.359201 4.510566 0.352174
v 0.123420 4.511135 0.351912
v -0.112361 4.511704 0.351650
v -0.348142 4.512274 0.351389
v 0.359985 4.510015 -0.355171
v 0.124204 4.510585 -0.355433
v -0.111577 4.511155 -0.355695
v -0.347358 4.511724 -0.355956
vn -0.001952 -0.999998 0.000325
vn 0.002377 0.999997 -0.000701
vn 0.980007 0.198960 0.000576
vn -0.000409 0.201870 0.979412
vn -0.979086 0.203446 -0.000763
vn 0.001143 0.200139 -0.979767
vn -0.001600 -0.999999 0.000443
vn -0.002113 -0.999997 0.000772
vn -0.002445 -0.999997 0.000441
vn -0.002420 -0.999997 -0.000090
vn 0.002400 0.999997 -0.000802
vn 0.002417 0.999997 -0.000775
vn 0.980047 0.198766 0.000514
vn 0.980047 0.198764 0.000749
vn 0.980039 0.198806 0.000747
vn 0.980027 0.198862 0.000557
vn -0.979147 0.203150 -0.000816
vn -0.979120 0.203280 -0.000778
vn -0.979105 0.203353 -0.000991
vn -0.979093 0.203411 -0.000969
vn 0.001095 0.200512 -0.979691
vn -0.000436 0.201732 0.979441
vn 0.002416 0.999997 -0.000774
vn -0.000520 -1.000000 0.000674
vn 0.001029 0.200253 -0.979744
vn -0.000367 0.201782 0.979430
vn -0.000511 -1.000000 0.000704
vn 0.000958 0.200382 -0.979717
vn -0.000369 0.201829 0.979421
vn -0.001516 -0.999998 0.000883
vn 0.002404 0.999997 -0.000792
vn -0.001614 -0.999999 0.000443
vn -0.000476 0.201691 0.979449
vn 0.001203 0.200622 -0.979668
vn -0.001531 -0.999998 0.000901
vn -0.001958 -0.999998 0.000324
vn -0.000982 -1.000000 0.000239
vn -0.001003 -0.999999 0.000224
vn 0.002415 0.999997 -0.000777
vn 0.002399 0.999997 -0.000758
vn -0.002434 -0.999997 -0.000098
vn -0.001769 -0.999998 0.000041
vn -0.000010 -0.000001 1.000000
vn -0.001179 -0.999999 0.000267
vn -0.002463 -0.999997 0.000422
vn -0.001639 -0.999999 0.000181
vn -0.000042 -1.000000 0.000017
vn -0.001606 -0.999999 0.000187
vn -0.002132 -0.999997 0.000779
vn -0.001218 -0.999999 0.000268
vn -0.000028 -0.000001 1.000000
vn -0.001745 -0.999999 0.000050
vn 0.002374 0.999997 -0.000675
vn 0.002393 0.999997 -0.000740
vn 0.002411 0.999997 -0.000767
vn 0.002410 0.999997 -0.000779
vn 0.999996 -0.002415 0.001110
vn -0.001108 0.000778 0.999999
vn -0.999996 0.002415 -0.001110
vn 0.001108 -0.000778 -0.999999
vn 0.999996 -0.002415 0.001111
vn 0.999997 -0.002415 0.001110
vn 0.000000 -1.000000 0.000000
vn 1.000000 0.000011 0.000045
vn 0.000009 0.000000 -1.000000
vn -1.000000 -0.000011 -0.000040
vn 1.000000 -0.000006 0.000027
vn 0.000025 0.000001 -1.000000
vn -1.000000 0.000007 -0.000030
vn 0.002418 0.999997 -0.000776
vn 0.002416 0.999997 -0.000776
usemtl Material
s off
f 65//1 57//1 3//1 13//1
f 40//2 21//2 7//2 41//2
f 12//3 20//3 6//3 2//3
f 57//4 41//4 7//4 3//4
f 16//5 24//5 8//5 4//5
f 31//6 49//6 4//6 8//6
f 49//7 45//7 16//7 4//7
f 45//8 61//8 15//8 16//8
f 61//9 27//9 14//9 15//9
f 27//10 65//10 13//10 14//10
f 31//11 8//11 24//11 56//11
f 56//12 24//12 23//12 26//12
f 26//12 23//12 22//12 36//12
f 36//12 22//12 21//12 40//12
f 1//13 5//13 17//13 9//13
f 9//14 17//14 18//14 10//14
f 10//15 18//15 19//15 11//15
f 11//16 19//16 20//16 12//16
f 3//17 7//17 21//17 13//17
f 13//18 21//18 22//18 14//18
f 14//19 22//19 23//19 15//19
f 15//20 23//20 24//20 16//20
f 34//21 52//21 51//21 33//21
f 60//22 44//22 43//22 59//22
f 38//23 39//23 42//23 43//23
f 67//24 59//24 58//24 66//24
f 32//25 50//25 49//25 31//25
f 59//26 43//26 42//26 58//26
f 51//27 47//27 46//27 50//27
f 33//28 51//28 50//28 32//28
f 58//29 42//29 41//29 57//29
f 66//30 58//30 57//30 65//30
f 20//31 37//31 44//31 6//31
f 12//32 2//32 60//32 68//32
f 2//33 6//33 44//33 60//33
f 5//34 1//34 52//34 34//34
f 52//35 48//35 47//35 51//35
f 1//36 9//36 48//36 52//36
f 50//37 46//37 45//37 49//37
f 68//38 60//38 59//38 67//38
f 37//39 38//39 43//39 44//39
f 39//40 40//40 41//40 42//40
f 9//41 10//41 64//41 48//41
f 48//42 64//42 63//42 47//42
f 63//43 62//43 75//43 76//43
f 46//44 62//44 61//44 45//44
f 10//45 11//45 30//45 64//45
f 64//46 30//46 29//46 63//46
f 63//47 29//47 28//47 62//47
f 62//48 28//48 27//48 61//48
f 11//49 12//49 68//49 30//49
f 30//50 68//50 67//50 29//50
f 67//51 66//51 71//51 72//51
f 28//52 66//52 65//52 27//52
f 5//53 34//53 53//53 17//53
f 34//54 33//54 54//54 53//54
f 33//55 32//55 55//55 54//55
f 32//56 31//56 56//56 55//56
f 17//12 53//12 25//12 18//12
f 35//57 25//57 77//57 81//57
f 38//58 37//58 85//58 86//58
f 56//59 26//59 80//59 92//59
f 18//12 25//12 35//12 19//12
f 55//60 56//60 92//60 91//60
f 37//61 35//61 81//61 85//61
f 53//60 54//60 90//60 89//60
f 19//12 35//12 37//12 20//12
f 26//59 36//59 84//59 80//59
f 39//58 38//58 86//58 87//58
f 25//62 53//62 89//62 77//62
f 70//63 72//63 71//63 69//63
f 29//64 67//64 72//64 70//64
f 28//65 29//65 70//65 69//65
f 66//66 28//66 69//66 71//66
f 74//63 76//63 75//63 73//63
f 47//67 63//67 76//67 74//67
f 46//68 47//68 74//68 73//68
f 62//69 46//69 73//69 75//69
f 89//70 90//70 78//70 77//70
f 90//71 91//71 79//71 78//71
f 91//12 92//12 80//12 79//12
f 77//12 78//12 82//12 81//12
f 78//23 79//23 83//23 82//23
f 79//23 80//23 84//23 83//23
f 81//23 82//23 86//23 85//23
f 82//23 83//23 87//23 86//23
f 83//12 84//12 88//12 87//12
f 54//60 55//60 91//60 90//60
f 40//58 39//58 87//58 88//58
f 36//59 40//59 88//59 84//59
