# Blender v2.67 (sub 0) OBJ File: ''
# www.blender.org
mtllib essai_000019.mtl
o Cube
v 0.983068 2.000723 -1.000000
v 0.983557 2.169851 1.000000
v -0.982054 1.999715 1.000000
v -0.983006 2.168409 -1.000000
v 0.598396 4.080228 -0.589454
v 0.585415 4.084841 0.589455
v -0.596723 4.080957 0.589454
v -0.583619 4.085121 -0.589454
v 0.985240 2.023977 -0.600000
v 0.988816 2.063082 -0.200000
v 0.989063 2.105890 0.200000
v 0.985656 2.145808 0.600000
v -0.984409 2.023075 0.600000
v -0.988285 2.062376 0.200000
v -0.988580 2.105062 -0.200000
v -0.985132 2.144592 -0.600000
v 0.589455 4.084213 -0.353672
v 0.589455 4.084213 -0.117891
v 0.589454 4.084213 0.117891
v 0.589454 4.084213 0.353673
v -0.589455 4.084213 0.353673
v -0.589455 4.084213 0.117891
v -0.589455 4.084213 -0.117891
v -0.589455 4.084213 -0.353673
v 0.353673 4.084213 -0.117891
v -0.353673 4.084213 -0.117891
v -0.587676 2.044235 0.200000
v -0.191170 2.038925 0.200000
v 0.194828 2.130963 0.200000
v 0.589162 2.124926 0.200000
v -0.349876 4.084375 -0.589454
v -0.116136 4.084084 -0.589454
v 0.119903 4.083824 -0.589454
v 0.358929 4.082543 -0.589454
v 0.353673 4.084213 0.117891
v -0.353673 4.084213 0.117891
v 0.353672 4.084213 0.353673
v 0.117891 4.084213 0.353673
v -0.117891 4.084213 0.353673
v -0.353673 4.084213 0.353673
v -0.356836 4.083203 0.589455
v -0.117891 4.084213 0.589455
v 0.117891 4.084213 0.589455
v 0.352012 4.084283 0.589455
v -0.587124 2.155081 -0.600000
v -0.193738 2.133822 -0.600000
v 0.192998 2.034054 -0.600000
v 0.587033 2.013262 -0.600000
v -0.588603 2.148502 -1.000000
v -0.195796 2.110878 -1.000000
v 0.195585 2.057384 -1.000000
v 0.588510 2.019898 -1.000000
v 0.353673 4.084213 -0.353672
v 0.117891 4.084213 -0.353673
v -0.117891 4.084213 -0.353673
v -0.353673 4.084213 -0.353673
v -0.587433 2.019333 1.000000
v -0.194493 2.057402 1.000000
v 0.196726 2.111518 1.000000
v 0.589306 2.149599 1.000000
v -0.588370 2.123636 -0.200000
v -0.193381 2.129273 -0.200000
v 0.192968 2.039514 -0.200000
v 0.588649 2.045172 -0.200000
v -0.585820 2.012543 0.600000
v -0.191293 2.034270 0.600000
v 0.195143 2.134868 0.600000
v 0.587919 2.156388 0.600000
v 0.338521 0.103091 0.200000
v 0.724254 0.208966 0.200000
v 0.338521 0.103091 0.600000
v 0.724254 0.208966 0.600000
v -0.715894 0.205749 -0.600000
v -0.329784 0.101255 -0.600000
v -0.715894 0.205749 -0.200000
v -0.329783 0.101255 -0.200000
v 0.353673 4.584213 -0.117891
v 0.117891 4.584213 -0.117891
v -0.117891 4.584213 -0.117891
v -0.353673 4.584213 -0.117891
v 0.353673 4.584213 0.117891
v 0.117891 4.584213 0.117891
v -0.117891 4.584213 0.117891
v -0.353673 4.584213 0.117891
v 0.353672 4.584213 0.353673
v 0.117891 4.584213 0.353673
v -0.117891 4.584213 0.353673
v -0.353673 4.584213 0.353673
v 0.353673 4.584213 -0.353672
v 0.117891 4.584213 -0.353673
v -0.117891 4.584213 -0.353673
v -0.353673 4.584213 -0.353673
vn 0.011450 -0.999720 -0.020717
vn -0.004721 0.999949 0.008943
vn 0.979351 0.202159 0.001611
vn -0.006729 0.195269 0.980727
vn -0.979244 0.202638 -0.004381
vn 0.006818 0.207361 -0.978241
vn -0.011882 -0.999697 -0.021551
vn 0.036245 -0.995452 -0.088102
vn 0.000534 -0.988555 -0.150863
vn -0.035716 -0.995473 -0.088084
vn 0.001588 0.999996 0.002302
vn 0.000000 1.000000 0.000000
vn 0.982759 0.184874 0.002542
vn 0.981135 0.192545 -0.017361
vn 0.980534 0.195881 -0.013569
vn 0.980069 0.198528 -0.007213
vn -0.982713 0.185135 0.000155
vn -0.981194 0.192194 0.017863
vn -0.980596 0.195570 0.013586
vn -0.980136 0.198203 0.007007
vn 0.012129 0.197727 -0.980182
vn -0.012459 0.204665 0.978753
vn 0.195126 -0.980778 0.000127
vn 0.012380 0.204580 -0.978772
vn -0.017354 0.201064 0.979424
vn -0.193253 -0.981149 -0.000601
vn 0.017225 0.201051 -0.979429
vn -0.012225 0.197665 0.980193
vn 0.075663 -0.996420 0.037724
vn -0.001188 0.999998 -0.001494
vn 0.012208 -0.999693 0.021571
vn -0.006880 0.207505 0.978210
vn 0.006623 0.195386 -0.980704
vn -0.073799 -0.996560 -0.037704
vn -0.010668 -0.999727 0.020776
vn -0.074635 -0.996520 0.037105
vn 0.075619 -0.996419 -0.037820
vn -0.000149 1.000000 -0.000149
vn -0.002128 0.999995 0.002128
vn 0.035692 -0.995469 0.088134
vn -0.019140 -0.998726 0.046691
vn -0.000000 0.000000 1.000000
vn -0.019790 -0.998793 -0.044960
vn -0.001391 -0.988466 0.151436
vn -0.000471 -0.977859 0.209267
vn 0.002951 -0.999995 0.001360
vn 0.000405 -0.978221 -0.207568
vn -0.036959 -0.995381 0.088599
vn 0.019647 -0.998830 0.044180
vn 0.020728 -0.998753 -0.045422
vn 0.004872 0.999918 -0.011845
vn 0.002696 0.999987 -0.004326
vn 0.000552 0.999999 -0.001096
vn 0.000621 1.000000 0.000077
vn 1.000000 0.000000 0.000001
vn -1.000000 0.000000 -0.000000
vn 0.000000 0.000000 -1.000000
vn 0.000001 0.000000 -1.000000
vn -0.000001 0.000000 1.000000
vn 0.264688 -0.964334 0.000000
vn 0.964181 0.265241 -0.001675
vn -0.964454 -0.264246 -0.001686
vn -0.261234 -0.965275 0.000000
vn 0.965406 -0.260746 0.001816
vn -0.965128 0.261771 0.001919
usemtl Material
s off
f 65//1 57//1 3//1 13//1
f 40//2 21//2 7//2 41//2
f 12//3 20//3 6//3 2//3
f 57//4 41//4 7//4 3//4
f 16//5 24//5 8//5 4//5
f 31//6 49//6 4//6 8//6
f 49//7 45//7 16//7 4//7
f 45//8 61//8 15//8 16//8
f 61//9 27//9 14//9 15//9
f 27//10 65//10 13//10 14//10
f 31//11 8//11 24//11 56//11
f 56//12 24//12 23//12 26//12
f 26//12 23//12 22//12 36//12
f 36//12 22//12 21//12 40//12
f 1//13 5//13 17//13 9//13
f 9//14 17//14 18//14 10//14
f 10//15 18//15 19//15 11//15
f 11//16 19//16 20//16 12//16
f 3//17 7//17 21//17 13//17
f 13//18 21//18 22//18 14//18
f 14//19 22//19 23//19 15//19
f 15//20 23//20 24//20 16//20
f 34//21 52//21 51//21 33//21
f 60//22 44//22 43//22 59//22
f 38//12 39//12 42//12 43//12
f 67//23 59//23 58//23 66//23
f 32//24 50//24 49//24 31//24
f 59//25 43//25 42//25 58//25
f 51//26 47//26 46//26 50//26
f 33//27 51//27 50//27 32//27
f 58//28 42//28 41//28 57//28
f 66//29 58//29 57//29 65//29
f 20//30 37//30 44//30 6//30
f 12//31 2//31 60//31 68//31
f 2//32 6//32 44//32 60//32
f 5//33 1//33 52//33 34//33
f 52//34 48//34 47//34 51//34
f 1//35 9//35 48//35 52//35
f 50//36 46//36 45//36 49//36
f 68//37 60//37 59//37 67//37
f 37//38 38//38 43//38 44//38
f 39//39 40//39 41//39 42//39
f 9//40 10//40 64//40 48//40
f 48//41 64//41 63//41 47//41
f 63//42 62//42 75//42 76//42
f 46//43 62//43 61//43 45//43
f 10//44 11//44 30//44 64//44
f 64//45 30//45 29//45 63//45
f 63//46 29//46 28//46 62//46
f 62//47 28//47 27//47 61//47
f 11//48 12//48 68//48 30//48
f 30//49 68//49 67//49 29//49
f 67//42 66//42 71//42 72//42
f 28//50 66//50 65//50 27//50
f 5//51 34//51 53//51 17//51
f 34//52 33//52 54//52 53//52
f 33//53 32//53 55//53 54//53
f 32//54 31//54 56//54 55//54
f 17//12 53//12 25//12 18//12
f 35//55 25//55 77//55 81//55
f 38//42 37//42 85//42 86//42
f 56//56 26//56 80//56 92//56
f 18//12 25//12 35//12 19//12
f 55//57 56//57 92//57 91//57
f 37//55 35//55 81//55 85//55
f 53//58 54//58 90//58 89//58
f 19//12 35//12 37//12 20//12
f 26//56 36//56 84//56 80//56
f 39//59 38//59 86//59 87//59
f 25//55 53//55 89//55 77//55
f 70//60 72//60 71//60 69//60
f 29//61 67//61 72//61 70//61
f 28//57 29//57 70//57 69//57
f 66//62 28//62 69//62 71//62
f 74//63 76//63 75//63 73//63
f 47//64 63//64 76//64 74//64
f 46//57 47//57 74//57 73//57
f 62//65 46//65 73//65 75//65
f 89//12 90//12 78//12 77//12
f 90//12 91//12 79//12 78//12
f 91//12 92//12 80//12 79//12
f 77//12 78//12 82//12 81//12
f 78//12 79//12 83//12 82//12
f 79//12 80//12 84//12 83//12
f 81//12 82//12 86//12 85//12
f 82//12 83//12 87//12 86//12
f 83//12 84//12 88//12 87//12
f 54//57 55//57 91//57 90//57
f 40//59 39//59 87//59 88//59
f 36//56 40//56 88//56 84//56
