# Blender v2.67 (sub 0) OBJ File: ''
# www.blender.org
mtllib essai_000012.mtl
o Cube
v 0.957861 2.080671 -1.000000
v 0.958987 2.342949 1.000000
v -0.956743 2.081355 1.000000
v -0.957765 2.342838 -1.000000
v 0.603052 4.203796 -0.589454
v 0.583087 4.211666 0.589455
v -0.600390 4.205231 0.589454
v -0.580151 4.211884 -0.589454
v 0.963261 2.116861 -0.600000
v 0.972148 2.177716 -0.200000
v 0.972740 2.244109 0.200000
v 0.964230 2.305797 0.600000
v -0.962323 2.117416 0.600000
v -0.971504 2.178091 0.200000
v -0.971895 2.244252 -0.200000
v -0.963151 2.305769 -0.600000
v 0.589455 4.211169 -0.353672
v 0.589455 4.211169 -0.117891
v 0.589454 4.211169 0.117891
v 0.589454 4.211169 0.353673
v -0.589455 4.211169 0.353673
v -0.589455 4.211169 0.117891
v -0.589455 4.211169 -0.117891
v -0.589455 4.211169 -0.353673
v 0.353673 4.211169 -0.117891
v -0.353673 4.211169 -0.117891
v -0.570431 2.150026 0.200000
v -0.180095 2.141623 0.200000
v 0.185662 2.283434 0.200000
v 0.572685 2.273655 0.200000
v -0.347671 4.210959 -0.589454
v -0.115142 4.210751 -0.589454
v 0.121012 4.210309 -0.589454
v 0.361748 4.207895 -0.589454
v 0.353673 4.211169 0.117891
v -0.353673 4.211169 0.117891
v 0.353672 4.211169 0.353673
v 0.117891 4.211169 0.353673
v -0.117891 4.211169 0.353673
v -0.353673 4.211169 0.353673
v -0.358480 4.209219 0.589455
v -0.117891 4.211169 0.589455
v 0.117891 4.211169 0.589455
v 0.351078 4.211081 0.589455
v -0.567941 2.321917 -0.600000
v -0.184061 2.288550 -0.600000
v 0.182828 2.133011 -0.600000
v 0.567738 2.100374 -0.600000
v -0.571607 2.311617 -1.000000
v -0.189447 2.252825 -1.000000
v 0.189078 2.169331 -1.000000
v 0.571418 2.110753 -1.000000
v 0.353673 4.211169 -0.353672
v 0.117891 4.211169 -0.353673
v -0.117891 4.211169 -0.353673
v -0.353673 4.211169 -0.353673
v -0.570098 2.111435 1.000000
v -0.187554 2.170018 1.000000
v 0.190969 2.253363 1.000000
v 0.572961 2.311924 1.000000
v -0.571297 2.273081 -0.200000
v -0.183317 2.281525 -0.200000
v 0.182642 2.141480 -0.200000
v 0.571677 2.149952 -0.200000
v -0.566244 2.101018 0.600000
v -0.180491 2.134398 0.600000
v 0.186404 2.289507 0.600000
v 0.569459 2.322370 0.600000
v 0.636721 0.304679 0.200000
v 1.001894 0.467925 0.200000
v 0.636721 0.304679 0.600000
v 1.001894 0.467925 0.600000
v -0.997794 0.465795 -0.600000
v -0.632470 0.302889 -0.600000
v -0.997794 0.465795 -0.200000
v -0.632470 0.302889 -0.200000
v 0.353673 4.711169 -0.117891
v 0.117891 4.711169 -0.117891
v -0.117891 4.711169 -0.117891
v -0.353673 4.711169 -0.117891
v 0.353673 4.711169 0.117891
v 0.117891 4.711169 0.117891
v -0.117891 4.711169 0.117891
v -0.353673 4.711169 0.117891
v 0.353672 4.711169 0.353673
v 0.117891 4.711169 0.353673
v -0.117891 4.711169 0.353673
v -0.353673 4.711169 0.353673
v 0.353673 4.711169 -0.353672
v 0.117891 4.711169 -0.353673
v -0.117891 4.711169 -0.353673
v -0.353673 4.711169 -0.353673
vn 0.017469 -0.999333 -0.032070
vn -0.008346 0.999830 0.016448
vn 0.980558 0.196130 0.006292
vn -0.010421 0.192258 0.981289
vn -0.980334 0.197041 -0.010940
vn 0.010975 0.211209 -0.977379
vn -0.019277 -0.999254 -0.033477
vn 0.055905 -0.989184 -0.135604
vn 0.000927 -0.973150 -0.230171
vn -0.055183 -0.989346 -0.134721
vn 0.001976 0.999997 0.001136
vn 0.000000 1.000000 0.000000
vn 0.985429 0.170082 0.001051
vn 0.982695 0.182583 -0.031213
vn 0.981951 0.188014 -0.020547
vn 0.981446 0.191663 -0.005460
vn -0.985298 0.170821 0.002984
vn -0.982738 0.182285 0.031587
vn -0.982023 0.187687 0.020136
vn -0.981531 0.191236 0.005005
vn 0.019170 0.195829 -0.980451
vn -0.019651 0.206741 0.978198
vn 0.304683 -0.952454 0.000328
vn 0.019840 0.206695 -0.978204
vn -0.027275 0.201033 0.979205
vn -0.305356 -0.952238 -0.001037
vn 0.027449 0.201016 -0.979203
vn -0.019021 0.195798 0.980460
vn 0.118644 -0.991203 0.058660
vn -0.001251 0.999999 -0.000890
vn 0.018495 -0.999271 0.033399
vn -0.010806 0.211272 0.977367
vn 0.010472 0.192317 -0.981277
vn -0.117846 -0.991258 -0.059325
vn -0.017374 -0.999328 0.032281
vn -0.119241 -0.991148 0.058372
vn 0.118451 -0.991210 -0.058919
vn 0.000188 1.000000 0.000188
vn -0.004095 0.999983 0.004095
vn 0.054994 -0.989226 0.135672
vn -0.031127 -0.996884 0.072479
vn -0.000000 0.000000 1.000000
vn -0.032194 -0.997047 -0.069725
vn -0.002165 -0.972907 0.231186
vn -0.001599 -0.949038 0.315156
vn 0.002413 -0.999994 0.002546
vn 0.000051 -0.949997 -0.312260
vn -0.057391 -0.989092 0.135656
vn 0.029892 -0.997211 0.068386
vn 0.032088 -0.997014 -0.070234
vn 0.008589 0.999717 -0.022177
vn 0.005065 0.999950 -0.008646
vn 0.000936 0.999996 -0.002700
vn 0.000446 0.999999 -0.001324
vn 1.000000 0.000000 0.000001
vn -1.000000 0.000000 -0.000000
vn 0.000000 0.000000 -1.000000
vn 0.000001 0.000000 -1.000000
vn -0.000001 0.000000 1.000000
vn 0.408116 -0.912930 0.000000
vn 0.912380 0.409324 -0.003954
vn -0.913396 -0.407050 -0.004128
vn -0.407264 -0.913310 0.000000
vn 0.913814 -0.406108 0.004512
vn -0.912766 0.408460 0.004436
usemtl Material
s off
f 65//1 57//1 3//1 13//1
f 40//2 21//2 7//2 41//2
f 12//3 20//3 6//3 2//3
f 57//4 41//4 7//4 3//4
f 16//5 24//5 8//5 4//5
f 31//6 49//6 4//6 8//6
f 49//7 45//7 16//7 4//7
f 45//8 61//8 15//8 16//8
f 61//9 27//9 14//9 15//9
f 27//10 65//10 13//10 14//10
f 31//11 8//11 24//11 56//11
f 56//12 24//12 23//12 26//12
f 26//12 23//12 22//12 36//12
f 36//12 22//12 21//12 40//12
f 1//13 5//13 17//13 9//13
f 9//14 17//14 18//14 10//14
f 10//15 18//15 19//15 11//15
f 11//16 19//16 20//16 12//16
f 3//17 7//17 21//17 13//17
f 13//18 21//18 22//18 14//18
f 14//19 22//19 23//19 15//19
f 15//20 23//20 24//20 16//20
f 34//21 52//21 51//21 33//21
f 60//22 44//22 43//22 59//22
f 38//12 39//12 42//12 43//12
f 67//23 59//23 58//23 66//23
f 32//24 50//24 49//24 31//24
f 59//25 43//25 42//25 58//25
f 51//26 47//26 46//26 50//26
f 33//27 51//27 50//27 32//27
f 58//28 42//28 41//28 57//28
f 66//29 58//29 57//29 65//29
f 20//30 37//30 44//30 6//30
f 12//31 2//31 60//31 68//31
f 2//32 6//32 44//32 60//32
f 5//33 1//33 52//33 34//33
f 52//34 48//34 47//34 51//34
f 1//35 9//35 48//35 52//35
f 50//36 46//36 45//36 49//36
f 68//37 60//37 59//37 67//37
f 37//38 38//38 43//38 44//38
f 39//39 40//39 41//39 42//39
f 9//40 10//40 64//40 48//40
f 48//41 64//41 63//41 47//41
f 63//42 62//42 75//42 76//42
f 46//43 62//43 61//43 45//43
f 10//44 11//44 30//44 64//44
f 64//45 30//45 29//45 63//45
f 63//46 29//46 28//46 62//46
f 62//47 28//47 27//47 61//47
f 11//48 12//48 68//48 30//48
f 30//49 68//49 67//49 29//49
f 67//42 66//42 71//42 72//42
f 28//50 66//50 65//50 27//50
f 5//51 34//51 53//51 17//51
f 34//52 33//52 54//52 53//52
f 33//53 32//53 55//53 54//53
f 32//54 31//54 56//54 55//54
f 17//12 53//12 25//12 18//12
f 35//55 25//55 77//55 81//55
f 38//42 37//42 85//42 86//42
f 56//56 26//56 80//56 92//56
f 18//12 25//12 35//12 19//12
f 55//57 56//57 92//57 91//57
f 37//55 35//55 81//55 85//55
f 53//58 54//58 90//58 89//58
f 19//12 35//12 37//12 20//12
f 26//56 36//56 84//56 80//56
f 39//59 38//59 86//59 87//59
f 25//55 53//55 89//55 77//55
f 70//60 72//60 71//60 69//60
f 29//61 67//61 72//61 70//61
f 28//57 29//57 70//57 69//57
f 66//62 28//62 69//62 71//62
f 74//63 76//63 75//63 73//63
f 47//64 63//64 76//64 74//64
f 46//57 47//57 74//57 73//57
f 62//65 46//65 73//65 75//65
f 89//12 90//12 78//12 77//12
f 90//12 91//12 79//12 78//12
f 91//12 92//12 80//12 79//12
f 77//12 78//12 82//12 81//12
f 78//12 79//12 83//12 82//12
f 79//12 80//12 84//12 83//12
f 81//12 82//12 86//12 85//12
f 82//12 83//12 87//12 86//12
f 83//12 84//12 88//12 87//12
f 54//57 55//57 91//57 90//57
f 40//59 39//59 87//59 88//59
f 36//56 40//56 88//56 84//56
