# Blender v2.67 (sub 0) OBJ File: ''
# www.blender.org
mtllib essai_000011.mtl
o Cube
v 0.959327 2.079195 -1.000000
v 0.960434 2.337075 1.000000
v -0.958225 2.079863 1.000000
v -0.959232 2.336968 -1.000000
v 0.602840 4.200315 -0.589454
v 0.583201 4.208019 0.589455
v -0.600220 4.201715 0.589454
v -0.580317 4.208245 -0.589454
v 0.964540 2.114779 -0.600000
v 0.973121 2.174614 -0.200000
v 0.973697 2.239894 0.200000
v 0.965490 2.300547 0.600000
v -0.963614 2.115321 0.600000
v -0.972484 2.174981 0.200000
v -0.972867 2.240034 -0.200000
v -0.964430 2.300521 -0.600000
v 0.589455 4.207508 -0.353672
v 0.589455 4.207508 -0.117891
v 0.589454 4.207508 0.117891
v 0.589454 4.207508 0.353673
v -0.589455 4.207508 0.353673
v -0.589455 4.207508 0.117891
v -0.589455 4.207508 -0.117891
v -0.589455 4.207508 -0.353673
v 0.353673 4.207508 -0.117891
v -0.353673 4.207508 -0.117891
v -0.571437 2.147384 0.200000
v -0.180735 2.139116 0.200000
v 0.186213 2.278551 0.200000
v 0.573656 2.268942 0.200000
v -0.347776 4.207324 -0.589454
v -0.115189 4.207107 -0.589454
v 0.120961 4.206674 -0.589454
v 0.361618 4.204321 -0.589454
v 0.353673 4.207508 0.117891
v -0.353673 4.207508 0.117891
v 0.353672 4.207508 0.353673
v 0.117891 4.207508 0.353673
v -0.117891 4.207508 0.353673
v -0.353673 4.207508 0.353673
v -0.358403 4.205609 0.589455
v -0.117891 4.207508 0.589455
v 0.117891 4.207508 0.589455
v 0.351123 4.207431 0.589455
v -0.569055 2.316397 -0.600000
v -0.184625 2.283590 -0.600000
v 0.183416 2.130658 -0.600000
v 0.568859 2.098568 -0.600000
v -0.572594 2.306270 -1.000000
v -0.189816 2.248464 -1.000000
v 0.189455 2.166369 -1.000000
v 0.572411 2.108773 -1.000000
v 0.353673 4.207508 -0.353672
v 0.117891 4.207508 -0.353673
v -0.117891 4.207508 -0.353673
v -0.353673 4.207508 -0.353673
v -0.571111 2.109439 1.000000
v -0.187956 2.167039 1.000000
v 0.191314 2.248988 1.000000
v 0.573927 2.306570 1.000000
v -0.572290 2.268379 -0.200000
v -0.183903 2.276682 -0.200000
v 0.183240 2.138985 -0.200000
v 0.572666 2.147314 -0.200000
v -0.567388 2.099195 0.600000
v -0.181115 2.132011 0.600000
v 0.186930 2.284522 0.600000
v 0.570550 2.316839 0.600000
v 0.622392 0.296305 0.200000
v 0.988774 0.456816 0.200000
v 0.622392 0.296305 0.600000
v 0.988774 0.456816 0.600000
v -0.984734 0.454743 -0.600000
v -0.618205 0.294568 -0.600000
v -0.984734 0.454743 -0.200000
v -0.618205 0.294568 -0.200000
v 0.353673 4.707508 -0.117891
v 0.117891 4.707508 -0.117891
v -0.117891 4.707508 -0.117891
v -0.353673 4.707508 -0.117891
v 0.353673 4.707508 0.117891
v 0.117891 4.707508 0.117891
v -0.117891 4.707508 0.117891
v -0.353673 4.707508 0.117891
v 0.353672 4.707508 0.353673
v 0.117891 4.707508 0.353673
v -0.117891 4.707508 0.353673
v -0.353673 4.707508 0.353673
v 0.353673 4.707508 -0.353672
v 0.117891 4.707508 -0.353673
v -0.117891 4.707508 -0.353673
v -0.353673 4.707508 -0.353673
vn 0.017160 -0.999355 -0.031533
vn -0.008154 0.999838 0.016042
vn 0.980478 0.196537 0.005992
vn -0.010240 0.192401 0.981263
vn -0.980260 0.197430 -0.010555
vn 0.010776 0.211023 -0.977422
vn -0.018939 -0.999279 -0.032915
vn 0.054977 -0.989535 -0.133409
vn 0.000909 -0.974007 -0.226518
vn -0.054274 -0.989690 -0.132544
vn 0.001966 0.999997 0.001235
vn 0.000000 1.000000 0.000000
vn 0.985292 0.170876 0.001167
vn 0.982613 0.183142 -0.030498
vn 0.981870 0.188473 -0.020241
vn 0.981362 0.192086 -0.005657
vn -0.985162 0.171603 0.002805
vn -0.982657 0.182848 0.030866
vn -0.981940 0.188150 0.019843
vn -0.981446 0.191667 0.005210
vn 0.018834 0.195919 -0.980439
vn -0.019295 0.206639 0.978227
vn 0.299349 -0.954144 0.000316
vn 0.019480 0.206593 -0.978233
vn -0.026786 0.201035 0.979218
vn -0.300009 -0.953936 -0.001015
vn 0.026957 0.201018 -0.979217
vn -0.018688 0.195889 0.980448
vn 0.116514 -0.991515 0.057648
vn -0.001258 0.999999 -0.000944
vn 0.018176 -0.999295 0.032838
vn -0.010611 0.211086 0.977410
vn 0.010290 0.192459 -0.981251
vn -0.115734 -0.991568 -0.058298
vn -0.017069 -0.999350 0.031739
vn -0.117100 -0.991462 0.057362
vn 0.116330 -0.991522 -0.057897
vn 0.000165 1.000000 0.000165
vn -0.003986 0.999984 0.003986
vn 0.054083 -0.989575 0.133475
vn -0.030571 -0.996989 0.071265
vn -0.000000 0.000000 1.000000
vn -0.031617 -0.997146 -0.068561
vn -0.002127 -0.973773 0.227511
vn -0.001565 -0.950613 0.310376
vn 0.002367 -0.999994 0.002483
vn 0.000043 -0.951536 -0.307538
vn -0.056432 -0.989447 0.133457
vn 0.029371 -0.997304 0.067241
vn 0.031504 -0.997115 -0.069061
vn 0.008397 0.999731 -0.021628
vn 0.004939 0.999952 -0.008412
vn 0.000917 0.999996 -0.002608
vn 0.000463 0.999999 -0.001232
vn 1.000000 0.000000 0.000001
vn -1.000000 0.000000 -0.000000
vn 0.000000 0.000000 -1.000000
vn 0.000001 0.000000 -1.000000
vn -0.000001 0.000000 1.000000
vn 0.401279 -0.915956 0.000000
vn 0.915433 0.402452 -0.003825
vn -0.916399 -0.400247 -0.003990
vn -0.400439 -0.916323 0.000000
vn 0.916802 -0.399318 0.004358
vn -0.915806 0.401599 0.004294
usemtl Material
s off
f 65//1 57//1 3//1 13//1
f 40//2 21//2 7//2 41//2
f 12//3 20//3 6//3 2//3
f 57//4 41//4 7//4 3//4
f 16//5 24//5 8//5 4//5
f 31//6 49//6 4//6 8//6
f 49//7 45//7 16//7 4//7
f 45//8 61//8 15//8 16//8
f 61//9 27//9 14//9 15//9
f 27//10 65//10 13//10 14//10
f 31//11 8//11 24//11 56//11
f 56//12 24//12 23//12 26//12
f 26//12 23//12 22//12 36//12
f 36//12 22//12 21//12 40//12
f 1//13 5//13 17//13 9//13
f 9//14 17//14 18//14 10//14
f 10//15 18//15 19//15 11//15
f 11//16 19//16 20//16 12//16
f 3//17 7//17 21//17 13//17
f 13//18 21//18 22//18 14//18
f 14//19 22//19 23//19 15//19
f 15//20 23//20 24//20 16//20
f 34//21 52//21 51//21 33//21
f 60//22 44//22 43//22 59//22
f 38//12 39//12 42//12 43//12
f 67//23 59//23 58//23 66//23
f 32//24 50//24 49//24 31//24
f 59//25 43//25 42//25 58//25
f 51//26 47//26 46//26 50//26
f 33//27 51//27 50//27 32//27
f 58//28 42//28 41//28 57//28
f 66//29 58//29 57//29 65//29
f 20//30 37//30 44//30 6//30
f 12//31 2//31 60//31 68//31
f 2//32 6//32 44//32 60//32
f 5//33 1//33 52//33 34//33
f 52//34 48//34 47//34 51//34
f 1//35 9//35 48//35 52//35
f 50//36 46//36 45//36 49//36
f 68//37 60//37 59//37 67//37
f 37//38 38//38 43//38 44//38
f 39//39 40//39 41//39 42//39
f 9//40 10//40 64//40 48//40
f 48//41 64//41 63//41 47//41
f 63//42 62//42 75//42 76//42
f 46//43 62//43 61//43 45//43
f 10//44 11//44 30//44 64//44
f 64//45 30//45 29//45 63//45
f 63//46 29//46 28//46 62//46
f 62//47 28//47 27//47 61//47
f 11//48 12//48 68//48 30//48
f 30//49 68//49 67//49 29//49
f 67//42 66//42 71//42 72//42
f 28//50 66//50 65//50 27//50
f 5//51 34//51 53//51 17//51
f 34//52 33//52 54//52 53//52
f 33//53 32//53 55//53 54//53
f 32//54 31//54 56//54 55//54
f 17//12 53//12 25//12 18//12
f 35//55 25//55 77//55 81//55
f 38//42 37//42 85//42 86//42
f 56//56 26//56 80//56 92//56
f 18//12 25//12 35//12 19//12
f 55//57 56//57 92//57 91//57
f 37//55 35//55 81//55 85//55
f 53//58 54//58 90//58 89//58
f 19//12 35//12 37//12 20//12
f 26//56 36//56 84//56 80//56
f 39//59 38//59 86//59 87//59
f 25//55 53//55 89//55 77//55
f 70//60 72//60 71//60 69//60
f 29//61 67//61 72//61 70//61
f 28//57 29//57 70//57 69//57
f 66//62 28//62 69//62 71//62
f 74//63 76//63 75//63 73//63
f 47//64 63//64 76//64 74//64
f 46//57 47//57 74//57 73//57
f 62//65 46//65 73//65 75//65
f 89//12 90//12 78//12 77//12
f 90//12 91//12 79//12 78//12
f 91//12 92//12 80//12 79//12
f 77//12 78//12 82//12 81//12
f 78//12 79//12 83//12 82//12
f 79//12 80//12 84//12 83//12
f 81//12 82//12 86//12 85//12
f 82//12 83//12 87//12 86//12
f 83//12 84//12 88//12 87//12
f 54//57 55//57 91//57 90//57
f 40//59 39//59 87//59 88//59
f 36//56 40//56 88//56 84//56
