# Blender v2.67 (sub 0) OBJ File: ''
# www.blender.org
mtllib essai_000017.mtl
o Cube
v 0.972149 2.031389 -1.000000
v 0.972919 2.246556 1.000000
v -0.971043 2.031224 1.000000
v -0.972071 2.245792 -1.000000
v 0.600731 4.132580 -0.589454
v 0.584278 4.138734 0.589455
v -0.598561 4.133633 0.589454
v -0.581925 4.139007 -0.589454
v 0.975720 2.061038 -0.600000
v 0.981597 2.110896 -0.200000
v 0.981995 2.165361 0.200000
v 0.976379 2.216036 0.600000
v -0.974804 2.060863 0.600000
v -0.980994 2.110731 0.200000
v -0.981342 2.165023 -0.200000
v -0.975605 2.215423 -0.600000
v 0.589455 4.138126 -0.353672
v 0.589455 4.138126 -0.117891
v 0.589454 4.138126 0.117891
v 0.589454 4.138126 0.353673
v -0.589455 4.138126 0.353673
v -0.589455 4.138126 0.117891
v -0.589455 4.138126 -0.117891
v -0.589455 4.138126 -0.353673
v 0.353673 4.138126 -0.117891
v -0.353673 4.138126 -0.117891
v -0.580169 2.087680 0.200000
v -0.186301 2.080827 0.200000
v 0.190910 2.197464 0.200000
v 0.582038 2.189587 0.200000
v -0.348794 4.138150 -0.589454
v -0.115646 4.137875 -0.589454
v 0.120453 4.137528 -0.589454
v 0.360334 4.135729 -0.589454
v 0.353673 4.138126 0.117891
v -0.353673 4.138126 0.117891
v 0.353672 4.138126 0.353673
v 0.117891 4.138126 0.353673
v -0.117891 4.138126 0.353673
v -0.353673 4.138126 0.353673
v -0.357655 4.136689 0.589455
v -0.117891 4.138126 0.589455
v 0.117891 4.138126 0.589455
v 0.351554 4.138137 0.589455
v -0.578815 2.228708 -0.600000
v -0.189559 2.201462 -0.600000
v 0.188583 2.074120 -0.600000
v 0.578674 2.047470 -0.600000
v -0.581242 2.220290 -1.000000
v -0.193049 2.172199 -1.000000
v 0.192764 2.103872 -1.000000
v 0.581106 2.055957 -1.000000
v 0.353673 4.138126 -0.353672
v 0.117891 4.138126 -0.353673
v -0.117891 4.138126 -0.353673
v -0.353673 4.138126 -0.353673
v -0.579878 2.056010 1.000000
v -0.191444 2.104214 1.000000
v 0.194263 2.172776 1.000000
v 0.582242 2.220980 1.000000
v -0.580967 2.188665 -0.200000
v -0.189030 2.195688 -0.200000
v 0.188489 2.081066 -0.200000
v 0.581299 2.088113 -0.200000
v -0.577289 2.047426 0.600000
v -0.186540 2.074901 0.600000
v 0.191412 2.202440 0.600000
v 0.579941 2.229574 0.600000
v 0.485286 0.187696 0.200000
v 0.862091 0.321925 0.200000
v 0.485286 0.187696 0.600000
v 0.862091 0.321925 0.600000
v -0.855905 0.319078 -0.600000
v -0.478796 0.185705 -0.600000
v -0.855905 0.319078 -0.200000
v -0.478796 0.185705 -0.200000
v 0.353673 4.638126 -0.117891
v 0.117891 4.638126 -0.117891
v -0.117891 4.638126 -0.117891
v -0.353673 4.638126 -0.117891
v 0.353673 4.638126 0.117891
v 0.117891 4.638126 0.117891
v -0.117891 4.638126 0.117891
v -0.353673 4.638126 0.117891
v 0.353672 4.638126 0.353673
v 0.117891 4.638126 0.353673
v -0.117891 4.638126 0.353673
v -0.353673 4.638126 0.353673
v 0.353673 4.638126 -0.353672
v 0.117891 4.638126 -0.353673
v -0.117891 4.638126 -0.353673
v -0.353673 4.638126 -0.353673
vn 0.014383 -0.999550 -0.026328
vn -0.006410 0.999903 0.012399
vn 0.979823 0.199837 0.003525
vn -0.008536 0.193774 0.981009
vn -0.979660 0.200536 -0.007192
vn 0.008839 0.209228 -0.977827
vn -0.015504 -0.999503 -0.027446
vn 0.045983 -0.992669 -0.111772
vn 0.000724 -0.981679 -0.190541
vn -0.045374 -0.992748 -0.111321
vn 0.001828 0.999996 0.001965
vn 0.000000 1.000000 0.000000
vn 0.984008 0.178114 0.002066
vn 0.981857 0.188122 -0.023829
vn 0.981153 0.192474 -0.017102
vn 0.980646 0.195669 -0.006934
vn -0.983920 0.178605 0.001315
vn -0.981909 0.187789 0.024289
vn -0.981218 0.192154 0.016946
vn -0.980721 0.195302 0.006633
vn 0.015573 0.196794 -0.980321
vn -0.015952 0.205674 0.978491
vn 0.248721 -0.968575 0.000212
vn 0.016004 0.205607 -0.978504
vn -0.022180 0.201051 0.979330
vn -0.248118 -0.968730 -0.000807
vn 0.022199 0.201036 -0.979332
vn -0.015548 0.196748 0.980331
vn 0.096561 -0.994169 0.048000
vn -0.001275 0.999998 -0.001331
vn 0.015287 -0.999507 0.027416
vn -0.008789 0.209334 0.977805
vn 0.008510 0.193861 -0.980992
vn -0.095240 -0.994281 -0.048313
vn -0.013952 -0.999552 0.026461
vn -0.096342 -0.994212 0.047541
vn 0.096456 -0.994171 -0.048167
vn -0.000022 1.000000 -0.000022
vn -0.003023 0.999991 0.003023
vn 0.045258 -0.992697 0.111819
vn -0.024987 -0.997919 0.059442
vn -0.000000 0.000000 1.000000
vn -0.025837 -0.998028 -0.057211
vn -0.001770 -0.981525 0.191325
vn -0.001022 -0.964857 0.262773
vn 0.002670 -0.999995 0.001904
vn 0.000209 -0.965476 -0.260493
vn -0.047068 -0.992589 0.112034
vn 0.024653 -0.998118 0.056148
vn 0.026231 -0.997990 -0.057696
vn 0.006612 0.999840 -0.016592
vn 0.003783 0.999973 -0.006278
vn 0.000735 0.999998 -0.001793
vn 0.000586 1.000000 -0.000474
vn 1.000000 0.000000 0.000001
vn -1.000000 0.000000 -0.000000
vn 0.000000 0.000000 -1.000000
vn 0.000001 0.000000 -1.000000
vn -0.000001 0.000000 1.000000
vn 0.335574 -0.942014 -0.000000
vn 0.941706 0.336427 -0.002684
vn -0.942267 -0.334852 -0.002761
vn -0.333434 -0.942774 0.000000
vn 0.943048 -0.332644 0.002999
vn -0.942472 0.334272 0.003037
usemtl Material
s off
f 65//1 57//1 3//1 13//1
f 40//2 21//2 7//2 41//2
f 12//3 20//3 6//3 2//3
f 57//4 41//4 7//4 3//4
f 16//5 24//5 8//5 4//5
f 31//6 49//6 4//6 8//6
f 49//7 45//7 16//7 4//7
f 45//8 61//8 15//8 16//8
f 61//9 27//9 14//9 15//9
f 27//10 65//10 13//10 14//10
f 31//11 8//11 24//11 56//11
f 56//12 24//12 23//12 26//12
f 26//12 23//12 22//12 36//12
f 36//12 22//12 21//12 40//12
f 1//13 5//13 17//13 9//13
f 9//14 17//14 18//14 10//14
f 10//15 18//15 19//15 11//15
f 11//16 19//16 20//16 12//16
f 3//17 7//17 21//17 13//17
f 13//18 21//18 22//18 14//18
f 14//19 22//19 23//19 15//19
f 15//20 23//20 24//20 16//20
f 34//21 52//21 51//21 33//21
f 60//22 44//22 43//22 59//22
f 38//12 39//12 42//12 43//12
f 67//23 59//23 58//23 66//23
f 32//24 50//24 49//24 31//24
f 59//25 43//25 42//25 58//25
f 51//26 47//26 46//26 50//26
f 33//27 51//27 50//27 32//27
f 58//28 42//28 41//28 57//28
f 66//29 58//29 57//29 65//29
f 20//30 37//30 44//30 6//30
f 12//31 2//31 60//31 68//31
f 2//32 6//32 44//32 60//32
f 5//33 1//33 52//33 34//33
f 52//34 48//34 47//34 51//34
f 1//35 9//35 48//35 52//35
f 50//36 46//36 45//36 49//36
f 68//37 60//37 59//37 67//37
f 37//38 38//38 43//38 44//38
f 39//39 40//39 41//39 42//39
f 9//40 10//40 64//40 48//40
f 48//41 64//41 63//41 47//41
f 63//42 62//42 75//42 76//42
f 46//43 62//43 61//43 45//43
f 10//44 11//44 30//44 64//44
f 64//45 30//45 29//45 63//45
f 63//46 29//46 28//46 62//46
f 62//47 28//47 27//47 61//47
f 11//48 12//48 68//48 30//48
f 30//49 68//49 67//49 29//49
f 67//42 66//42 71//42 72//42
f 28//50 66//50 65//50 27//50
f 5//51 34//51 53//51 17//51
f 34//52 33//52 54//52 53//52
f 33//53 32//53 55//53 54//53
f 32//54 31//54 56//54 55//54
f 17//12 53//12 25//12 18//12
f 35//55 25//55 77//55 81//55
f 38//42 37//42 85//42 86//42
f 56//56 26//56 80//56 92//56
f 18//12 25//12 35//12 19//12
f 55//57 56//57 92//57 91//57
f 37//55 35//55 81//55 85//55
f 53//58 54//58 90//58 89//58
f 19//12 35//12 37//12 20//12
f 26//56 36//56 84//56 80//56
f 39//59 38//59 86//59 87//59
f 25//55 53//55 89//55 77//55
f 70//60 72//60 71//60 69//60
f 29//61 67//61 72//61 70//61
f 28//57 29//57 70//57 69//57
f 66//62 28//62 69//62 71//62
f 74//63 76//63 75//63 73//63
f 47//64 63//64 76//64 74//64
f 46//57 47//57 74//57 73//57
f 62//65 46//65 73//65 75//65
f 89//12 90//12 78//12 77//12
f 90//12 91//12 79//12 78//12
f 91//12 92//12 80//12 79//12
f 77//12 78//12 82//12 81//12
f 78//12 79//12 83//12 82//12
f 79//12 80//12 84//12 83//12
f 81//12 82//12 86//12 85//12
f 82//12 83//12 87//12 86//12
f 83//12 84//12 88//12 87//12
f 54//57 55//57 91//57 90//57
f 40//59 39//59 87//59 88//59
f 36//56 40//56 88//56 84//56
