# Blender v2.67 (sub 0) OBJ File: ''
# www.blender.org
mtllib essai_000021.mtl
o Cube
v 0.993139 1.985770 -1.000000
v 0.993357 2.094683 1.000000
v -0.992362 1.983655 1.000000
v -0.993097 2.092318 -1.000000
v 0.595248 4.036573 -0.589454
v 0.586866 4.039356 0.589455
v -0.594247 4.036948 0.589454
v -0.585781 4.039581 -0.589454
v 0.994021 2.000656 -0.600000
v 0.995472 2.025691 -0.200000
v 0.995577 2.053252 0.200000
v 0.994204 2.079108 0.600000
v -0.993388 1.998797 0.600000
v -0.995081 2.024267 0.200000
v -0.995289 2.051765 -0.200000
v -0.993934 2.077072 -0.600000
v 0.589455 4.038827 -0.353672
v 0.589455 4.038827 -0.117891
v 0.589454 4.038827 0.117891
v 0.589454 4.038827 0.353673
v -0.589455 4.038827 0.353673
v -0.589455 4.038827 0.117891
v -0.589455 4.038827 -0.117891
v -0.589455 4.038827 -0.353673
v 0.353673 4.038827 -0.117891
v -0.353673 4.038827 -0.117891
v -0.594719 2.012563 0.200000
v -0.195885 2.009307 0.200000
v 0.198281 2.069175 0.200000
v 0.595695 2.065512 0.200000
v -0.351269 4.039046 -0.589454
v -0.116774 4.038798 -0.589454
v 0.119179 4.038641 -0.589454
v 0.357058 4.037929 -0.589454
v 0.353673 4.038827 0.117891
v -0.353673 4.038827 0.117891
v 0.353672 4.038827 0.353673
v 0.117891 4.038827 0.353673
v -0.117891 4.038827 0.353673
v -0.353673 4.038827 0.353673
v -0.355746 4.038271 0.589455
v -0.117891 4.038827 0.589455
v 0.117891 4.038827 0.589455
v 0.352603 4.038923 0.589455
v -0.594785 2.083906 -0.600000
v -0.197552 2.070484 -0.600000
v 0.197099 2.006797 -0.600000
v 0.594744 1.993673 -0.600000
v -0.595388 2.079733 -1.000000
v -0.198318 2.055807 -1.000000
v 0.198195 2.021723 -1.000000
v 0.595341 1.997885 -1.000000
v 0.353673 4.038827 -0.353672
v 0.117891 4.038827 -0.353673
v -0.117891 4.038827 -0.353673
v -0.353673 4.038827 -0.353673
v -0.594551 1.996520 1.000000
v -0.197442 2.021338 1.000000
v 0.198900 2.056562 1.000000
v 0.595774 2.081399 1.000000
v -0.595223 2.063714 -0.200000
v -0.197370 2.067542 -0.200000
v 0.197116 2.010318 -0.200000
v 0.595419 2.014160 -0.200000
v -0.593855 1.992079 0.600000
v -0.195913 2.006317 0.600000
v 0.198420 2.071678 0.600000
v 0.595225 2.085831 0.600000
v 0.148240 0.034479 0.200000
v 0.542281 0.103269 0.200000
v 0.148240 0.034479 0.600000
v 0.542281 0.103269 0.600000
v -0.530946 0.100070 -0.600000
v -0.136547 0.033366 -0.600000
v -0.530946 0.100070 -0.200000
v -0.136547 0.033366 -0.200000
v 0.353673 4.538827 -0.117891
v 0.117891 4.538827 -0.117891
v -0.117891 4.538827 -0.117891
v -0.353673 4.538827 -0.117891
v 0.353673 4.538827 0.117891
v 0.117891 4.538827 0.117891
v -0.117891 4.538827 0.117891
v -0.353673 4.538827 0.117891
v 0.353672 4.538827 0.353673
v 0.117891 4.538827 0.353673
v -0.117891 4.538827 0.353673
v -0.353673 4.538827 0.353673
v 0.353673 4.538827 -0.353672
v 0.117891 4.538827 -0.353673
v -0.117891 4.538827 -0.353673
v -0.353673 4.538827 -0.353673
vn 0.007708 -0.999881 -0.013378
vn -0.002791 0.999983 0.005122
vn 0.979084 0.203454 0.000136
vn -0.004399 0.197251 0.980343
vn -0.979047 0.203627 -0.001821
vn 0.004255 0.205006 -0.978751
vn -0.007216 -0.999878 -0.013842
vn 0.023456 -0.998115 -0.056714
vn 0.000303 -0.995202 -0.097840
vn -0.022987 -0.998095 -0.057259
vn 0.001139 0.999997 0.002078
vn 0.000000 1.000000 0.000000
vn 0.981352 0.192204 0.002400
vn 0.980361 0.196960 -0.009994
vn 0.979954 0.199029 -0.008790
vn 0.979607 0.200834 -0.006051
vn -0.981359 0.192181 -0.000667
vn -0.980426 0.196606 0.010486
vn -0.980014 0.198730 0.008917
vn -0.979667 0.200542 0.005894
vn 0.007691 0.198941 -0.979981
vn -0.008029 0.203386 0.979066
vn 0.126197 -0.992005 0.000049
vn 0.007781 0.203279 -0.979090
vn -0.011205 0.201075 0.979512
vn -0.122646 -0.992450 -0.000359
vn 0.010886 0.201066 -0.979517
vn -0.007947 0.198854 0.979997
vn 0.049050 -0.998498 0.024428
vn -0.000921 0.999999 -0.001332
vn 0.008236 -0.999869 0.013930
vn -0.004455 0.205196 0.978711
vn 0.004182 0.197413 -0.980311
vn -0.046440 -0.998633 -0.023988
vn -0.006439 -0.999890 0.013342
vn -0.046956 -0.998618 0.023610
vn 0.049052 -0.998497 -0.024461
vn -0.000204 1.000000 -0.000204
vn -0.001173 0.999999 0.001173
vn 0.023118 -0.998122 0.056734
vn -0.011655 -0.999482 0.030003
vn -0.000000 0.000000 1.000000
vn -0.012061 -0.999509 -0.028908
vn -0.000906 -0.995170 0.098166
vn 0.000223 -0.990644 0.136472
vn 0.003352 -0.999994 0.000766
vn 0.000711 -0.990781 -0.135474
vn -0.023715 -0.998061 0.057552
vn 0.013202 -0.999506 0.028520
vn 0.013775 -0.999475 -0.029341
vn 0.002859 0.999974 -0.006628
vn 0.001504 0.999996 -0.002285
vn 0.000334 1.000000 -0.000453
vn 0.000526 1.000000 0.000407
vn 1.000000 0.000000 0.000001
vn -1.000000 0.000000 -0.000000
vn 0.000000 0.000000 -1.000000
vn 0.000001 0.000000 -1.000000
vn -0.000001 0.000000 1.000000
vn 0.171974 -0.985102 0.000000
vn 0.985058 0.172224 -0.000710
vn -0.985131 -0.171802 -0.000676
vn -0.166759 -0.985998 0.000000
vn 0.986031 -0.166563 0.000713
vn -0.985958 0.166994 0.000838
usemtl Material
s off
f 65//1 57//1 3//1 13//1
f 40//2 21//2 7//2 41//2
f 12//3 20//3 6//3 2//3
f 57//4 41//4 7//4 3//4
f 16//5 24//5 8//5 4//5
f 31//6 49//6 4//6 8//6
f 49//7 45//7 16//7 4//7
f 45//8 61//8 15//8 16//8
f 61//9 27//9 14//9 15//9
f 27//10 65//10 13//10 14//10
f 31//11 8//11 24//11 56//11
f 56//12 24//12 23//12 26//12
f 26//12 23//12 22//12 36//12
f 36//12 22//12 21//12 40//12
f 1//13 5//13 17//13 9//13
f 9//14 17//14 18//14 10//14
f 10//15 18//15 19//15 11//15
f 11//16 19//16 20//16 12//16
f 3//17 7//17 21//17 13//17
f 13//18 21//18 22//18 14//18
f 14//19 22//19 23//19 15//19
f 15//20 23//20 24//20 16//20
f 34//21 52//21 51//21 33//21
f 60//22 44//22 43//22 59//22
f 38//12 39//12 42//12 43//12
f 67//23 59//23 58//23 66//23
f 32//24 50//24 49//24 31//24
f 59//25 43//25 42//25 58//25
f 51//26 47//26 46//26 50//26
f 33//27 51//27 50//27 32//27
f 58//28 42//28 41//28 57//28
f 66//29 58//29 57//29 65//29
f 20//30 37//30 44//30 6//30
f 12//31 2//31 60//31 68//31
f 2//32 6//32 44//32 60//32
f 5//33 1//33 52//33 34//33
f 52//34 48//34 47//34 51//34
f 1//35 9//35 48//35 52//35
f 50//36 46//36 45//36 49//36
f 68//37 60//37 59//37 67//37
f 37//38 38//38 43//38 44//38
f 39//39 40//39 41//39 42//39
f 9//40 10//40 64//40 48//40
f 48//41 64//41 63//41 47//41
f 63//42 62//42 75//42 76//42
f 46//43 62//43 61//43 45//43
f 10//44 11//44 30//44 64//44
f 64//45 30//45 29//45 63//45
f 63//46 29//46 28//46 62//46
f 62//47 28//47 27//47 61//47
f 11//48 12//48 68//48 30//48
f 30//49 68//49 67//49 29//49
f 67//42 66//42 71//42 72//42
f 28//50 66//50 65//50 27//50
f 5//51 34//51 53//51 17//51
f 34//52 33//52 54//52 53//52
f 33//53 32//53 55//53 54//53
f 32//54 31//54 56//54 55//54
f 17//12 53//12 25//12 18//12
f 35//55 25//55 77//55 81//55
f 38//42 37//42 85//42 86//42
f 56//56 26//56 80//56 92//56
f 18//12 25//12 35//12 19//12
f 55//57 56//57 92//57 91//57
f 37//55 35//55 81//55 85//55
f 53//58 54//58 90//58 89//58
f 19//12 35//12 37//12 20//12
f 26//56 36//56 84//56 80//56
f 39//59 38//59 86//59 87//59
f 25//55 53//55 89//55 77//55
f 70//60 72//60 71//60 69//60
f 29//61 67//61 72//61 70//61
f 28//57 29//57 70//57 69//57
f 66//62 28//62 69//62 71//62
f 74//63 76//63 75//63 73//63
f 47//64 63//64 76//64 74//64
f 46//57 47//57 74//57 73//57
f 62//65 46//65 73//65 75//65
f 89//12 90//12 78//12 77//12
f 90//12 91//12 79//12 78//12
f 91//12 92//12 80//12 79//12
f 77//12 78//12 82//12 81//12
f 78//12 79//12 83//12 82//12
f 79//12 80//12 84//12 83//12
f 81//12 82//12 86//12 85//12
f 82//12 83//12 87//12 86//12
f 83//12 84//12 88//12 87//12
f 54//57 55//57 91//57 90//57
f 40//59 39//59 87//59 88//59
f 36//56 40//56 88//56 84//56
