# Blender v2.67 (sub 0) OBJ File: ''
# www.blender.org
mtllib essai_000029.mtl
o Cube
v 0.982858 2.208022 -1.000000
v 0.983239 2.041696 1.000000
v -0.984819 2.201361 1.000000
v -0.982886 2.035168 -1.000000
v 0.579633 4.123378 -0.589454
v 0.593018 4.120290 0.589455
v -0.581961 4.123070 0.589454
v -0.594927 4.119415 -0.589454
v 0.985048 2.184642 -0.600000
v 0.988654 2.145345 -0.200000
v 0.988876 2.103216 0.200000
v 0.985388 2.064814 0.600000
v -0.986606 2.178824 0.600000
v -0.989534 2.140890 0.200000
v -0.989095 2.098849 -0.200000
v -0.985249 2.059117 -0.600000
v 0.589455 4.121863 -0.353672
v 0.589455 4.121863 -0.117891
v 0.589454 4.121863 0.117891
v 0.589454 4.121863 0.353673
v -0.589455 4.121863 0.353673
v -0.589455 4.121863 0.117891
v -0.589455 4.121863 -0.117891
v -0.589455 4.121863 -0.353673
v 0.353673 4.121863 -0.117891
v -0.353673 4.121863 -0.117891
v -0.589846 2.158808 0.200000
v -0.195394 2.165350 0.200000
v 0.191759 2.077931 0.200000
v 0.588363 2.084647 0.200000
v -0.357349 4.120690 -0.589454
v -0.119644 4.121521 -0.589454
v 0.115816 4.121707 -0.589454
v 0.348079 4.122095 -0.589454
v 0.353673 4.121863 0.117891
v -0.353673 4.121863 0.117891
v 0.353672 4.121863 0.353673
v 0.117891 4.121863 0.353673
v -0.117891 4.121863 0.353673
v -0.353673 4.121863 0.353673
v -0.350512 4.122014 0.589455
v -0.117891 4.121863 0.589455
v 0.117891 4.121863 0.589455
v 0.355183 4.121389 0.589455
v -0.586899 2.049234 -0.600000
v -0.192877 2.071601 -0.600000
v 0.193455 2.172863 -0.600000
v 0.586894 2.194772 -0.600000
v -0.588369 2.056035 -1.000000
v -0.195531 2.094709 -1.000000
v 0.195678 2.149348 -1.000000
v 0.588397 2.187886 -1.000000
v 0.353673 4.121863 -0.353672
v 0.117891 4.121863 -0.353673
v -0.117891 4.121863 -0.353673
v -0.353673 4.121863 -0.353673
v -0.590179 2.183348 1.000000
v -0.197060 2.147562 1.000000
v 0.194876 2.096282 1.000000
v 0.588346 2.060396 1.000000
v -0.588711 2.080542 -0.200000
v -0.192819 2.076056 -0.200000
v 0.193196 2.167555 -0.200000
v 0.588369 2.163048 -0.200000
v -0.588885 2.189721 0.600000
v -0.195707 2.169989 0.600000
v 0.191988 2.074031 0.600000
v 0.586845 2.054084 0.600000
v -0.700439 0.237201 0.200000
v -0.313398 0.136211 0.200000
v -0.700439 0.237201 0.600000
v -0.313398 0.136211 0.600000
v 0.337767 0.140673 -0.600000
v 0.723451 0.246731 -0.600000
v 0.337767 0.140673 -0.200000
v 0.723451 0.246731 -0.200000
v 0.353673 4.621863 -0.117891
v 0.117891 4.621863 -0.117891
v -0.117891 4.621863 -0.117891
v -0.353673 4.621863 -0.117891
v 0.353673 4.621863 0.117891
v 0.117891 4.621863 0.117891
v -0.117891 4.621863 0.117891
v -0.353673 4.621863 0.117891
v 0.353672 4.621863 0.353673
v 0.117891 4.621863 0.353673
v -0.117891 4.621863 0.353673
v -0.353673 4.621863 0.353673
v 0.353673 4.621863 -0.353672
v 0.117891 4.621863 -0.353673
v -0.117891 4.621863 -0.353673
v -0.353673 4.621863 -0.353673
vn -0.008979 -0.999756 0.020204
vn 0.002260 0.999993 -0.002929
vn 0.982246 0.187527 0.005097
vn 0.006305 0.207035 0.978313
vn -0.982517 0.186152 -0.002922
vn -0.006834 0.195117 -0.980756
vn 0.013849 -0.999674 0.021444
vn -0.035134 -0.995487 0.088150
vn -0.000482 -0.988881 0.148711
vn 0.035979 -0.995687 0.085513
vn -0.002693 0.999967 -0.007627
vn 0.000000 1.000000 0.000000
vn 0.978763 0.204730 -0.010477
vn 0.980084 0.198470 0.006709
vn 0.980522 0.196003 0.012646
vn 0.981085 0.192827 0.017030
vn -0.978992 0.203788 0.006680
vn -0.980072 0.198505 -0.007330
vn -0.980540 0.195844 -0.013627
vn -0.981141 0.192457 -0.017964
vn -0.012747 0.204671 -0.978748
vn 0.011402 0.197806 0.980175
vn -0.185575 -0.982630 0.000140
vn -0.012383 0.197639 -0.980197
vn 0.016424 0.201050 0.979443
vn 0.196593 -0.980485 0.000393
vn -0.017591 0.201072 -0.979419
vn 0.011741 0.204435 0.978810
vn -0.070386 -0.996866 -0.036121
vn 0.002321 0.999988 0.004316
vn -0.010042 -0.999729 -0.021009
vn 0.006115 0.195443 0.980696
vn -0.007098 0.207462 -0.978217
vn 0.076608 -0.996329 0.038219
vn 0.012620 -0.999708 -0.020621
vn 0.077287 -0.996298 -0.037646
vn -0.070603 -0.996855 0.035980
vn 0.001002 0.999999 0.001002
vn 0.000322 1.000000 -0.000322
vn -0.034703 -0.995502 -0.088158
vn 0.022038 -0.998686 -0.046263
vn -0.000000 -0.000000 1.000000
vn 0.022608 -0.998745 0.044697
vn 0.001069 -0.988840 -0.148981
vn 0.002731 -0.978645 -0.205541
vn 0.005277 -0.999986 -0.000386
vn 0.002546 -0.978756 0.205012
vn 0.036508 -0.995660 -0.085604
vn -0.016699 -0.998933 -0.043060
vn -0.016728 -0.998874 0.044405
vn -0.002746 0.999989 0.003792
vn -0.000827 1.000000 0.000173
vn -0.000396 0.999999 -0.001053
vn -0.001755 0.999993 -0.003194
vn 1.000000 0.000000 0.000001
vn -1.000000 0.000000 -0.000000
vn 0.000000 0.000000 -1.000000
vn 0.000001 0.000000 -1.000000
vn -0.000001 0.000000 1.000000
vn -0.252473 -0.967604 0.000000
vn 0.967708 -0.252069 -0.001505
vn -0.967458 0.253026 -0.001847
vn 0.265145 -0.964209 0.000000
vn 0.964053 0.265700 0.002075
vn -0.964332 -0.264691 0.001544
usemtl Material
s off
f 65//1 57//1 3//1 13//1
f 40//2 21//2 7//2 41//2
f 12//3 20//3 6//3 2//3
f 57//4 41//4 7//4 3//4
f 16//5 24//5 8//5 4//5
f 31//6 49//6 4//6 8//6
f 49//7 45//7 16//7 4//7
f 45//8 61//8 15//8 16//8
f 61//9 27//9 14//9 15//9
f 27//10 65//10 13//10 14//10
f 31//11 8//11 24//11 56//11
f 56//12 24//12 23//12 26//12
f 26//12 23//12 22//12 36//12
f 36//12 22//12 21//12 40//12
f 1//13 5//13 17//13 9//13
f 9//14 17//14 18//14 10//14
f 10//15 18//15 19//15 11//15
f 11//16 19//16 20//16 12//16
f 3//17 7//17 21//17 13//17
f 13//18 21//18 22//18 14//18
f 14//19 22//19 23//19 15//19
f 15//20 23//20 24//20 16//20
f 34//21 52//21 51//21 33//21
f 60//22 44//22 43//22 59//22
f 38//12 39//12 42//12 43//12
f 67//23 59//23 58//23 66//23
f 32//24 50//24 49//24 31//24
f 59//25 43//25 42//25 58//25
f 51//26 47//26 46//26 50//26
f 33//27 51//27 50//27 32//27
f 58//28 42//28 41//28 57//28
f 66//29 58//29 57//29 65//29
f 20//30 37//30 44//30 6//30
f 12//31 2//31 60//31 68//31
f 2//32 6//32 44//32 60//32
f 5//33 1//33 52//33 34//33
f 52//34 48//34 47//34 51//34
f 1//35 9//35 48//35 52//35
f 50//36 46//36 45//36 49//36
f 68//37 60//37 59//37 67//37
f 37//38 38//38 43//38 44//38
f 39//39 40//39 41//39 42//39
f 9//40 10//40 64//40 48//40
f 48//41 64//41 63//41 47//41
f 63//42 62//42 75//42 76//42
f 46//43 62//43 61//43 45//43
f 10//44 11//44 30//44 64//44
f 64//45 30//45 29//45 63//45
f 63//46 29//46 28//46 62//46
f 62//47 28//47 27//47 61//47
f 11//48 12//48 68//48 30//48
f 30//49 68//49 67//49 29//49
f 67//42 66//42 71//42 72//42
f 28//50 66//50 65//50 27//50
f 5//51 34//51 53//51 17//51
f 34//52 33//52 54//52 53//52
f 33//53 32//53 55//53 54//53
f 32//54 31//54 56//54 55//54
f 17//12 53//12 25//12 18//12
f 35//55 25//55 77//55 81//55
f 38//42 37//42 85//42 86//42
f 56//56 26//56 80//56 92//56
f 18//12 25//12 35//12 19//12
f 55//57 56//57 92//57 91//57
f 37//55 35//55 81//55 85//55
f 53//58 54//58 90//58 89//58
f 19//12 35//12 37//12 20//12
f 26//56 36//56 84//56 80//56
f 39//59 38//59 86//59 87//59
f 25//55 53//55 89//55 77//55
f 70//60 72//60 71//60 69//60
f 29//61 67//61 72//61 70//61
f 28//57 29//57 70//57 69//57
f 66//62 28//62 69//62 71//62
f 74//63 76//63 75//63 73//63
f 47//64 63//64 76//64 74//64
f 46//57 47//57 74//57 73//57
f 62//65 46//65 73//65 75//65
f 89//12 90//12 78//12 77//12
f 90//12 91//12 79//12 78//12
f 91//12 92//12 80//12 79//12
f 77//12 78//12 82//12 81//12
f 78//12 79//12 83//12 82//12
f 79//12 80//12 84//12 83//12
f 81//12 82//12 86//12 85//12
f 82//12 83//12 87//12 86//12
f 83//12 84//12 88//12 87//12
f 54//57 55//57 91//57 90//57
f 40//59 39//59 87//59 88//59
f 36//56 40//56 88//56 84//56
