# Blender v2.67 (sub 0) OBJ File: ''
# www.blender.org
mtllib essai_000045.mtl
o Cube
v 0.999334 2.070156 -1.000000
v 0.998848 2.032693 1.000000
v -0.999545 2.068926 1.000000
v -0.998967 2.031517 -1.000000
v 0.587330 4.051458 -0.589454
v 0.590281 4.050623 0.589455
v -0.587815 4.051332 0.589454
v -0.590714 4.050482 -0.589454
v 0.999382 2.064909 -0.600000
v 0.999457 2.056087 -0.200000
v 0.999341 2.046599 0.200000
v 0.999035 2.037919 0.600000
v -0.999560 2.063836 0.600000
v -0.999581 2.055269 0.200000
v -0.999437 2.045805 -0.200000
v -0.999145 2.036890 -0.600000
v 0.589455 4.050896 -0.353672
v 0.589455 4.050896 -0.117891
v 0.589454 4.050896 0.117891
v 0.589454 4.050896 0.353673
v -0.589455 4.050896 0.353673
v -0.589455 4.050896 0.117891
v -0.589455 4.050896 -0.117891
v -0.589455 4.050896 -0.353673
v 0.353673 4.050896 -0.117891
v -0.353673 4.050896 -0.117891
v -0.599755 2.059299 0.200000
v -0.200558 2.060719 0.200000
v 0.198786 2.040920 0.200000
v 0.599151 2.042411 0.200000
v -0.354508 4.050722 -0.589454
v -0.118284 4.050860 -0.589454
v 0.117431 4.050909 -0.589454
v 0.352448 4.051076 -0.589454
v 0.353673 4.050896 0.117891
v -0.353673 4.050896 0.117891
v 0.353672 4.050896 0.353673
v 0.117891 4.050896 0.353673
v -0.117891 4.050896 0.353673
v -0.353673 4.050896 0.353673
v -0.352973 4.051000 0.589455
v -0.117891 4.050896 0.589455
v 0.117891 4.050896 0.589455
v 0.354019 4.050823 0.589455
v -0.599083 2.034651 -0.600000
v -0.199040 2.039641 -0.600000
v 0.200288 2.062332 -0.600000
v 0.599619 2.067207 -0.600000
v -0.599179 2.036170 -1.000000
v -0.199466 2.044820 -1.000000
v 0.200100 2.057052 -1.000000
v 0.599670 2.065669 -1.000000
v 0.353673 4.050896 -0.353672
v 0.117891 4.050896 -0.353673
v -0.117891 4.050896 -0.353673
v -0.353673 4.050896 -0.353673
v -0.599891 2.064822 1.000000
v -0.200325 2.056703 1.000000
v 0.199270 2.045084 1.000000
v 0.599029 2.036947 1.000000
v -0.599316 2.041686 -0.200000
v -0.199108 2.040644 -0.200000
v 0.200193 2.061133 -0.200000
v 0.599544 2.060073 -0.200000
v -0.599868 2.066268 0.600000
v -0.200638 2.061761 0.600000
v 0.198745 2.040044 0.600000
v 0.598912 2.035512 0.600000
v -0.314950 0.065574 0.200000
v 0.084396 0.042718 0.200000
v -0.314950 0.065574 0.600000
v 0.084396 0.042718 0.600000
v -0.080165 0.042612 -0.600000
v 0.319128 0.066378 -0.600000
v -0.080166 0.042612 -0.200000
v 0.319128 0.066378 -0.200000
v 0.353673 4.550896 -0.117891
v 0.117891 4.550896 -0.117891
v -0.117891 4.550896 -0.117891
v -0.353673 4.550896 -0.117891
v 0.353673 4.550896 0.117891
v 0.117891 4.550896 0.117891
v -0.117891 4.550896 0.117891
v -0.353673 4.550896 0.117891
v 0.353672 4.550896 0.353673
v 0.117891 4.550896 0.353673
v -0.117891 4.550896 0.353673
v -0.353673 4.550896 0.353673
v 0.353673 4.550896 -0.353672
v 0.117891 4.550896 -0.353673
v -0.117891 4.550896 -0.353673
v -0.353673 4.550896 -0.353673
vn -0.002091 -0.999987 0.004555
vn 0.000705 0.999999 -0.001148
vn 0.979994 0.199027 0.000734
vn 0.001414 0.202381 0.979306
vn -0.980042 0.198789 -0.000142
vn -0.001536 0.199715 -0.979853
vn 0.003019 -0.999984 0.004818
vn -0.007943 -0.999770 0.019927
vn -0.000111 -0.999428 0.033827
vn 0.008082 -0.999779 0.019417
vn -0.000508 0.999999 -0.001245
vn 0.000000 1.000000 0.000000
vn 0.979156 0.203105 -0.001489
vn 0.979480 0.201524 0.002680
vn 0.979619 0.200840 0.003177
vn 0.979766 0.200120 0.003204
vn -0.979207 0.202864 0.000785
vn -0.979484 0.201503 -0.002683
vn -0.979624 0.200813 -0.003211
vn -0.979773 0.200085 -0.003256
vn -0.002794 0.201862 -0.979410
vn 0.002586 0.200335 0.979724
vn -0.041686 -0.999131 0.000022
vn -0.002768 0.200306 -0.979729
vn 0.003676 0.201077 0.979568
vn 0.043672 -0.999046 0.000093
vn -0.003887 0.201082 -0.979567
vn 0.002615 0.201823 0.979419
vn -0.015805 -0.999842 -0.008123
vn 0.000424 1.000000 0.000731
vn -0.002310 -0.999986 -0.004739
vn 0.001399 0.199774 0.979841
vn -0.001553 0.202451 -0.979291
vn 0.016886 -0.999821 0.008519
vn 0.002738 -0.999985 -0.004637
vn 0.017052 -0.999819 -0.008382
vn -0.015835 -0.999842 0.008106
vn 0.000154 1.000000 0.000154
vn 0.000221 1.000000 -0.000221
vn -0.007857 -0.999770 -0.019940
vn 0.004776 -0.999934 -0.010415
vn -0.000000 -0.000000 1.000000
vn 0.004934 -0.999937 0.010048
vn 0.000253 -0.999425 -0.033918
vn 0.000538 -0.998881 -0.047290
vn 0.000864 -1.000000 -0.000170
vn 0.000473 -0.998892 0.047059
vn 0.008239 -0.999777 -0.019464
vn -0.003798 -0.999946 -0.009720
vn -0.003867 -0.999942 0.010012
vn -0.000810 0.999998 0.001581
vn -0.000356 1.000000 0.000413
vn -0.000103 1.000000 -0.000046
vn -0.000294 1.000000 -0.000443
vn 1.000000 0.000000 0.000001
vn -1.000000 0.000000 -0.000000
vn 0.000000 0.000000 -1.000000
vn 0.000001 0.000000 -1.000000
vn -0.000001 0.000000 1.000000
vn -0.057140 -0.998366 -0.000000
vn 0.998365 -0.057155 -0.000011
vn -0.998362 0.057206 -0.000174
vn 0.059413 -0.998233 0.000000
vn 0.998230 0.059477 0.000208
vn -0.998233 -0.059423 -0.000010
usemtl Material
s off
f 65//1 57//1 3//1 13//1
f 40//2 21//2 7//2 41//2
f 12//3 20//3 6//3 2//3
f 57//4 41//4 7//4 3//4
f 16//5 24//5 8//5 4//5
f 31//6 49//6 4//6 8//6
f 49//7 45//7 16//7 4//7
f 45//8 61//8 15//8 16//8
f 61//9 27//9 14//9 15//9
f 27//10 65//10 13//10 14//10
f 31//11 8//11 24//11 56//11
f 56//12 24//12 23//12 26//12
f 26//12 23//12 22//12 36//12
f 36//12 22//12 21//12 40//12
f 1//13 5//13 17//13 9//13
f 9//14 17//14 18//14 10//14
f 10//15 18//15 19//15 11//15
f 11//16 19//16 20//16 12//16
f 3//17 7//17 21//17 13//17
f 13//18 21//18 22//18 14//18
f 14//19 22//19 23//19 15//19
f 15//20 23//20 24//20 16//20
f 34//21 52//21 51//21 33//21
f 60//22 44//22 43//22 59//22
f 38//12 39//12 42//12 43//12
f 67//23 59//23 58//23 66//23
f 32//24 50//24 49//24 31//24
f 59//25 43//25 42//25 58//25
f 51//26 47//26 46//26 50//26
f 33//27 51//27 50//27 32//27
f 58//28 42//28 41//28 57//28
f 66//29 58//29 57//29 65//29
f 20//30 37//30 44//30 6//30
f 12//31 2//31 60//31 68//31
f 2//32 6//32 44//32 60//32
f 5//33 1//33 52//33 34//33
f 52//34 48//34 47//34 51//34
f 1//35 9//35 48//35 52//35
f 50//36 46//36 45//36 49//36
f 68//37 60//37 59//37 67//37
f 37//38 38//38 43//38 44//38
f 39//39 40//39 41//39 42//39
f 9//40 10//40 64//40 48//40
f 48//41 64//41 63//41 47//41
f 63//42 62//42 75//42 76//42
f 46//43 62//43 61//43 45//43
f 10//44 11//44 30//44 64//44
f 64//45 30//45 29//45 63//45
f 63//46 29//46 28//46 62//46
f 62//47 28//47 27//47 61//47
f 11//48 12//48 68//48 30//48
f 30//49 68//49 67//49 29//49
f 67//42 66//42 71//42 72//42
f 28//50 66//50 65//50 27//50
f 5//51 34//51 53//51 17//51
f 34//52 33//52 54//52 53//52
f 33//53 32//53 55//53 54//53
f 32//54 31//54 56//54 55//54
f 17//12 53//12 25//12 18//12
f 35//55 25//55 77//55 81//55
f 38//42 37//42 85//42 86//42
f 56//56 26//56 80//56 92//56
f 18//12 25//12 35//12 19//12
f 55//57 56//57 92//57 91//57
f 37//55 35//55 81//55 85//55
f 53//58 54//58 90//58 89//58
f 19//12 35//12 37//12 20//12
f 26//56 36//56 84//56 80//56
f 39//59 38//59 86//59 87//59
f 25//55 53//55 89//55 77//55
f 70//60 72//60 71//60 69//60
f 29//61 67//61 72//61 70//61
f 28//57 29//57 70//57 69//57
f 66//62 28//62 69//62 71//62
f 74//63 76//63 75//63 73//63
f 47//64 63//64 76//64 74//64
f 46//57 47//57 74//57 73//57
f 62//65 46//65 73//65 75//65
f 89//12 90//12 78//12 77//12
f 90//12 91//12 79//12 78//12
f 91//12 92//12 80//12 79//12
f 77//12 78//12 82//12 81//12
f 78//12 79//12 83//12 82//12
f 79//12 80//12 84//12 83//12
f 81//12 82//12 86//12 85//12
f 82//12 83//12 87//12 86//12
f 83//12 84//12 88//12 87//12
f 54//57 55//57 91//57 90//57
f 40//59 39//59 87//59 88//59
f 36//56 40//56 88//56 84//56
