# Blender v2.67 (sub 0) OBJ File: 'essai.blend'
# www.blender.org
mtllib essai-stand_000006.mtl
o Cube
v 1.002066 2.004333 -0.997526
v 0.997358 2.007656 1.002462
v -1.002587 2.017968 0.997710
v -0.997875 2.014604 -1.002259
v 0.611243 4.003336 -0.592860
v 0.606121 4.007041 0.585995
v -0.572835 4.018683 0.580666
v -0.567439 4.014935 -0.598257
v 1.001259 2.004262 -0.597234
v 1.000243 2.003927 -0.196754
v 0.998999 2.004767 0.203260
v 0.998092 2.006478 0.602766
v -1.001837 2.018027 0.597443
v -1.000916 2.018345 0.197001
v -0.999674 2.017473 -0.202998
v -0.998668 2.015773 -0.602541
v 0.610559 4.003957 -0.357143
v 0.609481 4.004720 -0.121365
v 0.608402 4.005484 0.114413
v 0.607323 4.006247 0.350191
v -0.571514 4.018029 0.344760
v -0.570436 4.017266 0.108982
v -0.569357 4.016503 -0.126797
v -0.568279 4.015739 -0.362575
v 0.373713 4.007077 -0.122451
v -0.333590 4.014146 -0.125710
v -0.600625 2.014163 0.198827
v -0.200025 2.011215 0.199987
v 0.199980 2.011149 0.200016
v 0.599342 2.008707 0.201342
v -0.331590 4.012609 -0.597211
v -0.095739 4.010266 -0.596158
v 0.140017 4.007920 -0.595072
v 0.375642 4.005609 -0.593961
v 0.372634 4.007840 0.113327
v -0.334668 4.014910 0.110068
v 0.371556 4.008603 0.349105
v 0.135788 4.010960 0.348019
v -0.099979 4.013316 0.346932
v -0.335747 4.015673 0.345846
v -0.336929 4.016403 0.581672
v -0.101058 4.014079 0.582710
v 0.134709 4.011723 0.583797
v 0.370425 4.009372 0.584897
v -0.599125 2.012696 -0.600982
v -0.199892 2.011169 -0.600034
v 0.200096 2.010998 -0.599952
v 0.600844 2.008116 -0.598870
v -0.598136 2.012389 -1.001159
v -0.198440 2.010672 -1.000273
v 0.201548 2.009152 -0.999571
v 0.601829 2.006963 -0.998657
v 0.374792 4.006314 -0.358230
v 0.139024 4.008670 -0.359316
v -0.096743 4.011026 -0.360402
v -0.332511 4.013383 -0.361488
v -0.602289 2.015337 0.998822
v -0.201937 2.013149 0.999714
v 0.198051 2.011619 1.000420
v 0.597678 2.009884 1.001336
v -0.599794 2.013562 -0.201165
v -0.199993 2.011190 -0.200012
v 0.200008 2.011116 -0.199978
v 0.600173 2.008137 -0.198664
v -0.601230 2.014192 0.599008
v -0.200155 2.011355 0.599964
v 0.199832 2.011163 0.600057
v 0.598740 2.009585 0.601132
v -0.200000 0.011169 0.200000
v 0.200000 0.011169 0.200000
v -0.200000 0.011169 0.600000
v 0.200000 0.011169 0.600000
v -0.200000 0.011169 -0.600000
v 0.200000 0.011169 -0.600000
v -0.200000 0.011169 -0.200000
v 0.200000 0.011169 -0.200000
v 0.378718 4.507049 -0.124047
v 0.142950 4.509406 -0.125133
v -0.092817 4.511762 -0.126219
v -0.328585 4.514119 -0.127306
v 0.377639 4.507812 0.111731
v 0.141871 4.510169 0.110645
v -0.093896 4.512526 0.109559
v -0.329664 4.514882 0.108473
v 0.376560 4.508575 0.347509
v 0.140793 4.510932 0.346423
v -0.094975 4.513288 0.345337
v -0.330742 4.515645 0.344251
v 0.379796 4.506286 -0.359825
v 0.144029 4.508642 -0.360911
v -0.091739 4.510999 -0.361998
v -0.327506 4.513355 -0.363084
vn -0.008078 -0.999967 0.001339
vn 0.009842 0.999947 -0.002882
vn 0.981335 0.192294 0.002394
vn -0.001682 0.204349 0.978897
vn -0.977511 0.210861 -0.003166
vn 0.004719 0.197171 -0.980358
vn -0.006627 -0.999976 0.001830
vn -0.008755 -0.999957 0.003192
vn -0.010122 -0.999947 0.001815
vn -0.010008 -0.999950 -0.000379
vn 0.009943 0.999945 -0.003309
vn 0.010009 0.999945 -0.003192
vn 0.010008 0.999945 -0.003191
vn 0.981494 0.191483 0.002133
vn 0.981491 0.191481 0.003104
vn 0.981457 0.191656 0.003101
vn 0.981414 0.191886 0.002320
vn -0.977774 0.209636 -0.003379
vn -0.977658 0.210175 -0.003220
vn -0.977591 0.210472 -0.004109
vn -0.977539 0.210715 -0.004024
vn 0.004528 0.198717 -0.980047
vn -0.001797 0.203785 0.979014
vn 0.010009 0.999945 -0.003190
vn -0.002155 -0.999994 0.002802
vn 0.004253 0.197646 -0.980264
vn -0.001513 0.203986 0.978973
vn -0.002117 -0.999994 0.002921
vn 0.003961 0.198183 -0.980157
vn -0.001521 0.204182 0.978932
vn -0.006280 -0.999974 0.003653
vn 0.009958 0.999945 -0.003264
vn -0.006684 -0.999976 0.001832
vn -0.001965 0.203617 0.979049
vn 0.004976 0.199169 -0.979953
vn -0.006339 -0.999973 0.003732
vn -0.008103 -0.999966 0.001335
vn -0.004062 -0.999991 0.000991
vn -0.004151 -0.999991 0.000928
vn 0.009998 0.999945 -0.003201
vn 0.009938 0.999946 -0.003119
vn -0.010071 -0.999949 -0.000414
vn -0.007317 -0.999973 0.000166
vn -0.000043 -0.000003 1.000000
vn -0.004881 -0.999987 0.001105
vn -0.010198 -0.999947 0.001737
vn -0.006783 -0.999977 0.000748
vn -0.000175 -1.000000 0.000073
vn -0.006649 -0.999978 0.000775
vn -0.008834 -0.999956 0.003222
vn -0.005040 -0.999987 0.001110
vn -0.000116 -0.000005 1.000000
vn -0.007217 -0.999974 0.000205
vn 0.009833 0.999948 -0.002782
vn 0.009916 0.999946 -0.003049
vn 0.009987 0.999945 -0.003161
vn 0.009979 0.999945 -0.003212
vn 0.999939 -0.009994 0.004607
vn -0.004575 0.003237 0.999984
vn -0.999939 0.009994 -0.004607
vn 0.004575 -0.003237 -0.999984
vn 0.999939 -0.009994 0.004608
vn 0.000000 -1.000000 0.000000
vn 1.000000 0.000047 0.000186
vn 0.000036 0.000001 -1.000000
vn -1.000000 -0.000045 -0.000163
vn 1.000000 -0.000026 0.000110
vn 0.000103 0.000003 -1.000000
vn -1.000000 0.000029 -0.000126
usemtl Material
s off
f 65//1 57//1 3//1 13//1
f 40//2 21//2 7//2 41//2
f 12//3 20//3 6//3 2//3
f 57//4 41//4 7//4 3//4
f 16//5 24//5 8//5 4//5
f 31//6 49//6 4//6 8//6
f 49//7 45//7 16//7 4//7
f 45//8 61//8 15//8 16//8
f 61//9 27//9 14//9 15//9
f 27//10 65//10 13//10 14//10
f 31//11 8//11 24//11 56//11
f 56//12 24//12 23//12 26//12
f 26//13 23//13 22//13 36//13
f 36//13 22//13 21//13 40//13
f 1//14 5//14 17//14 9//14
f 9//15 17//15 18//15 10//15
f 10//16 18//16 19//16 11//16
f 11//17 19//17 20//17 12//17
f 3//18 7//18 21//18 13//18
f 13//19 21//19 22//19 14//19
f 14//20 22//20 23//20 15//20
f 15//21 23//21 24//21 16//21
f 34//22 52//22 51//22 33//22
f 60//23 44//23 43//23 59//23
f 38//24 39//24 42//24 43//24
f 67//25 59//25 58//25 66//25
f 32//26 50//26 49//26 31//26
f 59//27 43//27 42//27 58//27
f 51//28 47//28 46//28 50//28
f 33//29 51//29 50//29 32//29
f 58//30 42//30 41//30 57//30
f 66//31 58//31 57//31 65//31
f 20//32 37//32 44//32 6//32
f 12//33 2//33 60//33 68//33
f 2//34 6//34 44//34 60//34
f 5//35 1//35 52//35 34//35
f 52//36 48//36 47//36 51//36
f 1//37 9//37 48//37 52//37
f 50//38 46//38 45//38 49//38
f 68//39 60//39 59//39 67//39
f 37//40 38//40 43//40 44//40
f 39//41 40//41 41//41 42//41
f 9//42 10//42 64//42 48//42
f 48//43 64//43 63//43 47//43
f 63//44 62//44 75//44 76//44
f 46//45 62//45 61//45 45//45
f 10//46 11//46 30//46 64//46
f 64//47 30//47 29//47 63//47
f 63//48 29//48 28//48 62//48
f 62//49 28//49 27//49 61//49
f 11//50 12//50 68//50 30//50
f 30//51 68//51 67//51 29//51
f 67//52 66//52 71//52 72//52
f 28//53 66//53 65//53 27//53
f 5//54 34//54 53//54 17//54
f 34//55 33//55 54//55 53//55
f 33//56 32//56 55//56 54//56
f 32//57 31//57 56//57 55//57
f 17//24 53//24 25//24 18//24
f 35//58 25//58 77//58 81//58
f 38//59 37//59 85//59 86//59
f 56//60 26//60 80//60 92//60
f 18//12 25//12 35//12 19//12
f 55//61 56//61 92//61 91//61
f 37//62 35//62 81//62 85//62
f 53//61 54//61 90//61 89//61
f 19//24 35//24 37//24 20//24
f 26//60 36//60 84//60 80//60
f 39//59 38//59 86//59 87//59
f 25//58 53//58 89//58 77//58
f 70//63 72//63 71//63 69//63
f 29//64 67//64 72//64 70//64
f 28//65 29//65 70//65 69//65
f 66//66 28//66 69//66 71//66
f 74//63 76//63 75//63 73//63
f 47//67 63//67 76//67 74//67
f 46//68 47//68 74//68 73//68
f 62//69 46//69 73//69 75//69
f 89//13 90//13 78//13 77//13
f 90//12 91//12 79//12 78//12
f 91//12 92//12 80//12 79//12
f 77//12 78//12 82//12 81//12
f 78//12 79//12 83//12 82//12
f 79//12 80//12 84//12 83//12
f 81//24 82//24 86//24 85//24
f 82//24 83//24 87//24 86//24
f 83//24 84//24 88//24 87//24
f 54//61 55//61 91//61 90//61
f 40//59 39//59 87//59 88//59
f 36//60 40//60 88//60 84//60
