# Blender v2.67 (sub 0) OBJ File: ''
# www.blender.org
mtllib essai_000028.mtl
o Cube
v 0.988240 2.156135 -1.000000
v 0.988498 2.018312 1.000000
v -0.989791 2.149868 1.000000
v -0.988263 2.012173 -1.000000
v 0.581342 4.085824 -0.589454
v 0.592417 4.083154 0.589455
v -0.583309 4.085515 0.589454
v -0.594038 4.082458 -0.589454
v 0.989743 2.136716 -0.600000
v 0.992216 2.104079 -0.200000
v 0.992367 2.069167 0.200000
v 0.989973 2.037421 0.600000
v -0.990976 2.131244 0.600000
v -0.992916 2.099894 0.200000
v -0.992563 2.065063 -0.200000
v -0.989899 2.032065 -0.600000
v 0.589455 4.084382 -0.353672
v 0.589455 4.084382 -0.117891
v 0.589454 4.084382 0.117891
v 0.589454 4.084382 0.353673
v -0.589455 4.084382 0.353673
v -0.589455 4.084382 0.117891
v -0.589455 4.084382 -0.117891
v -0.589455 4.084382 -0.353673
v 0.353673 4.084382 -0.117891
v -0.353673 4.084382 -0.117891
v -0.593192 2.114728 0.200000
v -0.197135 2.120229 0.200000
v 0.194145 2.048096 0.200000
v 0.591974 2.053779 0.200000
v -0.356742 4.083480 -0.589454
v -0.119351 4.084132 -0.589454
v 0.116169 4.084292 -0.589454
v 0.349041 4.084681 -0.589454
v 0.353673 4.084382 0.117891
v -0.353673 4.084382 0.117891
v 0.353672 4.084382 0.353673
v 0.117891 4.084382 0.353673
v -0.117891 4.084382 0.353673
v -0.353673 4.084382 0.353673
v -0.351074 4.084565 0.589455
v -0.117891 4.084382 0.589455
v 0.117891 4.084382 0.589455
v 0.354925 4.084020 0.589455
v -0.591005 2.023916 -0.600000
v -0.195056 2.042585 -0.600000
v 0.195549 2.126779 -0.600000
v 0.591011 2.145069 -0.600000
v -0.592012 2.029583 -1.000000
v -0.196917 2.061783 -1.000000
v 0.197047 2.107244 -1.000000
v 0.592042 2.139331 -1.000000
v 0.353673 4.084382 -0.353672
v 0.117891 4.084382 -0.353673
v -0.117891 4.084382 -0.353673
v -0.353673 4.084382 -0.353673
v -0.593462 2.135059 1.000000
v -0.198162 2.105560 1.000000
v 0.196364 2.063259 1.000000
v 0.591952 2.033683 1.000000
v -0.592286 2.049887 -0.200000
v -0.195037 2.046270 -0.200000
v 0.195356 2.122382 -0.200000
v 0.592012 2.118749 -0.200000
v -0.592597 2.140306 0.600000
v -0.197363 2.124078 0.600000
v 0.194296 2.044859 0.600000
v 0.590916 2.028483 0.600000
v -0.614093 0.169999 0.200000
v -0.222878 0.086626 0.200000
v -0.614093 0.169999 0.600000
v -0.222878 0.086626 0.600000
v 0.246094 0.089702 -0.600000
v 0.636253 0.177883 -0.600000
v 0.246094 0.089702 -0.200000
v 0.636253 0.177883 -0.200000
v 0.353673 4.584382 -0.117891
v 0.117891 4.584382 -0.117891
v -0.117891 4.584382 -0.117891
v -0.353673 4.584382 -0.117891
v 0.353673 4.584382 0.117891
v 0.117891 4.584382 0.117891
v -0.117891 4.584382 0.117891
v -0.353673 4.584382 0.117891
v 0.353672 4.584382 0.353673
v 0.117891 4.584382 0.353673
v -0.117891 4.584382 0.353673
v -0.353673 4.584382 0.353673
v 0.353673 4.584382 -0.353672
v 0.117891 4.584382 -0.353673
v -0.117891 4.584382 -0.353673
v -0.353673 4.584382 -0.353673
vn -0.007231 -0.999834 0.016722
vn 0.002030 0.999994 -0.002828
vn 0.981625 0.190783 0.003806
vn 0.005163 0.205945 0.978550
vn -0.981864 0.189575 -0.001953
vn -0.005705 0.196094 -0.980568
vn 0.011644 -0.999774 0.017785
vn -0.029097 -0.996883 0.073339
vn -0.000425 -0.992328 0.123634
vn 0.029852 -0.997040 0.070853
vn -0.002161 0.999980 -0.005959
vn 0.000000 1.000000 0.000000
vn 0.978705 0.205114 -0.008071
vn 0.979820 0.199779 0.006445
vn 0.980214 0.197655 0.010621
vn 0.980701 0.195052 0.013432
vn -0.978910 0.204230 0.004940
vn -0.979826 0.199737 -0.006859
vn -0.980243 0.197471 -0.011362
vn -0.980759 0.194703 -0.014216
vn -0.010554 0.204047 -0.978904
vn 0.009388 0.198380 0.980080
vn -0.152754 -0.988264 0.000097
vn -0.010295 0.198216 -0.980104
vn 0.013493 0.201058 0.979486
vn 0.163044 -0.986619 0.000342
vn -0.014573 0.201076 -0.979467
vn 0.009626 0.203829 0.978959
vn -0.057721 -0.997889 -0.029763
vn 0.001831 0.999993 0.003356
vn -0.008084 -0.999816 -0.017388
vn 0.005030 0.196412 0.980509
vn -0.005892 0.206341 -0.978463
vn 0.063571 -0.997473 0.031711
vn 0.010629 -0.999797 -0.017104
vn 0.064143 -0.997452 -0.031233
vn -0.057882 -0.997883 0.029663
vn 0.000765 0.999999 0.000765
vn 0.000390 1.000000 -0.000390
vn -0.028727 -0.996893 -0.073344
vn 0.018486 -0.999092 -0.038380
vn -0.000000 -0.000000 1.000000
vn 0.018961 -0.999133 0.037067
vn 0.000889 -0.992296 -0.123890
vn 0.002541 -0.985183 -0.171486
vn 0.005090 -0.999987 -0.000387
vn 0.002340 -0.985276 0.170956
vn 0.030338 -0.997018 -0.070959
vn -0.013450 -0.999274 -0.035656
vn -0.013546 -0.999232 0.036759
vn -0.002444 0.999990 0.003758
vn -0.000828 1.000000 0.000454
vn -0.000341 1.000000 -0.000719
vn -0.001378 0.999996 -0.002431
vn 1.000000 0.000000 0.000001
vn -1.000000 0.000000 -0.000000
vn 0.000000 0.000000 -1.000000
vn 0.000001 0.000000 -1.000000
vn -0.000001 0.000000 1.000000
vn -0.208431 -0.978037 -0.000000
vn 0.978094 -0.208160 -0.001026
vn -0.977953 0.208822 -0.001284
vn 0.220452 -0.975398 0.000000
vn 0.975308 0.220844 0.001449
vn -0.975467 -0.220143 0.001037
usemtl Material
s off
f 65//1 57//1 3//1 13//1
f 40//2 21//2 7//2 41//2
f 12//3 20//3 6//3 2//3
f 57//4 41//4 7//4 3//4
f 16//5 24//5 8//5 4//5
f 31//6 49//6 4//6 8//6
f 49//7 45//7 16//7 4//7
f 45//8 61//8 15//8 16//8
f 61//9 27//9 14//9 15//9
f 27//10 65//10 13//10 14//10
f 31//11 8//11 24//11 56//11
f 56//12 24//12 23//12 26//12
f 26//12 23//12 22//12 36//12
f 36//12 22//12 21//12 40//12
f 1//13 5//13 17//13 9//13
f 9//14 17//14 18//14 10//14
f 10//15 18//15 19//15 11//15
f 11//16 19//16 20//16 12//16
f 3//17 7//17 21//17 13//17
f 13//18 21//18 22//18 14//18
f 14//19 22//19 23//19 15//19
f 15//20 23//20 24//20 16//20
f 34//21 52//21 51//21 33//21
f 60//22 44//22 43//22 59//22
f 38//12 39//12 42//12 43//12
f 67//23 59//23 58//23 66//23
f 32//24 50//24 49//24 31//24
f 59//25 43//25 42//25 58//25
f 51//26 47//26 46//26 50//26
f 33//27 51//27 50//27 32//27
f 58//28 42//28 41//28 57//28
f 66//29 58//29 57//29 65//29
f 20//30 37//30 44//30 6//30
f 12//31 2//31 60//31 68//31
f 2//32 6//32 44//32 60//32
f 5//33 1//33 52//33 34//33
f 52//34 48//34 47//34 51//34
f 1//35 9//35 48//35 52//35
f 50//36 46//36 45//36 49//36
f 68//37 60//37 59//37 67//37
f 37//38 38//38 43//38 44//38
f 39//39 40//39 41//39 42//39
f 9//40 10//40 64//40 48//40
f 48//41 64//41 63//41 47//41
f 63//42 62//42 75//42 76//42
f 46//43 62//43 61//43 45//43
f 10//44 11//44 30//44 64//44
f 64//45 30//45 29//45 63//45
f 63//46 29//46 28//46 62//46
f 62//47 28//47 27//47 61//47
f 11//48 12//48 68//48 30//48
f 30//49 68//49 67//49 29//49
f 67//42 66//42 71//42 72//42
f 28//50 66//50 65//50 27//50
f 5//51 34//51 53//51 17//51
f 34//52 33//52 54//52 53//52
f 33//53 32//53 55//53 54//53
f 32//54 31//54 56//54 55//54
f 17//12 53//12 25//12 18//12
f 35//55 25//55 77//55 81//55
f 38//42 37//42 85//42 86//42
f 56//56 26//56 80//56 92//56
f 18//12 25//12 35//12 19//12
f 55//57 56//57 92//57 91//57
f 37//55 35//55 81//55 85//55
f 53//58 54//58 90//58 89//58
f 19//12 35//12 37//12 20//12
f 26//56 36//56 84//56 80//56
f 39//59 38//59 86//59 87//59
f 25//55 53//55 89//55 77//55
f 70//60 72//60 71//60 69//60
f 29//61 67//61 72//61 70//61
f 28//57 29//57 70//57 69//57
f 66//62 28//62 69//62 71//62
f 74//63 76//63 75//63 73//63
f 47//64 63//64 76//64 74//64
f 46//57 47//57 74//57 73//57
f 62//65 46//65 73//65 75//65
f 89//12 90//12 78//12 77//12
f 90//12 91//12 79//12 78//12
f 91//12 92//12 80//12 79//12
f 77//12 78//12 82//12 81//12
f 78//12 79//12 83//12 82//12
f 79//12 80//12 84//12 83//12
f 81//12 82//12 86//12 85//12
f 82//12 83//12 87//12 86//12
f 83//12 84//12 88//12 87//12
f 54//57 55//57 91//57 90//57
f 40//59 39//59 87//59 88//59
f 36//56 40//56 88//56 84//56
