# Blender v2.67 (sub 0) OBJ File: ''
# www.blender.org
mtllib essai_000025.mtl
o Cube
v 0.999159 2.035939 -1.000000
v 0.999177 2.000219 1.000000
v -0.999482 2.031265 1.000000
v -0.999158 1.995589 -1.000000
v 0.587289 4.016397 -0.589454
v 0.590195 4.015588 0.589455
v -0.587989 4.016221 0.589454
v -0.590738 4.015408 -0.589454
v 0.999267 2.030715 -0.600000
v 0.999443 2.021942 -0.200000
v 0.999454 2.012883 0.200000
v 0.999283 2.004975 0.600000
v -0.999524 2.026634 0.600000
v -0.999591 2.018832 0.200000
v -0.999511 2.009812 -0.200000
v -0.999292 2.000941 -0.600000
v 0.589455 4.015828 -0.353672
v 0.589455 4.015828 -0.117891
v 0.589454 4.015828 0.117891
v 0.589454 4.015828 0.353673
v -0.589455 4.015828 0.353673
v -0.589455 4.015828 0.117891
v -0.589455 4.015828 -0.117891
v -0.589455 4.015828 -0.353673
v 0.353673 4.015828 -0.117891
v -0.353673 4.015828 -0.117891
v -0.599676 2.022652 0.200000
v -0.200097 2.024470 0.200000
v 0.199378 2.007016 0.200000
v 0.599385 2.008913 0.200000
v -0.354524 4.015651 -0.589454
v -0.118292 4.015792 -0.589454
v 0.117423 4.015842 -0.589454
v 0.352425 4.016011 -0.589454
v 0.353673 4.015828 0.117891
v -0.353673 4.015828 0.117891
v 0.353672 4.015828 0.353673
v 0.117891 4.015828 0.353673
v -0.117891 4.015828 0.353673
v -0.353673 4.015828 0.353673
v -0.353048 4.015923 0.589455
v -0.117891 4.015828 0.589455
v 0.117891 4.015828 0.589455
v 0.353983 4.015765 0.589455
v -0.599343 1.998996 -0.600000
v -0.199580 2.004398 -0.600000
v 0.199727 2.027410 -0.600000
v 0.599361 2.032711 -0.600000
v -0.599414 2.000597 -1.000000
v -0.199758 2.009581 -1.000000
v 0.199804 2.022136 -1.000000
v 0.599435 2.031092 -1.000000
v 0.353673 4.015828 -0.353672
v 0.117891 4.015828 -0.353673
v -0.117891 4.015828 -0.353673
v -0.353673 4.015828 -0.353673
v -0.599737 2.027916 1.000000
v -0.200052 2.020910 1.000000
v 0.199618 2.010725 1.000000
v 0.599373 2.003704 1.000000
v -0.599476 2.005855 -0.200000
v -0.199600 2.005332 -0.200000
v 0.199697 2.026283 -0.200000
v 0.599422 2.025758 -0.200000
v -0.599699 2.029141 0.600000
v -0.200128 2.025486 0.600000
v 0.199382 2.006154 0.600000
v 0.599293 2.002487 0.600000
v -0.301863 0.028560 0.200000
v 0.097619 0.008214 0.200000
v -0.301863 0.028560 0.600000
v 0.097619 0.008214 0.600000
v -0.079052 0.007461 -0.600000
v 0.320222 0.031563 -0.600000
v -0.079052 0.007461 -0.200000
v 0.320222 0.031563 -0.200000
v 0.353673 4.515828 -0.117891
v 0.117891 4.515828 -0.117891
v -0.117891 4.515828 -0.117891
v -0.353673 4.515828 -0.117891
v 0.353673 4.515828 0.117891
v 0.117891 4.515828 0.117891
v -0.117891 4.515828 0.117891
v -0.353673 4.515828 0.117891
v 0.353672 4.515828 0.353673
v 0.117891 4.515828 0.353673
v -0.117891 4.515828 0.353673
v -0.353673 4.515828 0.353673
v 0.353673 4.515828 -0.353672
v 0.117891 4.515828 -0.353673
v -0.117891 4.515828 -0.353673
v -0.353673 4.515828 -0.353673
vn -0.001053 -0.999990 0.004258
vn 0.000634 0.999999 -0.001036
vn 0.979922 0.199382 0.000588
vn 0.001162 0.202208 0.979342
vn -0.980047 0.198764 -0.000032
vn -0.001649 0.199668 -0.979862
vn 0.003830 -0.999982 0.004689
vn -0.007376 -0.999780 0.019656
vn -0.000171 -0.999480 0.032254
vn 0.007909 -0.999809 0.017861
vn -0.000516 0.999999 -0.001265
vn 0.000000 1.000000 0.000000
vn 0.979145 0.203156 -0.001649
vn 0.979466 0.201594 0.002510
vn 0.979593 0.200973 0.002847
vn 0.979723 0.200336 0.002756
vn -0.979270 0.202560 0.000721
vn -0.979516 0.201352 -0.002368
vn -0.979644 0.200723 -0.002971
vn -0.979783 0.200041 -0.003128
vn -0.002902 0.201885 -0.979405
vn 0.002233 0.200429 0.979706
vn -0.036909 -0.999319 0.000009
vn -0.002874 0.200283 -0.979734
vn 0.003223 0.201077 0.979570
vn 0.044477 -0.999010 0.000108
vn -0.003990 0.201082 -0.979566
vn 0.002256 0.201728 0.979439
vn -0.013338 -0.999885 -0.007249
vn 0.000375 1.000000 0.000643
vn -0.001246 -0.999990 -0.004424
vn 0.001151 0.199944 0.979807
vn -0.001670 0.202498 -0.979281
vn 0.017834 -0.999804 0.008618
vn 0.003565 -0.999984 -0.004506
vn 0.017993 -0.999802 -0.008484
vn -0.013364 -0.999884 0.007239
vn 0.000134 1.000000 0.000134
vn 0.000200 1.000000 -0.000200
vn -0.007264 -0.999780 -0.019651
vn 0.005974 -0.999931 -0.010100
vn -0.000000 -0.000000 1.000000
vn 0.006101 -0.999934 0.009741
vn 0.000193 -0.999476 -0.032363
vn 0.001713 -0.998981 -0.045093
vn 0.004379 -0.999990 -0.000156
vn 0.001618 -0.998991 0.044875
vn 0.008071 -0.999807 -0.017912
vn -0.002213 -0.999956 -0.009111
vn -0.002298 -0.999953 0.009380
vn -0.000822 0.999998 0.001601
vn -0.000359 1.000000 0.000418
vn -0.000105 1.000000 -0.000046
vn -0.000299 1.000000 -0.000450
vn 1.000000 0.000000 0.000001
vn -1.000000 0.000000 -0.000000
vn 0.000000 0.000000 -1.000000
vn 0.000001 0.000000 -1.000000
vn -0.000001 0.000000 1.000000
vn -0.050865 -0.998706 -0.000000
vn 0.998706 -0.050856 -0.000060
vn -0.998704 0.050901 -0.000103
vn 0.060254 -0.998183 0.000000
vn 0.998181 0.060287 0.000122
vn -0.998184 -0.060238 0.000045
usemtl Material
s off
f 65//1 57//1 3//1 13//1
f 40//2 21//2 7//2 41//2
f 12//3 20//3 6//3 2//3
f 57//4 41//4 7//4 3//4
f 16//5 24//5 8//5 4//5
f 31//6 49//6 4//6 8//6
f 49//7 45//7 16//7 4//7
f 45//8 61//8 15//8 16//8
f 61//9 27//9 14//9 15//9
f 27//10 65//10 13//10 14//10
f 31//11 8//11 24//11 56//11
f 56//12 24//12 23//12 26//12
f 26//12 23//12 22//12 36//12
f 36//12 22//12 21//12 40//12
f 1//13 5//13 17//13 9//13
f 9//14 17//14 18//14 10//14
f 10//15 18//15 19//15 11//15
f 11//16 19//16 20//16 12//16
f 3//17 7//17 21//17 13//17
f 13//18 21//18 22//18 14//18
f 14//19 22//19 23//19 15//19
f 15//20 23//20 24//20 16//20
f 34//21 52//21 51//21 33//21
f 60//22 44//22 43//22 59//22
f 38//12 39//12 42//12 43//12
f 67//23 59//23 58//23 66//23
f 32//24 50//24 49//24 31//24
f 59//25 43//25 42//25 58//25
f 51//26 47//26 46//26 50//26
f 33//27 51//27 50//27 32//27
f 58//28 42//28 41//28 57//28
f 66//29 58//29 57//29 65//29
f 20//30 37//30 44//30 6//30
f 12//31 2//31 60//31 68//31
f 2//32 6//32 44//32 60//32
f 5//33 1//33 52//33 34//33
f 52//34 48//34 47//34 51//34
f 1//35 9//35 48//35 52//35
f 50//36 46//36 45//36 49//36
f 68//37 60//37 59//37 67//37
f 37//38 38//38 43//38 44//38
f 39//39 40//39 41//39 42//39
f 9//40 10//40 64//40 48//40
f 48//41 64//41 63//41 47//41
f 63//42 62//42 75//42 76//42
f 46//43 62//43 61//43 45//43
f 10//44 11//44 30//44 64//44
f 64//45 30//45 29//45 63//45
f 63//46 29//46 28//46 62//46
f 62//47 28//47 27//47 61//47
f 11//48 12//48 68//48 30//48
f 30//49 68//49 67//49 29//49
f 67//42 66//42 71//42 72//42
f 28//50 66//50 65//50 27//50
f 5//51 34//51 53//51 17//51
f 34//52 33//52 54//52 53//52
f 33//53 32//53 55//53 54//53
f 32//54 31//54 56//54 55//54
f 17//12 53//12 25//12 18//12
f 35//55 25//55 77//55 81//55
f 38//42 37//42 85//42 86//42
f 56//56 26//56 80//56 92//56
f 18//12 25//12 35//12 19//12
f 55//57 56//57 92//57 91//57
f 37//55 35//55 81//55 85//55
f 53//58 54//58 90//58 89//58
f 19//12 35//12 37//12 20//12
f 26//56 36//56 84//56 80//56
f 39//59 38//59 86//59 87//59
f 25//55 53//55 89//55 77//55
f 70//60 72//60 71//60 69//60
f 29//61 67//61 72//61 70//61
f 28//57 29//57 70//57 69//57
f 66//62 28//62 69//62 71//62
f 74//63 76//63 75//63 73//63
f 47//64 63//64 76//64 74//64
f 46//57 47//57 74//57 73//57
f 62//65 46//65 73//65 75//65
f 89//12 90//12 78//12 77//12
f 90//12 91//12 79//12 78//12
f 91//12 92//12 80//12 79//12
f 77//12 78//12 82//12 81//12
f 78//12 79//12 83//12 82//12
f 79//12 80//12 84//12 83//12
f 81//12 82//12 86//12 85//12
f 82//12 83//12 87//12 86//12
f 83//12 84//12 88//12 87//12
f 54//57 55//57 91//57 90//57
f 40//59 39//59 87//59 88//59
f 36//56 40//56 88//56 84//56
