# Blender v2.67 (sub 0) OBJ File: ''
# www.blender.org
mtllib essai_000040.mtl
o Cube
v 0.975383 2.343441 -1.000000
v 0.975206 2.143030 1.000000
v -0.977672 2.337222 1.000000
v -0.974859 2.136945 -1.000000
v 0.577609 4.241937 -0.589454
v 0.593731 4.238404 0.589455
v -0.580308 4.241653 0.589454
v -0.595946 4.237315 -0.589454
v 0.978475 2.315373 -0.600000
v 0.983559 2.268190 -0.200000
v 0.983696 2.217434 0.200000
v 0.978441 2.170991 0.600000
v -0.980302 2.309938 0.600000
v -0.984613 2.264019 0.200000
v -0.983975 2.213352 -0.200000
v -0.978327 2.165679 -0.600000
v 0.589455 4.240438 -0.353672
v 0.589455 4.240438 -0.117891
v 0.589454 4.240438 0.117891
v 0.589454 4.240438 0.353673
v -0.589455 4.240438 0.353673
v -0.589455 4.240438 0.117891
v -0.589455 4.240438 -0.117891
v -0.589455 4.240438 -0.353673
v 0.353673 4.240438 -0.117891
v -0.353673 4.240438 -0.117891
v -0.585075 2.285663 0.200000
v -0.193431 2.293396 0.200000
v 0.187559 2.187326 0.200000
v 0.582855 2.195088 0.200000
v -0.358048 4.238907 -0.589454
v -0.119985 4.239969 -0.589454
v 0.115405 4.240183 -0.589454
v 0.346947 4.240533 -0.589454
v 0.353673 4.240438 0.117891
v -0.353673 4.240438 0.117891
v 0.353672 4.240438 0.353673
v 0.117891 4.240438 0.353673
v -0.117891 4.240438 0.353673
v -0.353673 4.240438 0.353673
v -0.349827 4.240515 0.589455
v -0.117891 4.240438 0.589455
v 0.117891 4.240438 0.589455
v 0.355492 4.239811 0.589455
v -0.580600 2.153700 -0.600000
v -0.188950 2.180366 -0.600000
v 0.191274 2.301685 -0.600000
v 0.581364 2.327708 -0.600000
v -0.582776 2.161806 -1.000000
v -0.193101 2.208041 -1.000000
v 0.194155 2.273426 -1.000000
v 0.583510 2.319477 -1.000000
v 0.353673 4.240438 -0.353672
v 0.117891 4.240438 -0.353673
v -0.117891 4.240438 -0.353673
v -0.353673 4.240438 -0.353673
v -0.585596 2.315239 1.000000
v -0.195791 2.271754 1.000000
v 0.192288 2.209504 1.000000
v 0.582687 2.165868 1.000000
v -0.583308 2.191341 -0.200000
v -0.188897 2.185754 -0.200000
v 0.190830 2.295287 -0.200000
v 0.583324 2.289549 -0.200000
v -0.583695 2.323011 0.600000
v -0.193936 2.298973 0.600000
v 0.187835 2.182636 0.600000
v 0.580468 2.158197 0.600000
v -0.805808 0.397909 0.200000
v -0.425007 0.275473 0.200000
v -0.805808 0.397909 0.600000
v -0.425007 0.275473 0.600000
v 0.446920 0.280956 -0.600000
v 0.826202 0.408020 -0.600000
v 0.446920 0.280956 -0.200000
v 0.826202 0.408020 -0.200000
v 0.353673 4.740438 -0.117891
v 0.117891 4.740438 -0.117891
v -0.117891 4.740438 -0.117891
v -0.353673 4.740438 -0.117891
v 0.353673 4.740438 0.117891
v 0.117891 4.740438 0.117891
v -0.117891 4.740438 0.117891
v -0.353673 4.740438 0.117891
v 0.353672 4.740438 0.353673
v 0.117891 4.740438 0.353673
v -0.117891 4.740438 0.353673
v -0.353673 4.740438 0.353673
v 0.353673 4.740438 -0.353672
v 0.117891 4.740438 -0.353673
v -0.117891 4.740438 -0.353673
v -0.353673 4.740438 -0.353673
vn -0.011293 -0.999639 0.024391
vn 0.002442 0.999993 -0.002808
vn 0.983093 0.182973 0.007022
vn 0.007740 0.208407 0.978012
vn -0.983375 0.181533 -0.004421
vn -0.008145 0.193989 -0.980970
vn 0.016302 -0.999534 0.025799
vn -0.042298 -0.993518 0.105511
vn -0.000452 -0.983971 0.178329
vn 0.043333 -0.993724 0.103123
vn -0.003360 0.999946 -0.009791
vn 0.000000 1.000000 0.000000
vn 0.978927 0.203762 -0.013523
vn 0.980490 0.196451 0.006738
vn 0.980969 0.193566 0.015241
vn 0.981610 0.189627 0.021967
vn -0.979177 0.202804 0.009047
vn -0.980452 0.196615 -0.007553
vn -0.980965 0.193492 -0.016404
vn -0.981649 0.189315 -0.022916
vn -0.015352 0.205422 -0.978553
vn 0.013892 0.197105 0.980284
vn -0.225975 -0.974133 0.000307
vn -0.014841 0.196965 -0.980298
vn 0.020060 0.201041 0.979377
vn 0.236375 -0.971662 0.000336
vn -0.021183 0.201070 -0.979348
vn 0.014377 0.205195 0.978615
vn -0.086211 -0.995308 -0.043938
vn 0.002967 0.999980 0.005604
vn -0.012702 -0.999597 -0.025369
vn 0.007467 0.194269 0.980920
vn -0.008509 0.208811 -0.977919
vn 0.091978 -0.994700 0.045949
vn 0.014734 -0.999584 -0.024804
vn 0.092807 -0.994657 -0.045221
vn -0.086528 -0.995291 0.043692
vn 0.001325 0.999998 0.001325
vn 0.000164 1.000000 -0.000164
vn -0.041983 -0.993520 -0.105615
vn 0.025871 -0.998116 -0.055640
vn -0.000000 -0.000000 1.000000
vn 0.026768 -0.998194 0.053778
vn 0.001213 -0.983921 -0.178602
vn 0.002490 -0.969448 -0.245285
vn 0.004553 -0.999990 -0.000353
vn 0.002647 -0.969571 0.244794
vn 0.043714 -0.993711 -0.103095
vn -0.021133 -0.998426 -0.051950
vn -0.020832 -0.998346 0.053590
vn -0.003011 0.999989 0.003499
vn -0.000749 1.000000 -0.000325
vn -0.000453 0.999999 -0.001531
vn -0.002242 0.999989 -0.004210
vn 1.000000 0.000000 0.000001
vn -1.000000 0.000000 -0.000000
vn 0.000000 0.000000 -1.000000
vn 0.000001 0.000000 -1.000000
vn -0.000001 0.000000 1.000000
vn -0.306088 -0.952003 -0.000000
vn 0.952181 -0.305526 -0.002120
vn -0.951738 0.306901 -0.002740
vn 0.317659 -0.948205 0.000000
vn 0.947925 0.318479 0.003073
vn -0.948410 -0.317039 0.002198
usemtl Material
s off
f 65//1 57//1 3//1 13//1
f 40//2 21//2 7//2 41//2
f 12//3 20//3 6//3 2//3
f 57//4 41//4 7//4 3//4
f 16//5 24//5 8//5 4//5
f 31//6 49//6 4//6 8//6
f 49//7 45//7 16//7 4//7
f 45//8 61//8 15//8 16//8
f 61//9 27//9 14//9 15//9
f 27//10 65//10 13//10 14//10
f 31//11 8//11 24//11 56//11
f 56//12 24//12 23//12 26//12
f 26//12 23//12 22//12 36//12
f 36//12 22//12 21//12 40//12
f 1//13 5//13 17//13 9//13
f 9//14 17//14 18//14 10//14
f 10//15 18//15 19//15 11//15
f 11//16 19//16 20//16 12//16
f 3//17 7//17 21//17 13//17
f 13//18 21//18 22//18 14//18
f 14//19 22//19 23//19 15//19
f 15//20 23//20 24//20 16//20
f 34//21 52//21 51//21 33//21
f 60//22 44//22 43//22 59//22
f 38//12 39//12 42//12 43//12
f 67//23 59//23 58//23 66//23
f 32//24 50//24 49//24 31//24
f 59//25 43//25 42//25 58//25
f 51//26 47//26 46//26 50//26
f 33//27 51//27 50//27 32//27
f 58//28 42//28 41//28 57//28
f 66//29 58//29 57//29 65//29
f 20//30 37//30 44//30 6//30
f 12//31 2//31 60//31 68//31
f 2//32 6//32 44//32 60//32
f 5//33 1//33 52//33 34//33
f 52//34 48//34 47//34 51//34
f 1//35 9//35 48//35 52//35
f 50//36 46//36 45//36 49//36
f 68//37 60//37 59//37 67//37
f 37//38 38//38 43//38 44//38
f 39//39 40//39 41//39 42//39
f 9//40 10//40 64//40 48//40
f 48//41 64//41 63//41 47//41
f 63//42 62//42 75//42 76//42
f 46//43 62//43 61//43 45//43
f 10//44 11//44 30//44 64//44
f 64//45 30//45 29//45 63//45
f 63//46 29//46 28//46 62//46
f 62//47 28//47 27//47 61//47
f 11//48 12//48 68//48 30//48
f 30//49 68//49 67//49 29//49
f 67//42 66//42 71//42 72//42
f 28//50 66//50 65//50 27//50
f 5//51 34//51 53//51 17//51
f 34//52 33//52 54//52 53//52
f 33//53 32//53 55//53 54//53
f 32//54 31//54 56//54 55//54
f 17//12 53//12 25//12 18//12
f 35//55 25//55 77//55 81//55
f 38//42 37//42 85//42 86//42
f 56//56 26//56 80//56 92//56
f 18//12 25//12 35//12 19//12
f 55//57 56//57 92//57 91//57
f 37//55 35//55 81//55 85//55
f 53//58 54//58 90//58 89//58
f 19//12 35//12 37//12 20//12
f 26//56 36//56 84//56 80//56
f 39//59 38//59 86//59 87//59
f 25//55 53//55 89//55 77//55
f 70//60 72//60 71//60 69//60
f 29//61 67//61 72//61 70//61
f 28//57 29//57 70//57 69//57
f 66//62 28//62 69//62 71//62
f 74//63 76//63 75//63 73//63
f 47//64 63//64 76//64 74//64
f 46//57 47//57 74//57 73//57
f 62//65 46//65 73//65 75//65
f 89//12 90//12 78//12 77//12
f 90//12 91//12 79//12 78//12
f 91//12 92//12 80//12 79//12
f 77//12 78//12 82//12 81//12
f 78//12 79//12 83//12 82//12
f 79//12 80//12 84//12 83//12
f 81//12 82//12 86//12 85//12
f 82//12 83//12 87//12 86//12
f 83//12 84//12 88//12 87//12
f 54//57 55//57 91//57 90//57
f 40//59 39//59 87//59 88//59
f 36//56 40//56 88//56 84//56
