# Blender v2.60 (sub 0) OBJ File: ''
# www.blender.org
mtllib maison.mtl
o Cube
v -1.205576 0.000000 -0.739315
v 0.739315 0.000000 -1.205576
v 1.205575 0.000000 0.739316
v -0.739316 0.000000 1.205575
v -1.205575 2.000000 -0.739316
v 0.739316 2.000000 -1.205575
v 1.205575 2.000000 0.739316
v -0.739315 2.000000 1.205576
v 0.151610 2.922228 0.092974
v -0.092974 2.922228 0.151610
v 0.092974 2.922228 -0.151610
v -0.151609 2.922228 -0.092974
v 1.205575 0.000000 0.739316
v -0.739316 0.000000 1.205575
v 1.205575 2.000000 0.739316
v -0.739315 2.000000 1.205576
v 2.877964 0.009401 -2.749504
v 2.877964 0.009401 3.210623
v -3.082164 0.009401 3.210622
v -3.082163 0.009401 -2.749505
vt 0.047160 0.952840
vt 0.047160 0.047160
vt 0.952840 0.047160
vt 0.952840 0.952840
vt 0.000000 0.000000
vt 1.000000 0.000000
vt 1.000000 1.000000
vt 0.000000 1.000000
vt 1.000000 0.999999
vt 0.886383 0.113617
vt 0.886383 0.886383
vt 0.113617 0.886383
vt 0.113617 0.113617
vn 0.000000 1.000000 -0.000000
vn 0.000000 -1.000000 -0.000000
vn -0.233130 0.000000 -0.972446
vn 0.972446 -0.000000 -0.233130
vn 0.233130 -0.000000 0.972446
vn -0.972446 0.000000 0.233130
vn 0.169191 0.687974 0.705738
vn 0.705738 0.687974 -0.169190
vn -0.705738 0.687974 0.169190
vn -0.169190 0.687974 -0.705738
usemtl herbe_herbe.png
s off
f 19/1/1 18/2/1 17/3/1 20/4/1
usemtl herbe
f 1/5/2 2/6/2 3/7/2 4/8/2
usemtl Brique_briques.jpg
f 1/6/3 5/9/3 6/8/3 2/5/3
f 2/6/4 6/7/4 7/8/4 3/5/4
f 13/8/5 15/5/5 16/6/5 14/7/5
usemtl noir_briques.jpg
f 5/10/6 1/11/6 4/12/6 8/13/6
usemtl noir
f 8/5/7 7/6/7 9/7/7 10/8/7
f 7/5/8 6/6/8 11/7/8 9/8/8
f 5/5/9 8/6/9 10/7/9 12/8/9
f 6/5/10 5/6/10 12/7/10 11/8/10
f 12/5/1 10/6/1 9/7/1 11/8/1
