# Blender v2.60 (sub 0) OBJ File: ''
# www.blender.org
mtllib superfinal.mtl
o Cube
v 0.000000 -1.000000 -0.000000
v 1.000000 0.000000 0.000000
v -0.000000 0.000000 1.000000
v -1.000000 0.000000 -0.000000
v 0.000000 0.000000 -1.000000
v -0.860627 1.143427 -0.000000
v -0.000000 1.143427 0.860627
v 0.000000 1.143427 -0.860627
v 0.860627 1.143427 0.000000
v 0.721254 1.422359 0.000000
v 0.000000 1.422359 -0.721254
v -0.000000 1.422359 0.721254
v -0.721254 1.422359 -0.000000
v -0.000000 1.557863 0.000000
v 0.750000 -0.750000 0.000000
v 0.000000 -0.750000 -0.750000
v 0.750000 0.000000 -0.750000
v -0.000000 -0.750000 0.750000
v 0.750000 0.000000 0.750000
v -0.750000 -0.750000 -0.000000
v -0.750000 0.000000 0.750000
v -0.750000 0.000000 -0.750000
v 0.965157 0.785857 0.000000
v 0.000000 0.785857 -0.965157
v -0.000000 0.785857 0.965157
v -0.965157 0.785857 -0.000000
v -0.645471 1.143427 0.645470
v -0.756098 1.284873 -0.000000
v -0.645470 1.143427 -0.645470
v 0.645470 1.143427 0.645471
v -0.000000 1.284873 0.756098
v 0.000000 1.284873 -0.756097
v 0.645471 1.143427 -0.645470
v 0.756097 1.284873 0.000000
v 0.540941 1.422359 -0.540940
v 0.540941 1.523987 0.000000
v 0.540940 1.422359 0.540941
v -0.540941 1.422359 -0.540941
v 0.000000 1.523987 -0.540941
v -0.000000 1.523987 0.540941
v -0.540941 1.422359 0.540941
v -0.540941 1.523987 -0.000000
v 0.555556 -0.555556 -0.555556
v 0.555555 -0.555556 0.555556
v -0.555556 -0.555556 0.555555
v -0.555555 -0.555556 -0.555556
v 0.723868 0.785857 -0.723867
v 0.723867 0.785857 0.723868
v -0.723868 0.785857 0.723867
v -0.723868 0.785857 -0.723868
v -0.567073 1.284873 -0.567073
v -0.567073 1.284873 0.567073
v 0.567073 1.284873 0.567073
v 0.567073 1.284873 -0.567073
v 0.400697 1.497639 -0.400697
v 0.400697 1.497639 0.400697
v -0.400697 1.497639 0.400697
v -0.400697 1.497639 -0.400697
vt 0.500000 0.500000
vt 0.000000 0.500000
vt 0.000000 0.000000
vt 0.500000 0.000000
vt 1.000000 0.000000
vt 1.000000 0.500000
vt 1.000000 1.000000
vt 0.500000 1.000000
vt 0.000000 1.000000
vt 0.495388 0.367682
vt 0.552941 0.384399
vt 0.569588 0.472216
vt 0.492170 0.427534
vt 0.417511 0.427039
vt 0.447871 0.365136
vt 0.453067 0.308086
vt 0.508643 0.322001
vt 0.577073 0.313772
vt 0.483514 0.602561
vt 0.661434 0.601609
vt 0.826242 0.833794
vt 0.472139 0.835176
vt 0.149734 0.631152
vt 0.321568 0.500244
vt 0.309938 0.358065
vt 0.126797 0.348730
vt 0.308230 0.104126
vt 0.401071 0.234865
vt 0.547411 0.189486
vt 0.598936 0.013555
vt 0.857942 0.128389
vt 0.677776 0.247376
vt 0.720986 0.433982
vt 0.944277 0.500000
vn -0.902432 0.430799 0.000000
vn -0.633534 0.444075 -0.633534
vn -0.697134 0.167089 -0.697134
vn -0.987121 0.159856 0.000000
vn -0.697134 0.167089 0.697134
vn -0.633534 0.444075 0.633534
vn -0.623432 0.471847 0.623432
vn -0.896084 0.443831 0.000000
vn -0.623432 0.471847 -0.623432
vn 0.000000 0.430799 0.902432
vn 0.000000 0.159856 0.987121
vn 0.697134 0.167089 0.697134
vn 0.633534 0.444075 0.633534
vn 0.623432 0.471847 0.623432
vn 0.000000 0.443831 0.896084
vn 0.000000 0.430799 -0.902432
vn 0.633534 0.444075 -0.633534
vn 0.697134 0.167089 -0.697134
vn 0.000000 0.159856 -0.987121
vn 0.000000 0.443831 -0.896084
vn 0.623432 0.471847 -0.623432
vn 0.902432 0.430799 0.000000
vn 0.987121 0.159856 0.000000
vn 0.896084 0.443831 0.000000
vn 0.801569 0.597858 0.000000
vn 0.571825 0.588214 0.571825
vn 0.571825 0.588214 -0.571825
vn 0.220222 0.950255 -0.220222
vn 0.287332 0.957823 0.000000
vn 0.220222 0.950255 0.220222
vn 0.000000 0.597858 -0.801569
vn -0.571825 0.588214 -0.571825
vn -0.220222 0.950255 -0.220222
vn 0.000000 0.957823 -0.287332
vn 0.000000 0.597858 0.801569
vn -0.571825 0.588214 0.571825
vn 0.000000 0.957823 0.287332
vn -0.220222 0.950255 0.220222
vn -0.801569 0.597858 0.000000
vn -0.287332 0.957823 0.000000
vn 0.000000 0.999969 0.000000
vn 0.000000 -1.000000 0.000000
vn 0.000000 -0.707083 -0.707083
vn 0.577349 -0.577349 -0.577349
vn 0.707083 -0.707083 0.000000
vn 0.577349 -0.577349 0.577349
vn 0.000000 -0.707083 0.707083
vn -0.577349 -0.577349 0.577349
vn -0.707083 -0.707083 0.000000
vn -0.577349 -0.577349 -0.577349
vn 0.987091 -0.159948 0.000000
vn 0.698141 -0.158574 -0.698141
vn 0.698141 -0.158574 0.698141
vn 0.000000 -0.159948 0.987091
vn -0.698141 -0.158574 0.698141
vn -0.987091 -0.159948 0.000000
vn -0.698141 -0.158574 -0.698141
vn 0.000000 -0.159948 -0.987091
usemtl Material
s 1
f 6/1/1 29/2/2 50/3/3 26/4/4
f 6/1/1 26/4/4 49/5/5 27/6/6
f 6/1/1 27/6/6 52/7/7 28/8/8
f 6/1/1 28/8/8 51/9/9 29/2/2
f 7/1/10 27/2/6 49/3/5 25/4/11
f 7/1/10 25/4/11 48/5/12 30/6/13
f 7/1/10 30/6/13 53/7/14 31/8/15
f 7/1/10 31/8/15 52/9/7 27/2/6
f 8/1/16 33/2/17 47/3/18 24/4/19
f 8/1/16 24/4/19 50/5/3 29/6/2
f 8/1/16 29/6/2 51/7/9 32/8/20
f 8/1/16 32/8/20 54/9/21 33/2/17
f 9/1/22 30/2/13 48/3/12 23/4/23
f 9/1/22 23/4/23 47/5/18 33/6/17
f 9/1/22 33/6/17 54/7/21 34/8/24
f 9/1/22 34/8/24 53/9/14 30/2/13
f 10/1/25 37/2/26 53/3/14 34/4/24
f 10/1/25 34/4/24 54/5/21 35/6/27
f 10/1/25 35/6/27 55/7/28 36/8/29
f 10/1/25 36/8/29 56/9/30 37/2/26
f 11/1/31 35/2/27 54/3/21 32/4/20
f 11/1/31 32/4/20 51/5/9 38/6/32
f 11/1/31 38/6/32 58/7/33 39/8/34
f 11/1/31 39/8/34 55/9/28 35/2/27
f 12/1/35 41/2/36 52/3/7 31/4/15
f 12/1/35 31/4/15 53/5/14 37/6/26
f 12/1/35 37/6/26 56/7/30 40/8/37
f 12/1/35 40/8/37 57/9/38 41/2/36
f 13/1/39 38/2/32 51/3/9 28/4/8
f 13/1/39 28/4/8 52/5/7 41/6/36
f 13/1/39 41/6/36 57/7/38 42/8/40
f 13/1/39 42/8/40 58/9/33 38/2/32
f 14/1/41 36/2/29 55/3/28 39/4/34
f 14/1/41 39/4/34 58/5/33 42/6/40
f 14/1/41 42/6/40 57/7/38 40/8/37
f 14/1/41 40/8/37 56/9/30 36/2/29
usemtl Material_test_sky.png
f 1/10/42 16/11/43 43/12/44 15/13/45
f 1/10/42 15/13/45 44/14/46 18/15/47
f 1/10/42 18/15/47 45/16/48 20/17/49
f 1/10/42 20/17/49 46/18/50 16/11/43
usemtl Material.001_test_sky.png
f 2/19/51 15/13/45 43/12/44 17/20/52
f 2/19/51 17/20/52 47/21/18 23/22/23
f 2/19/51 23/22/23 48/23/12 19/24/53
f 2/19/51 19/24/53 44/14/46 15/13/45
f 3/25/54 18/15/47 44/14/46 19/24/53
f 3/25/54 19/24/53 48/23/12 25/26/11
f 3/25/54 25/26/11 49/27/5 21/28/55
f 3/25/54 21/28/55 45/16/48 18/15/47
f 4/29/56 20/17/49 45/16/48 21/28/55
f 4/29/56 21/28/55 49/27/5 26/30/4
f 4/29/56 26/30/4 50/31/3 22/32/57
f 4/29/56 22/32/57 46/18/50 20/17/49
f 5/33/58 24/34/19 47/21/18 17/20/52
f 5/33/58 17/20/52 43/12/44 16/11/43
f 5/33/58 16/11/43 46/18/50 22/32/57
f 5/33/58 22/32/57 50/31/3 24/34/19
