# Blender v2.60 (sub 0) OBJ File: ''
# www.blender.org
mtllib test2.mtl
o Cube
v 0.000000 -1.000000 -0.000000
v 1.000000 0.000000 0.000000
v -0.000000 0.000000 1.000000
v -1.000000 0.000000 -0.000000
v 0.000000 0.000000 -1.000000
v -0.860627 1.143427 -0.000000
v -0.000000 1.143427 0.860627
v 0.000000 1.143427 -0.860627
v 0.860627 1.143427 0.000000
v 0.721254 1.422359 0.000000
v 0.000000 1.422359 -0.721254
v -0.000000 1.422359 0.721254
v -0.721254 1.422359 -0.000000
v -0.000000 1.557863 0.000000
v 0.750000 -0.750000 0.000000
v 0.000000 -0.750000 -0.750000
v 0.750000 0.000000 -0.750000
v -0.000000 -0.750000 0.750000
v 0.750000 0.000000 0.750000
v -0.750000 -0.750000 -0.000000
v -0.750000 0.000000 0.750000
v -0.750000 0.000000 -0.750000
v 0.965157 0.785857 0.000000
v 0.000000 0.785857 -0.965157
v -0.000000 0.785857 0.965157
v -0.965157 0.785857 -0.000000
v -0.645471 1.143427 0.645470
v -0.756098 1.284873 -0.000000
v -0.645470 1.143427 -0.645470
v 0.645470 1.143427 0.645471
v -0.000000 1.284873 0.756098
v 0.000000 1.284873 -0.756097
v 0.645471 1.143427 -0.645470
v 0.756097 1.284873 0.000000
v 0.540941 1.422359 -0.540940
v 0.540941 1.523987 0.000000
v 0.540940 1.422359 0.540941
v -0.540941 1.422359 -0.540941
v 0.000000 1.523987 -0.540941
v -0.000000 1.523987 0.540941
v -0.540941 1.422359 0.540941
v -0.540941 1.523987 -0.000000
v 0.555556 -0.555556 -0.555556
v 0.555555 -0.555556 0.555556
v -0.555556 -0.555556 0.555555
v -0.555555 -0.555556 -0.555556
v 0.723868 0.785857 -0.723867
v 0.723867 0.785857 0.723868
v -0.723868 0.785857 0.723867
v -0.723868 0.785857 -0.723868
v -0.567073 1.284873 -0.567073
v -0.567073 1.284873 0.567073
v 0.567073 1.284873 0.567073
v 0.567073 1.284873 -0.567073
v 0.400697 1.497639 -0.400697
v 0.400697 1.497639 0.400697
v -0.400697 1.497639 0.400697
v -0.400697 1.497639 -0.400697
vn 0.348155 -0.870388 -0.348155
vn 0.348155 -0.870388 0.348155
vn -0.348155 -0.870388 0.348155
vn -0.348155 -0.870388 -0.348155
vn -0.914178 0.267245 -0.304726
vn -0.914179 0.267245 0.304726
vn -0.776797 0.574057 0.258932
vn -0.776797 0.574057 -0.258932
vn -0.304727 0.267245 0.914178
vn 0.304726 0.267245 0.914179
vn 0.258932 0.574057 0.776797
vn -0.258932 0.574057 0.776796
vn 0.304726 0.267245 -0.914178
vn -0.304726 0.267245 -0.914179
vn -0.258932 0.574057 -0.776797
vn 0.258932 0.574057 -0.776797
vn 0.914178 0.267245 0.304727
vn 0.914179 0.267245 -0.304726
vn 0.776797 0.574057 -0.258932
vn 0.776796 0.574057 0.258933
vn 0.922398 0.233766 0.307467
vn 0.922398 0.233765 -0.307466
vn 0.419111 0.892323 -0.167644
vn 0.419111 0.892323 0.167645
vn 0.307466 0.233766 -0.922398
vn -0.307466 0.233766 -0.922398
vn -0.167644 0.892323 -0.419111
vn 0.167645 0.892323 -0.419111
vn -0.307466 0.233766 0.922398
vn 0.307466 0.233765 0.922398
vn 0.167644 0.892323 0.419111
vn -0.167645 0.892323 0.419111
vn -0.922398 0.233765 -0.307466
vn -0.922398 0.233766 0.307466
vn -0.419111 0.892323 0.167644
vn -0.419111 0.892323 -0.167645
vn 0.074729 0.994400 -0.074729
vn -0.074729 0.994400 -0.074729
vn -0.074729 0.994400 0.074729
vn 0.074729 0.994400 0.074729
vn 0.870388 -0.348155 -0.348155
vn 0.947845 0.042025 -0.315948
vn 0.947845 0.042025 0.315949
vn 0.870388 -0.348155 0.348156
vn 0.348155 -0.348155 0.870388
vn 0.315948 0.042025 0.947845
vn -0.315949 0.042025 0.947845
vn -0.348155 -0.348155 0.870388
vn -0.870388 -0.348155 0.348155
vn -0.947845 0.042025 0.315948
vn -0.947845 0.042025 -0.315949
vn -0.870388 -0.348155 -0.348155
vn 0.315949 0.042026 -0.947845
vn 0.348156 -0.348155 -0.870388
vn -0.348155 -0.348155 -0.870388
vn -0.315948 0.042026 -0.947845
usemtl Material
s off
f 1//1 16//1 43//1 15//1
f 1//2 15//2 44//2 18//2
f 1//3 18//3 45//3 20//3
f 1//4 20//4 46//4 16//4
f 6//5 29//5 50//5 26//5
f 6//6 26//6 49//6 27//6
f 6//7 27//7 52//7 28//7
f 6//8 28//8 51//8 29//8
f 7//9 27//9 49//9 25//9
f 7//10 25//10 48//10 30//10
f 7//11 30//11 53//11 31//11
f 7//12 31//12 52//12 27//12
f 8//13 33//13 47//13 24//13
f 8//14 24//14 50//14 29//14
f 8//15 29//15 51//15 32//15
f 8//16 32//16 54//16 33//16
f 9//17 30//17 48//17 23//17
f 9//18 23//18 47//18 33//18
f 9//19 33//19 54//19 34//19
f 9//20 34//20 53//20 30//20
f 10//21 37//21 53//21 34//21
f 10//22 34//22 54//22 35//22
f 10//23 35//23 55//23 36//23
f 10//24 36//24 56//24 37//24
f 11//25 35//25 54//25 32//25
f 11//26 32//26 51//26 38//26
f 11//27 38//27 58//27 39//27
f 11//28 39//28 55//28 35//28
f 12//29 41//29 52//29 31//29
f 12//30 31//30 53//30 37//30
f 12//31 37//31 56//31 40//31
f 12//32 40//32 57//32 41//32
f 13//33 38//33 51//33 28//33
f 13//34 28//34 52//34 41//34
f 13//35 41//35 57//35 42//35
f 13//36 42//36 58//36 38//36
f 14//37 36//37 55//37 39//37
f 14//38 39//38 58//38 42//38
f 14//39 42//39 57//39 40//39
f 14//40 40//40 56//40 36//40
usemtl Material.001
f 2//41 15//41 43//41 17//41
f 2//42 17//42 47//42 23//42
f 2//43 23//43 48//43 19//43
f 2//44 19//44 44//44 15//44
f 3//45 18//45 44//45 19//45
f 3//46 19//46 48//46 25//46
f 3//47 25//47 49//47 21//47
f 3//48 21//48 45//48 18//48
f 4//49 20//49 45//49 21//49
f 4//50 21//50 49//50 26//50
f 4//51 26//51 50//51 22//51
f 4//52 22//52 46//52 20//52
f 5//53 24//53 47//53 17//53
f 5//54 17//54 43//54 16//54
f 5//55 16//55 46//55 22//55
f 5//56 22//56 50//56 24//56
