# Blender v2.60 (sub 0) OBJ File: ''
# www.blender.org
mtllib triangles.mtl
o Cube
v 0.000000 -1.000000 -0.000000
v 1.000000 0.000000 0.000000
v -0.000000 0.000000 1.000000
v -1.000000 0.000000 -0.000000
v 0.000000 0.000000 -1.000000
v -0.860627 1.143427 -0.000000
v -0.000000 1.143427 0.860627
v 0.000000 1.143427 -0.860627
v 0.860627 1.143427 0.000000
v 0.721254 1.422359 0.000000
v 0.000000 1.422359 -0.721254
v -0.000000 1.422359 0.721254
v -0.721254 1.422359 -0.000000
v -0.000000 1.557863 0.000000
v 0.750000 -0.750000 0.000000
v 0.000000 -0.750000 -0.750000
v 0.750000 0.000000 -0.750000
v -0.000000 -0.750000 0.750000
v 0.750000 0.000000 0.750000
v -0.750000 -0.750000 -0.000000
v -0.750000 0.000000 0.750000
v -0.750000 0.000000 -0.750000
v 0.965157 0.785857 0.000000
v 0.000000 0.785857 -0.965157
v -0.000000 0.785857 0.965157
v -0.965157 0.785857 -0.000000
v -0.645471 1.143427 0.645470
v -0.756098 1.284873 -0.000000
v -0.645470 1.143427 -0.645470
v 0.645470 1.143427 0.645471
v -0.000000 1.284873 0.756098
v 0.000000 1.284873 -0.756097
v 0.645471 1.143427 -0.645470
v 0.756097 1.284873 0.000000
v 0.540941 1.422359 -0.540940
v 0.540941 1.523987 0.000000
v 0.540940 1.422359 0.540941
v -0.540941 1.422359 -0.540941
v 0.000000 1.523987 -0.540941
v -0.000000 1.523987 0.540941
v -0.540941 1.422359 0.540941
v -0.540941 1.523987 -0.000000
v 0.555556 -0.555556 -0.555556
v 0.555555 -0.555556 0.555556
v -0.555556 -0.555556 0.555555
v -0.555555 -0.555556 -0.555556
v 0.723868 0.785857 -0.723867
v 0.723867 0.785857 0.723868
v -0.723868 0.785857 0.723867
v -0.723868 0.785857 -0.723868
v -0.567073 1.284873 -0.567073
v -0.567073 1.284873 0.567073
v 0.567073 1.284873 0.567073
v 0.567073 1.284873 -0.567073
v 0.400697 1.497639 -0.400697
v 0.400697 1.497639 0.400697
v -0.400697 1.497639 0.400697
v -0.400697 1.497639 -0.400697
vn 0.000000 -1.000000 0.000000
vn 0.000000 -0.707083 -0.707083
vn 0.577349 -0.577349 -0.577349
vn 0.707083 -0.707083 0.000000
vn 0.577349 -0.577349 0.577349
vn 0.000000 -0.707083 0.707083
vn -0.577349 -0.577349 0.577349
vn -0.707083 -0.707083 0.000000
vn -0.577349 -0.577349 -0.577349
vn -0.902432 0.430799 0.000000
vn -0.633534 0.444075 -0.633534
vn -0.697134 0.167089 -0.697134
vn -0.987121 0.159856 0.000000
vn -0.697134 0.167089 0.697134
vn -0.633534 0.444075 0.633534
vn -0.623432 0.471847 0.623432
vn -0.896084 0.443831 0.000000
vn -0.623432 0.471847 -0.623432
vn 0.000000 0.430799 0.902432
vn 0.000000 0.159856 0.987121
vn 0.697134 0.167089 0.697134
vn 0.633534 0.444075 0.633534
vn 0.623432 0.471847 0.623432
vn 0.000000 0.443831 0.896084
vn 0.000000 0.430799 -0.902432
vn 0.633534 0.444075 -0.633534
vn 0.697134 0.167089 -0.697134
vn 0.000000 0.159856 -0.987121
vn 0.000000 0.443831 -0.896084
vn 0.623432 0.471847 -0.623432
vn 0.902432 0.430799 0.000000
vn 0.987121 0.159856 0.000000
vn 0.896084 0.443831 0.000000
vn 0.801569 0.597858 0.000000
vn 0.571825 0.588214 0.571825
vn 0.571825 0.588214 -0.571825
vn 0.220222 0.950255 -0.220222
vn 0.287332 0.957823 0.000000
vn 0.220222 0.950255 0.220222
vn 0.000000 0.597858 -0.801569
vn -0.571825 0.588214 -0.571825
vn -0.220222 0.950255 -0.220222
vn 0.000000 0.957823 -0.287332
vn 0.000000 0.597858 0.801569
vn -0.571825 0.588214 0.571825
vn 0.000000 0.957823 0.287332
vn -0.220222 0.950255 0.220222
vn -0.801569 0.597858 0.000000
vn -0.287332 0.957823 0.000000
vn 0.000000 0.999969 0.000000
vn 0.987091 -0.159948 0.000000
vn 0.698141 -0.158574 -0.698141
vn 0.698141 -0.158574 0.698141
vn 0.000000 -0.159948 0.987091
vn -0.698141 -0.158574 0.698141
vn -0.987091 -0.159948 0.000000
vn -0.698141 -0.158574 -0.698141
vn 0.000000 -0.159948 -0.987091
usemtl Material
s 1
f 1//1 16//2 43//3 15//4
f 1//1 15//4 44//5 18//6
f 1//1 18//6 45//7 20//8
f 1//1 20//8 46//9 16//2
f 6//10 29//11 50//12 26//13
f 6//10 26//13 49//14 27//15
f 6//10 27//15 52//16 28//17
f 6//10 28//17 51//18 29//11
f 7//19 27//15 49//14 25//20
f 7//19 25//20 48//21 30//22
f 7//19 30//22 53//23 31//24
f 7//19 31//24 52//16 27//15
f 8//25 33//26 47//27 24//28
f 8//25 24//28 50//12 29//11
f 8//25 29//11 51//18 32//29
f 8//25 32//29 54//30 33//26
f 9//31 30//22 48//21 23//32
f 9//31 23//32 47//27 33//26
f 9//31 33//26 54//30 34//33
f 9//31 34//33 53//23 30//22
f 10//34 37//35 53//23 34//33
f 10//34 34//33 54//30 35//36
f 10//34 35//36 55//37 36//38
f 10//34 36//38 56//39 37//35
f 11//40 35//36 54//30 32//29
f 11//40 32//29 51//18 38//41
f 11//40 38//41 58//42 39//43
f 11//40 39//43 55//37 35//36
f 12//44 41//45 52//16 31//24
f 12//44 31//24 53//23 37//35
f 12//44 37//35 56//39 40//46
f 12//44 40//46 57//47 41//45
f 13//48 38//41 51//18 28//17
f 13//48 28//17 52//16 41//45
f 13//48 41//45 57//47 42//49
f 13//48 42//49 58//42 38//41
f 14//50 36//38 55//37 39//43
f 14//50 39//43 58//42 42//49
f 14//50 42//49 57//47 40//46
f 14//50 40//46 56//39 36//38
usemtl Material.001
f 2//51 15//4 43//3 17//52
f 2//51 17//52 47//27 23//32
f 2//51 23//32 48//21 19//53
f 2//51 19//53 44//5 15//4
f 3//54 18//6 44//5 19//53
f 3//54 19//53 48//21 25//20
f 3//54 25//20 49//14 21//55
f 3//54 21//55 45//7 18//6
f 4//56 20//8 45//7 21//55
f 4//56 21//55 49//14 26//13
f 4//56 26//13 50//12 22//57
f 4//56 22//57 46//9 20//8
f 5//58 24//28 47//27 17//52
f 5//58 17//52 43//3 16//2
f 5//58 16//2 46//9 22//57
f 5//58 22//57 50//12 24//28
